<svg width="64" height="63" viewBox="0 0 64 63" fill="none" xmlns="http://www.w3.org/2000/svg">
<path d="M3.56938 29.4047C4.70772 31.2661 6.7962 32.4883 8.56797 31.6253C6.56211 34.2144 7.13127 41.5059 6.59883 45C16.954 37.1627 27.3184 29.1575 39.5188 29.6566C41.4925 29.7359 43.6728 29.8572 45.2151 28.3644C45.9403 27.66 46.4406 26.6663 46.8538 25.654C49.5573 19.0203 49.1258 11.2203 48.6347 3.84484C48.5475 2.56662 48.3731 1.09712 47.4734 0.420688C46.9593 0.0334878 46.3259 0.00549749 45.72 0.000832428C35.3097 -0.0644784 25.083 3.73755 14.6544 2.87451C11.3404 2.59927 5.2218 -1.07213 2.25203 1.13444C-0.378083 3.09377 -0.0705481 8.45392 0.122235 11.6122C0.44354 16.9117 0.897957 25.0242 3.56938 29.4047Z" fill="#E3E6FF"/>
<path d="M18.5694 50.1802C19.7077 51.7089 21.7962 52.7158 23.568 52.0064C21.5621 54.1346 22.1313 60.1303 21.5988 63C31.954 56.5558 42.3184 49.9742 54.5188 50.3816C56.4925 50.4457 58.6728 50.5463 60.2151 49.3197C60.9403 48.7431 61.4406 47.9238 61.8538 47.0908C64.5573 41.6352 64.1258 35.223 63.6347 29.1586C63.5475 28.106 63.3731 26.9022 62.4734 26.3439C61.9593 26.0281 61.3259 26.0052 60.72 26.0006C50.3097 25.9503 40.083 29.0763 29.6544 28.3623C26.3404 28.138 20.2218 25.1173 17.252 26.9297C14.6219 28.5408 14.9295 32.9483 15.1222 35.5479C15.4435 39.9097 15.898 46.5782 18.5694 50.1802Z" fill="#8888CF"/>
<path d="M40.0556 14H7.94444C7.42593 14 7 13.5254 7 12.9475V9.05245C7 8.47463 7.42593 8 7.94444 8H40.0556C40.5741 8 41 8.47463 41 9.05245V12.9475C41 13.5254 40.5741 14 40.0556 14Z" fill="white"/>
<path d="M40.0681 23H21.9319C21.4203 23 21 22.5254 21 21.9475V18.0525C21 17.4746 21.4203 17 21.9319 17H40.0681C40.5797 17 41 17.4746 41 18.0525V21.9475C41 22.5254 40.5797 23 40.0681 23Z" fill="white"/>
<path d="M46.1671 33.7846H21.3803C20.8619 33.7846 20.436 33.3587 20.436 32.8403V32.3589C20.436 31.8405 20.8619 31.4147 21.3803 31.4147H46.1671C46.6856 31.4147 47.1114 31.8405 47.1114 32.3589V32.8403C47.1114 33.3587 46.6856 33.7846 46.1671 33.7846Z" fill="white"/>
<path d="M56.6605 39.8019H21.3803C20.8619 39.8019 20.436 39.3761 20.436 38.8577V38.404C20.436 37.8856 20.8619 37.4598 21.3803 37.4598H56.6605C57.1789 37.4598 57.6047 37.8856 57.6047 38.404V38.8577C57.6094 39.3761 57.1835 39.8019 56.6605 39.8019Z" fill="white"/>
<path d="M56.6605 45.5277H21.3803C20.8619 45.5277 20.436 45.1018 20.436 44.5834V44.1298C20.436 43.6114 20.8619 43.1855 21.3803 43.1855H56.6605C57.1789 43.1855 57.6047 43.6114 57.6047 44.1298V44.5834C57.6094 45.1018 57.1835 45.5277 56.6605 45.5277Z" fill="white"/>
</svg>
