<svg width="304" height="266" viewBox="0 0 304 266" fill="none" xmlns="http://www.w3.org/2000/svg">
<path d="M140.982 265.245C212.778 265.245 270.98 262.979 270.98 260.185C270.98 257.391 212.778 255.126 140.982 255.126C69.1863 255.126 10.9843 257.391 10.9843 260.185C10.9843 262.979 69.1863 265.245 140.982 265.245Z" fill="#E3E6FF"/>
<path d="M260.077 205.156H12.1746C5.49211 205.156 0 199.691 0 192.981V12.1746C0 5.49211 5.46505 0 12.1746 0H260.077C266.76 0 272.252 5.46505 272.252 12.1746V192.981C272.252 199.664 266.787 205.156 260.077 205.156Z" fill="#8888CF"/>
<path d="M252.475 188.03H18.6137C11.9312 188.03 6.43906 182.565 6.43906 175.856V21.0756C6.43906 14.3931 11.9041 8.901 18.6137 8.901H252.475C259.157 8.901 264.649 14.3661 264.649 21.0756V175.856C264.649 182.565 259.184 188.03 252.475 188.03Z" fill="#E3E6FF"/>
<path d="M150.505 195.795H131.405C130.945 195.795 130.566 195.416 130.566 194.956C130.566 194.496 130.945 194.118 131.405 194.118H150.505C150.965 194.118 151.344 194.496 151.344 194.956C151.371 195.416 150.992 195.795 150.505 195.795Z" fill="#E3E6FF"/>
<path d="M14.5555 6.89899C15.6015 6.89899 16.4494 6.05109 16.4494 5.00516C16.4494 3.95922 15.6015 3.11133 14.5555 3.11133C13.5096 3.11133 12.6617 3.95922 12.6617 5.00516C12.6617 6.05109 13.5096 6.89899 14.5555 6.89899Z" fill="#E3E6FF"/>
<path d="M22.7261 6.89899C23.772 6.89899 24.6199 6.05109 24.6199 5.00516C24.6199 3.95922 23.772 3.11133 22.7261 3.11133C21.6801 3.11133 20.8322 3.95922 20.8322 5.00516C20.8322 6.05109 21.6801 6.89899 22.7261 6.89899Z" fill="white"/>
<path d="M30.9777 6.89899C32.0237 6.89899 32.8716 6.05109 32.8716 5.00516C32.8716 3.95922 32.0237 3.11133 30.9777 3.11133C29.9318 3.11133 29.0839 3.95922 29.0839 5.00516C29.0839 6.05109 29.9318 6.89899 30.9777 6.89899Z" fill="#0B0450"/>
<path d="M228.694 112.683H182.403C181.158 112.683 180.13 111.655 180.13 110.41C180.13 109.166 181.158 108.165 182.403 108.165H228.694C229.938 108.165 230.966 109.193 230.966 110.41C230.939 111.682 229.911 112.683 228.694 112.683Z" fill="white"/>
<path d="M228.694 123.018H182.403C181.158 123.018 180.13 121.99 180.13 120.772C180.13 119.528 181.158 118.5 182.403 118.5H228.694C229.938 118.5 230.966 119.528 230.966 120.772C230.939 122.017 229.911 123.018 228.694 123.018Z" fill="white"/>
<path d="M228.694 133.38H182.403C181.158 133.38 180.13 132.352 180.13 131.134C180.13 129.89 181.158 128.862 182.403 128.862H228.694C229.938 128.862 230.966 129.89 230.966 131.134C230.939 132.352 229.911 133.38 228.694 133.38Z" fill="white"/>
<path d="M228.694 145.04H182.403C181.158 145.04 180.13 144.012 180.13 142.768C180.13 141.523 181.158 140.522 182.403 140.522H228.694C229.938 140.522 230.966 141.55 230.966 142.768C230.939 144.012 229.911 145.04 228.694 145.04Z" fill="white"/>
<path d="M228.694 155.375H182.403C181.158 155.375 180.13 154.347 180.13 153.103C180.13 151.858 181.158 150.857 182.403 150.857H228.694C229.938 150.857 230.966 151.885 230.966 153.103C230.939 154.347 229.911 155.375 228.694 155.375Z" fill="white"/>
<path d="M228.694 165.71H182.403C181.158 165.71 180.13 164.682 180.13 163.438C180.13 162.193 181.158 161.192 182.403 161.192H228.694C229.938 161.192 230.966 162.22 230.966 163.438C230.939 164.709 229.911 165.71 228.694 165.71Z" fill="white"/>
<path d="M41.2585 85.9528H137.005C143.688 85.9528 149.18 80.4878 149.18 73.7782V39.1752C149.18 32.4927 143.715 27.0006 137.005 27.0006H41.2585C34.576 27.0006 29.0839 32.4657 29.0839 39.1752V73.7782C29.0839 80.4878 34.5489 85.9528 41.2585 85.9528Z" fill="white"/>
<path d="M31.681 165.737C30.4365 165.737 29.4085 164.709 29.4085 163.465V111.141C29.4085 109.896 30.4365 108.868 31.681 108.868C32.9256 108.868 33.9536 109.896 33.9536 111.141V163.465C33.9536 164.709 32.9526 165.737 31.681 165.737Z" fill="#D7384E"/>
<path d="M42.5841 165.737C41.3396 165.737 40.3114 164.709 40.3114 163.465V140.116C40.3114 138.872 41.3396 137.844 42.5841 137.844C43.8287 137.844 44.8567 138.872 44.8567 140.116V163.465C44.8567 164.709 43.8287 165.737 42.5841 165.737Z" fill="#D7384E"/>
<path d="M53.4873 165.737C52.2427 165.737 51.2147 164.709 51.2147 163.465V117.85C51.2147 116.606 52.2427 115.578 53.4873 115.578C54.7318 115.578 55.7598 116.606 55.7598 117.85V163.465C55.7598 164.709 54.7318 165.737 53.4873 165.737Z" fill="#D7384E"/>
<path d="M64.3634 165.737C63.1189 165.737 62.0907 164.709 62.0907 163.465V146.718C62.0907 145.473 63.1189 144.445 64.3634 144.445C65.6079 144.445 66.6359 145.473 66.6359 146.718V163.465C66.6359 164.709 65.6349 165.737 64.3634 165.737Z" fill="#D7384E"/>
<path d="M75.2663 165.737C74.0217 165.737 72.9937 164.709 72.9937 163.465V135.22C72.9937 133.975 74.0217 132.947 75.2663 132.947C76.5108 132.947 77.5388 133.975 77.5388 135.22V163.465C77.5388 164.709 76.5108 165.737 75.2663 165.737Z" fill="#D7384E"/>
<path d="M86.1693 165.737C84.9248 165.737 83.8967 164.709 83.8967 163.465V155.105C83.8967 153.86 84.9248 152.832 86.1693 152.832C87.4138 152.832 88.442 153.86 88.442 155.105V163.465C88.442 164.709 87.4138 165.737 86.1693 165.737Z" fill="#D7384E"/>
<path d="M44.6673 68.0968C51.1063 76.9437 63.4704 78.8916 72.3173 72.4796L49.0502 40.4469C40.2033 46.8859 38.2283 59.2499 44.6673 68.0968Z" fill="#8888CF"/>
<path d="M51.1334 38.9317L61.7931 53.5954L76.7543 42.7194C70.667 34.7382 59.3039 33.0067 51.1334 38.9317Z" fill="#8888CF"/>
<path d="M83.6803 41.5019C83.5721 41.3667 83.4638 41.2585 83.3556 41.1232L63.2811 55.7057L78.1881 76.2132C89.3076 68.1238 91.7426 52.5944 83.6803 41.5019Z" fill="#FF9A9A"/>
<path d="M100.508 42.2866C100.508 40.9609 101.591 39.8787 102.916 39.8787H135.22C136.545 39.8787 137.627 40.9609 137.627 42.2866C137.627 43.6123 136.545 44.6944 135.22 44.6944H102.916C101.591 44.6944 100.508 43.5852 100.508 42.2866Z" fill="#FF9A9A"/>
<path d="M100.508 53.8118C100.508 52.4861 101.591 51.404 102.916 51.404H113.873C115.199 51.404 116.281 52.4861 116.281 53.8118C116.281 55.1375 115.199 56.2197 113.873 56.2197H102.916C101.591 56.2197 100.508 55.1375 100.508 53.8118Z" fill="#8888CF"/>
<path d="M114.469 151.29C102.51 151.29 92.7708 141.55 92.7708 129.592C92.7708 117.634 102.51 107.894 114.469 107.894C126.427 107.894 136.166 117.634 136.166 129.592C136.166 141.55 126.454 151.29 114.469 151.29ZM114.469 109.896C103.62 109.896 94.7728 118.716 94.7728 129.592C94.7728 140.441 103.593 149.288 114.469 149.288C125.345 149.288 134.164 140.468 134.164 129.592C134.164 118.716 125.345 109.896 114.469 109.896Z" fill="#978CFF"/>
<path d="M114.469 144.202C106.406 144.202 99.859 137.654 99.859 129.592C99.859 121.53 106.406 114.982 114.469 114.982C122.531 114.982 129.078 121.53 129.078 129.592C129.078 137.654 122.531 144.202 114.469 144.202ZM114.469 116.985C107.543 116.985 101.888 122.639 101.888 129.565C101.888 136.518 107.543 142.145 114.469 142.145C121.395 142.145 127.049 136.491 127.049 129.565C127.076 122.639 121.422 116.985 114.469 116.985Z" fill="#978CFF"/>
<path d="M114.469 137.952C109.842 137.952 106.082 134.191 106.082 129.565C106.082 124.939 109.842 121.178 114.469 121.178C119.095 121.178 122.856 124.939 122.856 129.565C122.856 134.191 119.095 137.952 114.469 137.952ZM114.469 123.234C110.952 123.234 108.111 126.075 108.111 129.592C108.111 133.109 110.952 135.95 114.469 135.95C117.959 135.95 120.826 133.109 120.826 129.592C120.826 126.075 117.986 123.234 114.469 123.234Z" fill="#978CFF"/>
<path d="M113.386 131.405L113.63 126.237C113.657 125.669 114.117 125.236 114.685 125.263C115.253 125.29 115.686 125.75 115.659 126.318L115.605 127.752L149.234 108.002C149.721 107.705 150.343 107.894 150.614 108.354C150.884 108.841 150.722 109.463 150.262 109.734L113.386 131.405Z" fill="#FF9A9A"/>
<path d="M117.932 131.594H114.469C113.9 131.594 113.441 131.134 113.441 130.566C113.441 129.998 113.9 129.538 114.469 129.538H117.932C118.5 129.538 118.96 129.998 118.96 130.566C118.96 131.134 118.5 131.594 117.932 131.594Z" fill="#FF9A9A"/>
<path d="M176.045 86.3045C175.883 86.3045 175.721 86.2775 175.558 86.1693C175.071 85.8987 174.882 85.2764 175.152 84.7895L183.485 69.6388L190.141 75.9967L194.578 68.9624L198.473 71.3162L207.78 48.2386L214.246 59.7368L220.334 50.7005L225.474 57.0043L235.863 37.8495C236.188 37.2543 236.621 36.5779 237.081 35.8745C237.459 35.3064 237.865 34.6841 238.217 34.0889C237.811 34.2513 237.432 34.4407 237.053 34.63C236.35 34.9547 235.674 35.2793 235.079 35.4687C234.565 35.6581 233.969 35.3605 233.78 34.8194C233.59 34.2783 233.888 33.7102 234.429 33.5208C234.916 33.3584 235.538 33.0608 236.188 32.7632C237.486 32.168 238.812 31.5458 240.002 31.4376L241.436 31.3294L241.058 32.7362C240.679 34.0889 239.732 35.5499 238.785 36.9838C238.352 37.6602 237.946 38.2824 237.649 38.8235L225.799 60.6296L220.469 54.0824L214.057 63.5786L208.024 52.892L199.42 74.2652L195.2 71.722L190.519 79.1891L183.999 72.9395L176.938 85.7905C176.748 86.1151 176.397 86.3045 176.045 86.3045Z" fill="#0B0450"/>
<path d="M240.679 38.553C240.111 38.553 239.651 38.0931 239.651 37.5249V32.4657C239.651 31.8975 240.111 31.4376 240.679 31.4376C241.247 31.4376 241.707 31.8975 241.707 32.4657V37.5249C241.68 38.1201 241.247 38.553 240.679 38.553Z" fill="#0B0450"/>
<path d="M175.044 92.2025C174.476 92.2025 174.016 91.7425 174.016 91.1744V26.4595C174.016 25.8914 174.476 25.4314 175.044 25.4314C175.612 25.4314 176.072 25.8914 176.072 26.4595V91.1744C176.045 91.7696 175.585 92.2025 175.044 92.2025Z" fill="#8888CF"/>
<path d="M168.876 86.3045C168.876 85.7364 169.335 85.2764 169.904 85.2764H234.619C235.187 85.2764 235.647 85.7364 235.647 86.3045C235.647 86.8727 235.187 87.3326 234.619 87.3326H169.904C169.335 87.3056 168.876 86.8456 168.876 86.3045Z" fill="#8888CF"/>
<path d="M212.596 41.3937H193.766C191.899 41.3937 190.384 39.8787 190.384 38.0119C190.384 36.1451 191.899 34.63 193.766 34.63H212.596C214.463 34.63 215.978 36.1451 215.978 38.0119C215.978 39.8787 214.436 41.3937 212.596 41.3937Z" fill="#D7384E"/>
<path d="M226.15 56.2197H225.393V57.2478H226.15V56.2197Z" fill="#0B0450"/>
<path d="M226.15 54.2988H225.393V52.3779H226.15V54.2988ZM226.15 50.4841H225.393V48.5903H226.15V50.4841ZM226.15 46.6694H225.393V44.7485H226.15V46.6694ZM226.15 42.8547H225.393V40.9608H226.15V42.8547Z" fill="#0B0450"/>
<path d="M226.151 39.04H225.393V38.4178H224.744V37.6331H226.151V39.04Z" fill="#0B0450"/>
<path d="M222.173 37.6331H219.576V38.3907H222.173V37.6331Z" fill="#0B0450"/>
<path d="M217.006 37.6331H215.978V38.3907H217.006V37.6331Z" fill="#0B0450"/>
<path d="M226.232 61.7659H225.285C224.013 61.7659 222.985 60.7379 222.985 59.4663V58.5194C222.985 57.2478 224.013 56.2197 225.285 56.2197H226.232C227.503 56.2197 228.531 57.2478 228.531 58.5194V59.4663C228.531 60.7108 227.503 61.7659 226.232 61.7659Z" fill="#D7384E"/>
<path d="M297.358 108.138C297.358 108.138 300.362 122.396 300.091 128.239C299.82 134.083 294.761 142.768 294.761 142.768L291.488 108.138H297.358Z" fill="#EAC2AB"/>
<path d="M279.448 81.9758L280.098 94.2586L289.702 97.9651C289.702 97.9651 283.912 89.497 284.886 81.9758C285.887 74.4546 279.448 81.9758 279.448 81.9758Z" fill="#D4A79A"/>
<path d="M270.845 56.8419C270.845 56.8419 268.762 59.6286 270.791 68.1238C272.82 76.646 276.148 83.8967 278.718 83.3826C285.806 81.9758 288.295 76.9436 290.757 72.6419C293.76 67.3663 287.781 54.4882 287.781 54.4882L282.127 51.431L270.845 56.8419Z" fill="#EAC2AB"/>
<path d="M263.297 54.5423C262.674 52.5402 263.757 49.9971 265.218 48.7526C265.786 48.2656 266.489 47.968 267.193 48.0491C267.734 48.1032 268.248 48.3467 268.762 48.2656C270.331 47.995 270.52 45.6683 272.008 45.2084C273.091 44.8567 274.146 45.8577 275.255 46.1012C276.094 46.2906 276.959 46.0741 277.825 45.8848C280.206 45.3707 282.424 44.2344 284.859 43.9368C286.915 43.6933 289.08 43.9098 290.947 44.9108C292.895 45.966 294.301 47.8868 295.032 50.1053C295.465 51.431 295.627 52.919 295.275 54.2717C295.573 53.1625 297.575 54.3529 297.9 54.7858C299.171 56.5173 299.388 60.2508 298.711 62.2529C298.17 63.8491 297.277 65.2559 296.79 66.8522C296.195 68.773 295.952 70.9104 294.897 72.6148C293.679 74.5628 287.105 81.0018 285.022 80.4607C285.671 78.7021 282.533 77.0789 282.641 75.185C282.749 73.2912 283.939 63.3892 274.579 61.5224C270.845 60.7919 275.634 59.5745 271.9 59.7368C270.141 59.818 268.356 59.4663 266.706 58.7899C265.434 58.2759 264.162 56.3549 263.459 54.9481C263.405 54.8669 263.351 54.7046 263.297 54.5423Z" fill="#0B0450"/>
<path d="M282.045 67.3932C282.045 67.3932 285.941 64.0655 285.644 68.5566C285.373 73.0747 281.721 74.3734 281.721 74.3734L282.045 67.3932Z" fill="#EAC2AB"/>
<path d="M292.435 237.54L290.054 253.773L295.384 255.126L296.872 238.054C296.872 238.054 294.058 236.891 292.435 237.54Z" fill="#D4A79A"/>
<path d="M269.113 261.565C269.113 261.565 273.117 262.62 280.639 262.647C288.16 262.674 296.547 262.377 297.981 261.159C299.415 259.942 299.739 250.419 297.25 250.608C294.761 250.797 294.031 254.45 289.404 251.555C285.454 249.066 282.803 254.477 276.337 256.317C269.871 258.156 267.247 258.887 269.113 261.565Z" fill="#F97373"/>
<path d="M279.124 242.546C279.34 241.896 279.962 241.355 280.476 240.814C285.373 235.89 283.615 229.045 282.37 223.039C279.367 208.808 280.476 194.145 280.26 179.725C280.043 165.629 277.771 151.642 273.875 138.169C272.468 133.272 270.439 125.696 277.608 126.643C280.99 127.103 284.291 126.724 287.565 125.859C289.296 125.399 287.456 124.912 289.296 125.399C295.546 127.103 299.09 145.067 298.143 149.531C296.276 158.405 295.627 161.246 295.87 170.499C296.222 183.62 295.14 196.85 297.467 209.728C298.603 216.032 299.875 222.336 301.092 228.612C301.795 232.292 305.204 240.192 303.554 243.682C301.254 248.471 289.35 245.386 285.454 245.549C282.532 245.684 278.42 244.764 279.124 242.546Z" fill="#06053D"/>
<path d="M280.341 238.109L276.824 254.125L282.045 255.857L284.724 238.92C284.724 238.92 282.018 237.567 280.341 238.109Z" fill="#EAC2AB"/>
<path d="M255.397 260.429C255.397 260.429 259.32 261.754 266.814 262.322C274.308 262.891 282.695 263.161 284.21 262.052C285.725 260.943 286.699 251.474 284.21 251.474C281.721 251.474 280.747 255.099 276.31 251.852C272.522 249.093 269.519 254.314 262.945 255.694C256.371 257.074 253.719 257.642 255.397 260.429Z" fill="#FF9A9A"/>
<path d="M266.705 242.573C266.949 241.977 267.625 241.545 268.193 241.085C273.442 236.918 272.143 230.533 271.305 224.96C269.303 211.757 271.44 198.446 272.252 185.217C273.036 172.312 271.738 159.379 268.789 146.826C267.706 142.254 266.245 135.192 273.307 136.545C276.662 137.167 279.962 137.059 283.29 136.464C285.048 136.166 283.263 135.598 285.048 136.166C291.163 138.114 293.517 144.608 292.272 148.639C289.783 156.647 288.863 169.336 288.457 177.804C287.889 189.816 285.887 201.855 287.321 213.759C288.024 219.603 288.836 225.42 289.621 231.264C290.081 234.673 292.921 242.113 291 245.197C288.376 249.418 276.716 245.846 272.82 245.738C269.898 245.684 265.867 244.575 266.705 242.573Z" fill="#0B0450"/>
<path d="M259.915 105.513C257.399 107.434 254.693 109.112 251.879 110.573C249.688 111.709 243.763 115.497 241.463 113.17C240.787 112.494 240.489 111.52 240.273 110.6C238.839 105.135 236.783 99.859 234.754 94.6104C232.941 89.9029 230.777 84.9519 230.939 79.8115C231.101 74.5629 230.804 67.4745 230.29 66.2029C229.776 64.9314 225.691 57.356 225.609 59.7098C225.528 62.0636 229.478 68.5296 227.693 68.2861C225.88 68.0426 222.038 69.5577 222.498 72.2902C222.958 75.0228 225.853 80.9207 225.853 80.9207C227.124 86.2234 228.45 91.5262 229.83 96.8018C230.858 100.752 231.913 104.702 233.103 108.598C234.24 112.412 235.322 116.525 238.65 119.041C239.083 119.365 239.543 119.663 240.03 119.907C243.979 121.8 248.66 119.825 252.502 117.715C260.781 113.197 268.599 108.002 276.499 102.862C274.957 101.347 273.415 99.8319 271.873 98.3169C271.494 97.9652 271.088 97.5593 270.574 97.5052C269.979 97.4241 269.411 97.7487 268.924 98.1004C266.462 99.8319 264.298 101.942 261.998 103.89C261.295 104.458 260.591 104.999 259.915 105.513Z" fill="#EAC2AB"/>
<path d="M286.753 109.734C286.753 109.734 278.637 96.0984 284.832 93.5553C291.028 91.0121 297.358 108.165 297.358 108.165L287.159 112.196L286.753 109.734Z" fill="#FE67AF"/>
<path d="M267.95 139.278C267.95 138.71 267.003 124.073 269.086 114.685C271.142 105.297 269.086 97.2346 276.229 91.6072C283.371 85.9799 289.188 93.474 291.055 97.424C292.922 101.374 294.518 113.873 294.761 120.502C295.032 127.292 298.603 141.604 298.738 141.902C301.579 147.8 299.712 147.34 299.469 147.908C297.927 151.398 287.998 152.075 285.617 150.83C280.368 148.125 279.259 146.664 273.632 147.529C271.197 147.908 268.491 147.151 267.761 146.393C267.03 145.636 267.95 139.278 267.95 139.278Z" fill="#F9A0CF"/>
<path d="M263.973 99.1284C263.973 99.1284 277.149 85.0871 282.208 91.4449C287.267 97.8298 269.384 110.951 269.384 110.951L261.267 100.4L263.973 99.1284Z" fill="#FE67AF"/>
</svg>
