<svg width="333" height="172" viewBox="0 0 333 172" fill="none" xmlns="http://www.w3.org/2000/svg">
<path d="M311.678 61.2206C311.974 61.6975 312.042 62.3106 312.064 62.8783C312.223 68.1011 308.794 73.2331 303.912 75.0951C302.754 75.5266 301.505 75.8218 300.62 76.662C299.734 77.5022 299.439 79.1599 300.415 79.8865C301.074 80.3634 301.959 80.2726 302.777 80.1364C305.706 79.6595 308.635 79.1599 311.565 78.683C312.155 81.3626 310.588 84.3373 308.045 85.3592C306.978 85.7906 305.797 85.9041 304.798 86.4491C303.776 86.9941 302.958 88.1976 303.39 89.2422C303.799 90.1959 305.116 90.7864 305.025 91.8309C304.934 92.8301 303.662 93.148 302.709 93.4886C297.804 95.2598 297.985 102.367 294.693 106.387C292.558 108.998 289.107 110.065 285.859 111.019C283.066 111.837 280.137 112.654 277.276 112.086C272.575 111.178 269.124 106.137 269.941 101.414C270.781 96.7131 274.96 93.4886 278.616 90.423C286.291 84.0194 292.422 78.0699 294.216 68.1692C294.806 64.8766 295.76 62.6512 298.757 60.7891C301.687 58.9498 309.339 57.3603 311.678 61.2206Z" fill="#F44E4E"/>
<path d="M267.375 97.2581C269.6 94.3515 271.849 91.4449 274.074 88.5383C280.682 79.9547 287.381 71.1894 291.196 61.0389C292.694 57.0196 293.739 52.7505 293.398 48.4814C293.33 47.5958 293.149 46.6648 292.513 46.0744C291.4 45.0753 289.652 45.6657 288.312 46.3469C284.315 48.4133 280.591 50.9566 277.208 53.9087C277.094 44.5303 286.223 37.4454 287.835 28.226C288.107 26.7272 288.13 25.0923 287.335 23.7979C286.813 22.9804 285.996 22.3673 285.11 21.9585C282.09 20.5733 278.434 21.3909 275.664 23.2302C272.893 25.0695 270.849 27.7718 268.851 30.4286C271.644 26.8862 273.393 22.549 273.824 18.0528C274.006 16.1907 273.915 14.147 272.689 12.7391C270.6 10.3548 266.512 11.354 264.287 13.6021C259.995 17.9393 260.177 24.8424 260.313 30.9282C260.472 37.0366 259.768 44.1442 254.659 47.4823C254.046 47.8911 253.364 48.2317 253.001 48.8902C252.297 50.1391 253.273 51.7287 254.522 52.4327C255.749 53.1593 257.225 53.3864 258.428 54.1584C261.13 55.8615 261.675 59.5856 261.38 62.7874C261.085 65.9893 260.245 69.2592 261.199 72.3021C262.402 76.0943 262.652 80.9538 263.537 84.8142C263.946 86.5854 267.216 86.1994 267.284 88.016C267.352 89.8099 267.829 91.7628 269.283 92.8528C270.736 93.9428 273.302 93.4886 273.733 91.7401" fill="#0B0450"/>
<path d="M319.354 158.229C323.396 157.888 327.574 157.343 331.003 155.186C332.274 154.391 333.523 152.825 332.774 151.53C332.479 151.008 331.934 150.713 331.389 150.44C325.916 147.67 319.444 146.898 313.472 148.306C311.088 148.873 308.567 149.759 306.296 148.873C311.428 145.989 316.56 143.083 321.692 140.199C322.692 139.631 323.736 139.041 324.372 138.064C325.008 137.088 325.031 135.657 324.145 134.908C323.759 134.59 323.237 134.454 322.737 134.363C319.649 133.795 316.311 134.908 314.153 137.179C317.378 133.023 319.535 128.027 320.353 122.805C320.466 122.055 320.534 121.238 320.148 120.579C319.785 119.989 319.127 119.671 318.468 119.489C316.174 118.808 313.563 119.262 311.633 120.67C309.385 122.328 308.181 125.007 306.66 127.346C305.116 129.685 302.754 131.911 299.984 131.683C302.936 127.278 304.412 121.896 304.162 116.605C304.071 114.743 303.753 112.813 302.641 111.314C301.255 109.452 298.826 108.567 296.509 108.703C294.193 108.862 292.013 109.929 290.219 111.383C284.815 115.697 282.567 123.599 284.928 130.117C285.519 131.729 286.359 133.477 285.769 135.09C285.36 136.225 284.315 136.997 283.293 137.656C276.458 142.084 267.988 149.305 276.731 157.094C279.092 159.205 281.545 159.296 284.588 159.205C289.515 159.069 294.42 159.115 299.325 159.069C306.001 159.024 312.7 158.797 319.354 158.229Z" fill="#FF9A9A"/>
<path d="M260.676 94.0109C260.631 94.0109 260.608 94.011 260.563 93.9883C260.336 93.9428 260.199 93.693 260.245 93.466C273.597 40.6018 273.87 40.352 273.983 40.2385C274.142 40.0795 274.415 40.0795 274.596 40.2385C274.732 40.3747 274.755 40.5791 274.664 40.7381C274.165 42.0552 265.581 75.89 261.085 93.6703C261.04 93.8747 260.858 94.0109 260.676 94.0109Z" fill="white"/>
<path d="M266.421 71.3259C266.262 71.3259 266.103 71.235 266.035 71.0761C265.944 70.8717 266.035 70.5992 266.24 70.5084L282.748 62.8331C282.953 62.7422 283.225 62.8331 283.316 63.0375C283.407 63.2418 283.316 63.5143 283.112 63.6052L266.603 71.2805C266.558 71.3259 266.489 71.3259 266.421 71.3259Z" fill="white"/>
<path d="M288.698 97.1219C288.652 97.1219 288.584 97.0992 288.539 97.0992C288.312 97.0084 288.221 96.7586 288.312 96.5542L298.985 70.758C299.075 70.5309 299.325 70.4401 299.53 70.5309C299.757 70.6217 299.847 70.8715 299.757 71.0759L289.084 96.8721C289.038 97.0311 288.879 97.1219 288.698 97.1219Z" fill="white"/>
<path d="M288.698 157.321C288.584 157.321 288.493 157.275 288.403 157.207C288.221 157.048 288.221 156.776 288.38 156.617L306.296 137.974C306.455 137.792 306.728 137.792 306.91 137.951C307.091 138.11 307.091 138.382 306.932 138.564L289.016 157.207C288.925 157.275 288.811 157.321 288.698 157.321Z" fill="white"/>
<path d="M311.292 154.414C311.247 154.414 311.224 154.414 311.179 154.391L295.578 150.327C295.351 150.259 295.215 150.031 295.283 149.804C295.351 149.577 295.578 149.441 295.805 149.509L311.406 153.574C311.633 153.642 311.769 153.869 311.701 154.096C311.656 154.301 311.497 154.414 311.292 154.414Z" fill="white"/>
<path d="M187.716 151.485H132.921C131.082 151.485 129.561 149.986 129.561 148.124C129.561 146.285 131.059 144.763 132.921 144.763H187.738C189.578 144.763 191.099 146.262 191.099 148.124C191.076 149.986 189.578 151.485 187.716 151.485Z" fill="#978CFF"/>
<path d="M170.594 151.485H150.043C148.612 151.485 147.432 150.304 147.432 148.873V124.371C147.432 122.941 148.612 121.76 150.043 121.76H170.594C172.024 121.76 173.205 122.941 173.205 124.371V148.873C173.205 150.304 172.024 151.485 170.594 151.485Z" fill="#978CFF"/>
<path d="M256.067 130.73H64.5703C60.6191 130.73 57.3719 127.482 57.3719 123.531V7.19841C57.3719 3.24723 60.6191 0 64.5703 0H256.067C260.018 0 263.265 3.24723 263.265 7.19841V123.531C263.265 127.505 260.018 130.73 256.067 130.73Z" fill="#8888CF"/>
<path d="M67.2271 3.04291C63.662 3.04291 60.7554 5.94953 60.7554 9.51467V51.3427C81.1471 34.9703 101.834 18.8931 122.703 3.04291H67.2271Z" fill="#EFF0FC"/>
<path d="M252.638 3.04291H234.131H122.703C101.811 18.9158 81.1471 34.993 60.7554 51.3427V95.2599V111.065C60.7554 114.63 63.662 117.536 67.2271 117.536H252.638C256.203 117.536 259.109 114.63 259.109 111.065V9.49194C259.109 5.97221 256.203 3.04291 252.638 3.04291Z" fill="#E3E6FF"/>
<path d="M159.921 125.098C160.912 125.098 161.715 124.295 161.715 123.304C161.715 122.313 160.912 121.51 159.921 121.51C158.93 121.51 158.127 122.313 158.127 123.304C158.127 124.295 158.93 125.098 159.921 125.098Z" fill="#0B0450"/>
<path d="M3.59947 155.254C3.25885 154.936 2.89553 154.573 2.85011 154.119C2.8047 153.551 3.23615 153.052 3.71301 152.756C4.96195 151.962 6.50609 151.893 7.93669 151.507C9.3673 151.121 10.866 150.168 10.9796 148.692C11.1839 145.694 6.05193 143.174 4.14446 141.607C2.75928 140.471 1.32868 139.268 0.533899 137.656C-0.260879 136.043 -0.238171 133.886 1.07889 132.66C2.69116 131.138 9.59437 132.455 11.3883 131.138C13.7272 129.435 -1.66877 125.03 11.1385 123.236C8.32273 115.674 16.6565 118.218 18.5413 120.125C19.7448 121.351 22.9694 125.234 24.4681 124.44C25.172 124.076 28.6918 124.985 29.1686 124.349C31.1669 121.805 26.9433 124.258 29.7363 122.646C32.9382 128.799 28.2376 137.224 27.8289 143.605C27.6245 146.807 31.4621 147.193 31.5757 150.667C31.6438 152.734 30.8036 154.687 29.9634 156.571C28.8734 159.046 27.6018 161.703 25.172 162.884C23.1283 163.883 20.6986 163.588 18.4959 163.066C13.0233 161.726 7.84586 159.024 3.59947 155.254Z" fill="#0B0450"/>
<path d="M26.966 166.745C26.7843 166.745 26.6253 166.631 26.5572 166.449L14.6583 131.888C14.5901 131.661 14.7037 131.434 14.9308 131.343C15.1578 131.275 15.3849 131.388 15.4757 131.615L27.3974 166.2C27.4655 166.427 27.352 166.654 27.1249 166.745C27.0568 166.745 27.0114 166.745 26.966 166.745Z" fill="white"/>
<path d="M18.8819 143.265C18.8365 143.265 18.7684 143.242 18.723 143.219C8.64065 138.973 8.66335 138.746 8.66335 138.382C8.66335 138.201 8.7996 138.042 8.95856 137.974C9.16293 137.905 9.3673 137.996 9.45813 138.155C10.2529 138.655 15.6801 141.016 19.0409 142.424C19.2453 142.515 19.3588 142.765 19.268 142.969C19.1998 143.174 19.0409 143.265 18.8819 143.265Z" fill="white"/>
<path d="M24.6724 160.091C24.627 160.091 24.5816 160.091 24.5362 160.068C24.4454 160.023 11.3656 155.436 11.3656 155.436L11.6381 154.641C24.8995 159.319 24.8995 159.319 24.9676 159.387C25.1039 159.523 25.1266 159.75 25.0358 159.909C24.9676 160.023 24.8087 160.091 24.6724 160.091Z" fill="white"/>
<path d="M103.083 148.487C104.037 147.783 105.104 146.898 105.172 145.717C105.24 144.445 104.037 143.355 102.765 143.219C101.493 143.106 100.267 143.741 99.3362 144.627C98.3144 140.494 105.944 138.291 105.308 134.09C103.31 133.387 100.88 134.136 99.6314 135.862C98.2689 132.66 100.381 129.095 102.561 126.392C104.741 123.69 107.193 120.534 106.535 117.105C104.604 116.787 102.538 117.4 101.085 118.694C100.154 117.15 99.9948 115.175 100.653 113.494C101.062 112.495 101.743 111.496 101.584 110.429C101.244 108.226 98.1327 108.135 95.9527 108.635C96.2707 103.548 91.9561 98.6206 86.8696 98.2573C84.6215 98.0984 81.8284 99.37 81.9192 101.641C81.9419 102.436 82.3507 103.162 82.6913 103.889C84.2127 107.136 84.6669 110.883 83.9175 114.403C83.259 117.536 81.783 121.011 83.5315 123.69C84.0992 124.553 84.9394 125.212 85.5071 126.075C86.1429 127.096 86.3246 128.345 86.4608 129.549C87.2556 135.794 86.4608 147.352 90.5937 152.484C94.6584 157.525 103.514 150.963 107.307 148.147C113.302 143.696 117.957 136.747 117.707 129.299C117.684 128.845 117.639 128.368 117.298 128.05C116.935 127.71 116.367 127.755 115.89 127.8C113.688 128.027 111.485 128.277 109.305 128.504C110.395 122.827 116.98 118.899 116.731 113.131C115.164 112.949 113.597 112.79 112.03 112.631C113.324 110.542 114.641 108.362 115.005 105.933C115.368 103.503 114.551 100.71 112.416 99.5062C109.282 97.735 105.49 100.029 102.674 102.231C108.805 97.4398 113.892 65.3535 99.6996 72.4157C98.1327 73.1878 96.3161 73.8009 94.6811 73.2332C90.7299 71.848 94.3405 65.4898 92.2741 62.6286C91.5474 61.6067 90.3666 60.9936 89.1631 60.653C86.37 59.8809 83.1909 60.6075 80.9882 62.515C78.7855 64.4225 77.6274 67.4426 77.9907 70.3265C78.2632 72.4611 79.2851 74.414 80.2161 76.3441C83.259 82.5888 57.3946 65.8304 67.2045 88.9244C63.2987 86.2903 78.5812 91.445 73.926 92.1716C69.2709 92.921 64.9791 96.9857 65.2289 101.686C65.456 106.023 69.1119 109.293 72.3592 112.2C75.6064 115.107 78.9445 118.899 78.286 123.191C77.8999 125.666 76.2422 127.71 75.2885 130.026C74.3348 132.342 74.4029 135.521 76.5829 136.747C77.8545 137.451 79.5576 137.292 80.6476 138.269C81.6694 139.154 81.783 140.676 81.9873 142.016C82.6459 146.648 85.5979 152.984 89.9351 155.345C93.9771 157.593 99.4952 151.144 103.083 148.487Z" fill="#FF9A9A"/>
<path d="M101.698 156.367C101.494 156.367 101.312 156.231 101.289 156.026L90.8662 101.05C90.8208 100.823 90.9797 100.596 91.2068 100.551C91.4339 100.505 91.661 100.664 91.7064 100.891L102.129 155.867C102.175 156.094 102.016 156.321 101.789 156.367C101.766 156.367 101.721 156.367 101.698 156.367Z" fill="white"/>
<path d="M96.5886 129.39C96.5204 129.39 96.4296 129.367 96.3615 129.322C96.1571 129.186 96.089 128.936 96.2252 128.731L105.876 113.176C105.99 112.972 106.262 112.927 106.467 113.04C106.671 113.154 106.739 113.426 106.603 113.631L96.9519 129.186C96.8838 129.322 96.7475 129.39 96.5886 129.39Z" fill="white"/>
<path d="M88.3002 98.8931C88.232 98.8931 88.1412 98.8704 88.0731 98.825C87.8687 98.6888 87.8006 98.439 87.9368 98.2346L97.5877 82.6797C97.7012 82.4753 97.9738 82.4072 98.1781 82.5434C98.3825 82.6797 98.4506 82.9295 98.3144 83.1338L88.6635 98.6888C88.5954 98.825 88.4364 98.8931 88.3002 98.8931Z" fill="white"/>
<path d="M168.982 124.53C169.458 124.212 170.003 123.963 170.548 123.804C172.887 123.191 175.34 124.417 177.247 125.915C179.155 127.414 180.858 129.254 183.106 130.185C184.15 130.616 185.763 130.548 185.944 129.435C186.035 128.913 185.717 128.436 185.422 128.005C182.402 123.69 178.292 120.466 174.545 116.832C173.546 115.856 172.456 114.516 173.001 113.222C173.569 111.837 175.612 111.791 176.907 112.495C178.224 113.222 179.223 114.425 180.608 115.016C180.971 115.175 181.357 115.265 181.743 115.197C182.47 115.061 182.924 114.266 182.97 113.54C183.197 108.975 177.474 105.842 175.499 102.277C173.818 99.2337 173.818 95.5549 174.091 92.0806C174.318 89.3784 174.772 86.4945 176.566 84.4508C176.975 83.9966 177.497 83.5651 178.11 83.5197C180.449 83.3381 180.903 88.7425 182.311 90.1504C183.583 91.4221 185.354 92.2623 186.24 93.8519C187.352 95.8502 186.716 98.3253 187.034 100.596C187.557 104.207 190.872 104.842 192.03 107.522C192.053 105.456 192.076 103.366 192.076 101.3C192.076 100.642 192.121 99.8922 192.598 99.4607C193.665 98.4843 195.277 99.983 195.595 101.391C196.004 103.253 195.641 105.183 195.641 107.068C195.663 108.975 196.231 111.065 197.866 112.041C199.66 113.108 201.931 112.359 203.952 111.746C205.973 111.133 208.448 110.792 209.856 112.336C210.401 112.949 210.696 113.744 210.832 114.561C212.149 121.397 205.723 128.209 207.699 134.862C209.47 140.835 213.353 144.309 207.176 149.259C204.633 151.28 201.84 152.279 198.593 151.53C196.095 150.962 193.847 149.668 191.599 148.464C186.943 145.967 181.721 144.922 176.816 143.015C173.387 141.675 170.049 139.767 167.937 136.77C165.825 133.772 165.189 129.503 167.165 126.415C167.664 125.666 168.278 125.007 168.982 124.53Z" fill="#F44E4E"/>
<path d="M203.202 151.825C203.043 151.825 202.884 151.735 202.816 151.553L181.721 100.119C181.63 99.8923 181.743 99.6425 181.948 99.5744C182.175 99.4835 182.425 99.5971 182.493 99.8015L203.588 151.235C203.679 151.462 203.566 151.689 203.361 151.78C203.316 151.803 203.248 151.825 203.202 151.825Z" fill="white"/>
<path d="M199.001 141.561C198.979 141.561 198.933 141.561 198.911 141.561L177.906 137.042C177.679 136.997 177.52 136.77 177.588 136.543C177.633 136.316 177.86 136.157 178.087 136.225L199.07 140.744C199.297 140.789 199.456 141.016 199.387 141.243C199.365 141.425 199.183 141.561 199.001 141.561Z" fill="white"/>
<path d="M191.076 122.26C191.031 122.26 190.986 122.26 190.94 122.237L182.833 119.376C182.606 119.307 182.493 119.058 182.561 118.831C182.629 118.604 182.879 118.49 183.106 118.581L191.213 121.442C191.44 121.51 191.553 121.76 191.485 121.987C191.417 122.146 191.258 122.26 191.076 122.26Z" fill="white"/>
<path d="M193.483 128.118C193.438 128.118 193.415 128.118 193.37 128.096C193.143 128.027 193.007 127.8 193.075 127.573L196.186 116.855C196.254 116.628 196.481 116.492 196.708 116.56C196.935 116.628 197.071 116.855 197.003 117.082L193.892 127.8C193.847 128.005 193.665 128.118 193.483 128.118Z" fill="white"/>
<path d="M32.5975 105.864C32.3704 105.864 32.1661 105.683 32.1661 105.433V104.161C32.1661 103.934 32.3477 103.73 32.5975 103.73C32.8473 103.73 33.029 103.911 33.029 104.161V105.433C33.029 105.683 32.8473 105.864 32.5975 105.864Z" fill="#0B0450"/>
<path d="M32.5975 102.004C32.3704 102.004 32.1661 101.822 32.1661 101.573V98.984C32.1661 98.7569 32.3477 98.5525 32.5975 98.5525C32.8473 98.5525 33.029 98.7342 33.029 98.984V101.573C33.029 101.8 32.8473 102.004 32.5975 102.004ZM32.5975 96.804C32.3704 96.804 32.1661 96.6223 32.1661 96.3726V93.7838C32.1661 93.5567 32.3477 93.3524 32.5975 93.3524C32.8473 93.3524 33.029 93.534 33.029 93.7838V96.3726C33.029 96.6223 32.8473 96.804 32.5975 96.804ZM32.5975 91.6266C32.3704 91.6266 32.1661 91.4449 32.1661 91.1951V88.6064C32.1661 88.3793 32.3477 88.175 32.5975 88.175C32.8473 88.175 33.029 88.3566 33.029 88.6064V91.1951C33.029 91.4222 32.8473 91.6266 32.5975 91.6266ZM32.5975 86.4265C32.3704 86.4265 32.1661 86.2448 32.1661 85.995V83.4063C32.1661 83.1792 32.3477 82.9749 32.5975 82.9749C32.8473 82.9749 33.029 83.1565 33.029 83.4063V85.995C33.029 86.2448 32.8473 86.4265 32.5975 86.4265ZM32.5975 81.249C32.3704 81.249 32.1661 81.0674 32.1661 80.8176V78.2289C32.1661 78.0018 32.3477 77.7974 32.5975 77.7974C32.8473 77.7974 33.029 77.9791 33.029 78.2289V80.8176C33.029 81.0674 32.8473 81.249 32.5975 81.249ZM32.5975 76.0716C32.3704 76.0716 32.1661 75.89 32.1661 75.6402V73.0514C32.1661 72.8244 32.3477 72.62 32.5975 72.62C32.8473 72.62 33.029 72.8016 33.029 73.0514V75.6402C33.029 75.8673 32.8473 76.0716 32.5975 76.0716ZM32.5975 70.8715C32.3704 70.8715 32.1661 70.6898 32.1661 70.44V67.8513C32.1661 67.6243 32.3477 67.4199 32.5975 67.4199C32.8473 67.4199 33.029 67.6015 33.029 67.8513V70.44C33.029 70.6898 32.8473 70.8715 32.5975 70.8715ZM32.5975 65.6941C32.3704 65.6941 32.1661 65.5124 32.1661 65.2627V62.6739C32.1661 62.4468 32.3477 62.2425 32.5975 62.2425C32.8473 62.2425 33.029 62.4241 33.029 62.6739V65.2627C33.029 65.4897 32.8473 65.6941 32.5975 65.6941ZM32.5975 60.494C32.3704 60.494 32.1661 60.3123 32.1661 60.0625V57.4738C32.1661 57.2467 32.3477 57.0423 32.5975 57.0423C32.8473 57.0423 33.029 57.224 33.029 57.4738V60.0625C33.029 60.3123 32.8473 60.494 32.5975 60.494ZM32.5975 55.3166C32.3704 55.3166 32.1661 55.1349 32.1661 54.8851V52.7278C32.1661 52.7278 32.1434 52.5689 32.1207 52.3191C32.098 52.092 32.2796 51.8877 32.5294 51.865C32.7565 51.8422 32.9609 52.0239 32.9836 52.2737C33.0063 52.5234 33.029 52.6597 33.029 52.6597V54.8851C33.029 55.1349 32.8473 55.3166 32.5975 55.3166ZM32.7565 50.1391C32.7338 50.1391 32.6884 50.1391 32.6656 50.1391C32.4386 50.0937 32.2796 49.8666 32.3477 49.6396C32.5521 48.6858 32.8927 47.8456 33.3696 47.0963C33.5058 46.8919 33.7556 46.8465 33.96 46.96C34.1644 47.0736 34.2098 47.3461 34.0963 47.5504C33.6875 48.209 33.3696 48.9583 33.1879 49.7985C33.1198 50.0029 32.9381 50.1391 32.7565 50.1391ZM35.5041 45.9154C35.3679 45.9154 35.2317 45.8473 35.1408 45.7111C35.0046 45.5067 35.0727 45.2569 35.2771 45.1207C36.0037 44.6438 36.8439 44.3032 37.7976 44.0988C38.0247 44.0534 38.2518 44.1897 38.2972 44.4167C38.3426 44.6438 38.2064 44.8709 37.9793 44.9163C37.1164 45.1207 36.367 45.4159 35.7312 45.8246C35.6631 45.8927 35.595 45.9154 35.5041 45.9154ZM40.4772 44.6665C40.2501 44.6665 40.0457 44.4849 40.0457 44.2578C40.0457 44.0307 40.2274 43.8263 40.4545 43.8263C41.3174 43.8036 42.203 43.7809 43.0432 43.7809C43.3157 43.7809 43.4746 43.9626 43.4746 44.1897C43.4746 44.4167 43.293 44.6211 43.0659 44.6211C42.2257 44.6211 41.3401 44.6438 40.4772 44.6665ZM53.4434 44.6211C53.4207 44.6211 53.4207 44.6211 53.4434 44.6211C52.6487 44.5984 51.7857 44.5984 50.8547 44.5984C50.6276 44.5984 50.4233 44.4167 50.4233 44.1669C50.4233 43.9171 50.6503 43.7582 50.8547 43.7355C51.8085 43.7355 52.6714 43.7582 53.4434 43.7582C53.6705 43.7582 53.8749 43.9626 53.8749 44.1897C53.8522 44.4167 53.6705 44.6211 53.4434 44.6211ZM45.6546 44.5984C45.4275 44.5984 45.2231 44.4167 45.2231 44.1669C45.2231 43.9398 45.4048 43.7355 45.6546 43.7355C46.5402 43.7355 47.4258 43.7128 48.2433 43.7128C48.4704 43.7128 48.6748 43.8945 48.6748 44.1443C48.6748 44.3713 48.4931 44.5757 48.2433 44.5757C47.4258 44.5757 46.5402 44.5757 45.6546 44.5984Z" fill="#0B0450"/>
<path d="M57.3265 44.6893C57.3038 44.6893 57.3038 44.6893 57.3265 44.6893C57.3265 44.6893 56.8496 44.6893 56.0549 44.6666C55.8278 44.6666 55.6234 44.4622 55.6461 44.2352C55.6461 44.0081 55.8732 43.8264 56.0776 43.8264C56.8951 43.8491 57.3492 43.8491 57.3492 43.8491C57.5763 43.8491 57.7807 44.0535 57.758 44.2806C57.7353 44.5077 57.5536 44.6893 57.3265 44.6893Z" fill="#0B0450"/>
<path d="M162.51 152.756C162.283 152.756 162.101 152.575 162.078 152.348C162.056 151.53 162.056 151.076 162.056 151.076C162.056 150.849 162.237 150.645 162.464 150.645C162.691 150.645 162.896 150.826 162.896 151.053C162.896 151.053 162.919 151.507 162.919 152.325C162.941 152.575 162.76 152.756 162.51 152.756Z" fill="#0B0450"/>
<path d="M155.743 171.786C155.152 171.786 154.766 171.74 154.766 171.74H153.654C153.427 171.74 153.222 171.559 153.222 171.309C153.222 171.082 153.404 170.877 153.654 170.877H154.834C154.903 170.877 155.425 170.945 156.174 170.923C156.401 170.923 156.606 171.104 156.628 171.331C156.628 171.559 156.447 171.763 156.22 171.786C156.038 171.786 155.879 171.786 155.743 171.786ZM151.11 171.74H148.59C148.363 171.74 148.158 171.559 148.158 171.309C148.158 171.082 148.34 170.877 148.59 170.877H151.11C151.337 170.877 151.542 171.059 151.542 171.309C151.542 171.559 151.36 171.74 151.11 171.74ZM146.069 171.74H143.549C143.322 171.74 143.117 171.559 143.117 171.309C143.117 171.082 143.299 170.877 143.549 170.877H146.069C146.296 170.877 146.501 171.059 146.501 171.309C146.478 171.559 146.296 171.74 146.069 171.74ZM141.005 171.74H138.485C138.258 171.74 138.053 171.559 138.053 171.309C138.053 171.082 138.235 170.877 138.485 170.877H141.005C141.232 170.877 141.437 171.059 141.437 171.309C141.437 171.559 141.232 171.74 141.005 171.74ZM135.941 171.74H133.421C133.194 171.74 132.989 171.559 132.989 171.309C132.989 171.082 133.171 170.877 133.421 170.877H135.941C136.168 170.877 136.373 171.059 136.373 171.309C136.373 171.559 136.191 171.74 135.941 171.74ZM130.9 171.74H128.38C128.153 171.74 127.948 171.559 127.948 171.309C127.948 171.082 128.13 170.877 128.38 170.877H130.9C131.127 170.877 131.332 171.059 131.332 171.309C131.332 171.559 131.127 171.74 130.9 171.74ZM125.836 171.74H123.316C123.089 171.74 122.884 171.559 122.884 171.309C122.884 171.082 123.066 170.877 123.316 170.877H125.836C126.063 170.877 126.268 171.059 126.268 171.309C126.268 171.559 126.086 171.74 125.836 171.74ZM120.795 171.74H118.275C118.048 171.74 117.843 171.559 117.843 171.309C117.843 171.082 118.025 170.877 118.275 170.877H120.795C121.022 170.877 121.227 171.059 121.227 171.309C121.227 171.559 121.022 171.74 120.795 171.74ZM115.731 171.74H113.211C112.984 171.74 112.779 171.559 112.779 171.309C112.779 171.082 112.961 170.877 113.211 170.877H115.731C115.958 170.877 116.163 171.059 116.163 171.309C116.163 171.559 115.958 171.74 115.731 171.74ZM110.667 171.74H108.147C107.92 171.74 107.715 171.559 107.715 171.309C107.715 171.082 107.897 170.877 108.147 170.877H110.667C110.895 170.877 111.099 171.059 111.099 171.309C111.099 171.559 110.917 171.74 110.667 171.74ZM105.626 171.74H103.106C102.879 171.74 102.674 171.559 102.674 171.309C102.674 171.082 102.856 170.877 103.106 170.877H105.626C105.853 170.877 106.058 171.059 106.058 171.309C106.035 171.559 105.853 171.74 105.626 171.74ZM100.562 171.74H98.0418C97.8148 171.74 97.6104 171.559 97.6104 171.309C97.6104 171.082 97.792 170.877 98.0418 170.877H100.562C100.79 170.877 100.994 171.059 100.994 171.309C100.994 171.559 100.79 171.74 100.562 171.74ZM95.4986 171.74H92.978C92.7509 171.74 92.5465 171.559 92.5465 171.309C92.5465 171.082 92.7282 170.877 92.978 170.877H95.4986C95.7256 170.877 95.93 171.059 95.93 171.309C95.93 171.559 95.7483 171.74 95.4986 171.74ZM90.4574 171.74H87.9368C87.7097 171.74 87.5054 171.559 87.5054 171.309C87.5054 171.082 87.687 170.877 87.9368 170.877H90.4574C90.6845 170.877 90.8888 171.059 90.8888 171.309C90.8888 171.559 90.6845 171.74 90.4574 171.74ZM85.3935 171.74H82.8729C82.6458 171.74 82.4415 171.559 82.4415 171.309C82.4415 171.082 82.6231 170.877 82.8729 170.877H85.3935C85.6206 170.877 85.825 171.059 85.825 171.309C85.825 171.559 85.6206 171.74 85.3935 171.74ZM80.3523 171.74H77.809C77.582 171.74 77.3776 171.559 77.3776 171.309C77.3776 171.082 77.5593 170.877 77.809 170.877H80.3296C80.5567 170.877 80.7611 171.059 80.7611 171.309C80.7611 171.559 80.5794 171.74 80.3523 171.74ZM75.2885 171.74H72.7679C72.5408 171.74 72.3364 171.559 72.3364 171.309C72.3364 171.082 72.5181 170.877 72.7679 170.877H75.2885C75.5155 170.877 75.7199 171.059 75.7199 171.309C75.7199 171.559 75.5155 171.74 75.2885 171.74ZM70.2246 171.559C70.2019 171.559 70.1792 171.559 70.1565 171.559C69.1573 171.4 68.3171 171.15 67.6132 170.832C67.4088 170.741 67.318 170.469 67.4088 170.264C67.4996 170.06 67.7494 169.969 67.9765 170.06C68.6123 170.355 69.3844 170.559 70.2927 170.718C70.5198 170.764 70.6788 170.968 70.656 171.195C70.6106 171.422 70.429 171.559 70.2246 171.559ZM158.649 171.331C158.468 171.331 158.309 171.218 158.241 171.059C158.173 170.832 158.286 170.582 158.49 170.514C159.285 170.242 159.944 169.833 160.466 169.31C160.625 169.152 160.897 169.152 161.079 169.31C161.238 169.469 161.238 169.742 161.079 169.924C160.466 170.537 159.694 171.014 158.786 171.331C158.74 171.309 158.695 171.331 158.649 171.331ZM66.0009 169.197C65.842 169.197 65.683 169.106 65.6149 168.924C65.524 168.697 65.4559 168.47 65.4332 168.221V166.268C65.4332 166.041 65.6149 165.836 65.8647 165.836C66.1144 165.836 66.2961 166.018 66.2961 166.268V168.175C66.3188 168.289 66.3642 168.448 66.4324 168.607C66.5232 168.834 66.4097 169.061 66.2053 169.152C66.1144 169.197 66.0463 169.197 66.0009 169.197ZM162.101 167.88C162.056 167.88 162.01 167.88 161.965 167.857C161.738 167.789 161.624 167.539 161.692 167.312C161.897 166.676 162.033 165.95 162.056 165.155V164.951C162.056 164.723 162.283 164.542 162.487 164.542C162.714 164.542 162.896 164.746 162.896 164.973V165.178C162.873 166.063 162.737 166.858 162.487 167.585C162.442 167.766 162.283 167.88 162.101 167.88ZM162.532 162.861C162.283 162.861 162.101 162.657 162.101 162.43C162.124 161.567 162.124 160.727 162.124 159.909C162.124 159.682 162.305 159.478 162.555 159.478C162.782 159.478 162.987 159.682 162.987 159.909C162.987 160.727 162.964 161.567 162.964 162.43C162.964 162.68 162.76 162.861 162.532 162.861ZM162.555 157.82C162.328 157.82 162.124 157.639 162.124 157.389C162.124 156.481 162.124 155.618 162.101 154.868C162.101 154.641 162.283 154.437 162.51 154.437C162.714 154.414 162.941 154.618 162.941 154.868C162.941 155.64 162.964 156.481 162.964 157.389C162.987 157.616 162.805 157.82 162.555 157.82Z" fill="#0B0450"/>
<path d="M65.842 164.156C65.6149 164.156 65.4105 163.974 65.4105 163.724V162.453C65.4105 162.226 65.5922 162.021 65.842 162.021C66.0918 162.021 66.2734 162.203 66.2734 162.453V163.724C66.2734 163.951 66.069 164.156 65.842 164.156Z" fill="#0B0450"/>
<path d="M107.556 54.2948H58.53C52.9666 54.2948 48.4023 49.7305 48.4023 44.167C48.4023 38.5809 52.9666 34.0393 58.53 34.0393H107.556C113.12 34.0393 117.684 38.6036 117.684 44.167C117.684 49.7305 113.12 54.2948 107.556 54.2948Z" fill="#0B0450"/>
<path d="M106.239 39.6935C106.444 39.6708 106.648 39.6708 106.853 39.6708C109.577 39.7162 111.735 41.987 111.667 44.6893C111.621 47.4142 109.35 49.5715 106.625 49.5033L106.648 48.3225C108.715 48.3679 110.44 46.7102 110.463 44.6665C110.509 42.6001 108.851 40.8743 106.784 40.8516C106.625 40.8516 106.467 40.8516 106.308 40.8743L106.239 39.6935Z" fill="white"/>
<path d="M105.059 48.8903L106.943 50.0257L106.989 47.823L105.059 48.8903Z" fill="white"/>
<path d="M104.332 49.4353C104.128 49.458 103.923 49.458 103.719 49.458C100.994 49.4126 98.8366 47.1418 98.9048 44.4395C98.9502 41.7146 101.221 39.5573 103.946 39.6255L103.923 40.8063C101.857 40.7609 100.131 42.4186 100.108 44.485C100.063 46.5514 101.721 48.2545 103.787 48.2999C103.946 48.2999 104.105 48.2999 104.264 48.2772L104.332 49.4353Z" fill="white"/>
<path d="M105.513 40.2158L103.651 39.0804L103.605 41.2831L105.513 40.2158Z" fill="white"/>
<path d="M302.164 163.066C301.868 163.225 301.414 163.293 300.733 163.293C282.589 163.293 264.468 163.293 246.325 163.338C237.242 163.361 228.158 163.293 219.075 163.316C214.488 163.316 209.901 163.361 205.314 163.429C203.021 163.475 200.727 163.52 198.434 163.588C196.753 163.634 194.71 163.951 193.097 163.248C192.552 162.998 192.03 162.68 191.803 162.089C191.758 161.953 191.758 161.817 191.78 161.658C191.962 160.432 193.824 158.388 194.573 157.366C196.095 155.3 197.616 153.029 200.341 152.302C201.908 151.894 203.566 151.894 205.223 151.894C233.904 151.894 262.606 152.052 291.287 152.143C293.08 152.143 295.306 152.416 296.555 153.778C298.144 155.527 299.552 157.412 300.824 159.364C301.596 160.591 303.458 162.43 302.164 163.066Z" fill="#978CFF"/>
<path d="M287.29 153.415H206.45C200.841 153.415 196.231 148.828 196.231 143.196V87.312C196.231 81.7031 200.818 77.0934 206.45 77.0934H287.313C292.922 77.0934 297.531 81.6804 297.531 87.312V143.196C297.486 148.805 292.899 153.415 287.29 153.415Z" fill="#8888CF"/>
<path d="M206.563 80.4089C202.181 80.4089 198.615 83.9968 198.615 88.3567V130.071C224.502 114.539 249.845 98.0984 274.301 80.4089H206.563Z" fill="#EFF0FC"/>
<path d="M286.7 80.4089H274.278C249.845 98.0984 224.502 114.539 198.615 130.071V139.086C198.615 143.469 202.203 147.034 206.563 147.034H286.7C291.082 147.034 294.647 143.446 294.647 139.086V88.3567C294.67 83.9968 291.082 80.4089 286.7 80.4089Z" fill="#E3E6FF"/>
<path d="M252.206 149.918H245.099C244.917 149.918 244.781 149.782 244.781 149.6C244.781 149.418 244.917 149.282 245.099 149.282H252.206C252.388 149.282 252.524 149.418 252.524 149.6C252.524 149.782 252.388 149.918 252.206 149.918Z" fill="#E3E6FF"/>
<path d="M205.882 79.6595C206.271 79.6595 206.586 79.3443 206.586 78.9555C206.586 78.5667 206.271 78.2516 205.882 78.2516C205.493 78.2516 205.178 78.5667 205.178 78.9555C205.178 79.3443 205.493 79.6595 205.882 79.6595Z" fill="#E3E6FF"/>
<path d="M208.925 79.6595C209.314 79.6595 209.629 79.3443 209.629 78.9555C209.629 78.5667 209.314 78.2516 208.925 78.2516C208.536 78.2516 208.221 78.5667 208.221 78.9555C208.221 79.3443 208.536 79.6595 208.925 79.6595Z" fill="white"/>
<path d="M211.99 79.6595C212.379 79.6595 212.694 79.3443 212.694 78.9555C212.694 78.5667 212.379 78.2516 211.99 78.2516C211.602 78.2516 211.286 78.5667 211.286 78.9555C211.286 79.3443 211.602 79.6595 211.99 79.6595Z" fill="#0B0450"/>
<path d="M204.02 157.139H201.636C201.136 157.139 200.727 156.73 200.727 156.231C200.727 155.731 201.136 155.323 201.636 155.323H204.02C204.519 155.323 204.928 155.731 204.928 156.231C204.928 156.753 204.519 157.139 204.02 157.139Z" fill="#E3E6FF"/>
<path d="M210.991 157.139H208.607C208.107 157.139 207.699 156.73 207.699 156.231C207.699 155.731 208.107 155.323 208.607 155.323H210.991C211.491 155.323 211.9 155.731 211.9 156.231C211.9 156.753 211.491 157.139 210.991 157.139Z" fill="#E3E6FF"/>
<path d="M217.985 157.139H215.601C215.101 157.139 214.693 156.73 214.693 156.231C214.693 155.731 215.101 155.323 215.601 155.323H217.985C218.485 155.323 218.894 155.731 218.894 156.231C218.894 156.753 218.485 157.139 217.985 157.139Z" fill="#E3E6FF"/>
<path d="M224.957 157.139H222.572C222.073 157.139 221.664 156.73 221.664 156.231C221.664 155.731 222.073 155.323 222.572 155.323H224.957C225.456 155.323 225.865 155.731 225.865 156.231C225.865 156.753 225.456 157.139 224.957 157.139Z" fill="#E3E6FF"/>
<path d="M231.951 157.139H229.566C229.067 157.139 228.658 156.73 228.658 156.231C228.658 155.731 229.067 155.323 229.566 155.323H231.951C232.45 155.323 232.859 155.731 232.859 156.231C232.859 156.753 232.45 157.139 231.951 157.139Z" fill="#E3E6FF"/>
<path d="M238.922 157.139H236.538C236.038 157.139 235.629 156.73 235.629 156.231C235.629 155.731 236.038 155.323 236.538 155.323H238.922C239.422 155.323 239.83 155.731 239.83 156.231C239.83 156.753 239.422 157.139 238.922 157.139Z" fill="#E3E6FF"/>
<path d="M245.916 157.139H243.532C243.032 157.139 242.623 156.73 242.623 156.231C242.623 155.731 243.032 155.323 243.532 155.323H245.916C246.416 155.323 246.824 155.731 246.824 156.231C246.824 156.753 246.416 157.139 245.916 157.139Z" fill="#E3E6FF"/>
<path d="M252.887 157.139H250.503C250.004 157.139 249.595 156.73 249.595 156.231C249.595 155.731 250.004 155.323 250.503 155.323H252.887C253.387 155.323 253.796 155.731 253.796 156.231C253.796 156.753 253.387 157.139 252.887 157.139Z" fill="#E3E6FF"/>
<path d="M259.881 157.139H257.497C256.998 157.139 256.589 156.73 256.589 156.231C256.589 155.731 256.998 155.323 257.497 155.323H259.881C260.381 155.323 260.79 155.731 260.79 156.231C260.79 156.753 260.381 157.139 259.881 157.139Z" fill="#E3E6FF"/>
<path d="M266.853 157.139H264.468C263.969 157.139 263.56 156.73 263.56 156.231C263.56 155.731 263.969 155.323 264.468 155.323H266.853C267.352 155.323 267.761 155.731 267.761 156.231C267.761 156.753 267.352 157.139 266.853 157.139Z" fill="#E3E6FF"/>
<path d="M273.847 157.139H271.463C270.963 157.139 270.554 156.73 270.554 156.231C270.554 155.731 270.963 155.323 271.463 155.323H273.847C274.346 155.323 274.755 155.731 274.755 156.231C274.732 156.753 274.346 157.139 273.847 157.139Z" fill="#E3E6FF"/>
<path d="M280.818 157.139H278.434C277.934 157.139 277.526 156.73 277.526 156.231C277.526 155.731 277.934 155.323 278.434 155.323H280.818C281.318 155.323 281.727 155.731 281.727 156.231C281.727 156.753 281.318 157.139 280.818 157.139Z" fill="#E3E6FF"/>
<path d="M287.812 157.139H285.428C284.928 157.139 284.52 156.73 284.52 156.231C284.52 155.731 284.928 155.323 285.428 155.323H287.812C288.312 155.323 288.721 155.731 288.721 156.231C288.698 156.753 288.312 157.139 287.812 157.139Z" fill="#E3E6FF"/>
<path d="M286.904 91.5812H268.147C267.284 91.5812 266.603 90.8772 266.603 90.037C266.603 89.1741 267.307 88.4702 268.147 88.4702H286.904C287.767 88.4702 288.448 89.1741 288.448 90.037C288.471 90.8772 287.767 91.5812 286.904 91.5812Z" fill="#8888CF"/>
<path d="M286.904 98.6887H268.147C267.284 98.6887 266.603 97.9848 266.603 97.1219C266.603 96.259 267.307 95.5778 268.147 95.5778H286.904C287.767 95.5778 288.448 96.2817 288.448 97.1219C288.471 98.0075 287.767 98.6887 286.904 98.6887Z" fill="#8888CF"/>
<path d="M93.523 94.6241V154.051C93.523 158.661 89.7535 162.43 85.1438 162.43H46.9717C42.362 162.43 38.5925 158.661 38.5925 154.051V94.6241C38.5925 90.0144 42.362 86.2449 46.9717 86.2449H85.1438C89.7535 86.2449 93.523 90.0371 93.523 94.6241Z" fill="#8888CF"/>
<path d="M41.7261 153.892C41.7261 154.596 41.8624 155.277 42.0895 155.89C42.907 158.115 45.0415 159.705 47.5394 159.705H77.9907H84.5761C87.7779 159.705 90.3893 157.071 90.3893 153.869V95.1236C90.3893 93.3524 89.5718 91.7401 88.3002 90.6729C73.4037 104.979 57.5536 118.354 41.7261 131.729V153.892Z" fill="#E3E6FF"/>
<path d="M78.0135 89.3104H47.5394C44.3376 89.3104 41.7261 91.9445 41.7261 95.1464V104.252V131.752C57.5536 118.377 73.4037 105.002 88.3002 90.6956C87.2783 89.8327 85.9839 89.3104 84.576 89.3104H78.0135Z" fill="#EFF0FC"/>
<path d="M66.069 161.817C66.6585 161.817 67.1363 161.339 67.1363 160.75C67.1363 160.16 66.6585 159.682 66.069 159.682C65.4796 159.682 65.0018 160.16 65.0018 160.75C65.0018 161.339 65.4796 161.817 66.069 161.817Z" fill="#0B0450"/>
<path d="M82.1917 101.187H63.435C62.5721 101.187 61.8681 100.483 61.8681 99.6425C61.8681 98.7796 62.5721 98.0757 63.435 98.0757H82.1917C83.0546 98.0757 83.7359 98.7796 83.7359 99.6425C83.7586 100.483 83.0546 101.187 82.1917 101.187Z" fill="#8888CF"/>
<path d="M82.1917 108.294H63.435C62.5721 108.294 61.8681 107.59 61.8681 106.727C61.8681 105.864 62.5721 105.183 63.435 105.183H82.1917C83.0546 105.183 83.7359 105.887 83.7359 106.727C83.7586 107.613 83.0546 108.294 82.1917 108.294Z" fill="#8888CF"/>
<path d="M43.2703 105.433H23.0602C20.7667 105.433 18.882 107.318 18.882 109.611V129.89C27.7835 121.896 36.8667 114.108 46.3359 106.773C45.5638 105.955 44.4738 105.433 43.2703 105.433Z" fill="#EFF0FC"/>
<path d="M46.3131 106.773C36.8439 114.085 27.7834 121.896 18.8592 129.89V147.647V159.092C18.8592 161.385 20.744 163.27 23.0375 163.27H43.2476C45.5411 163.27 47.4258 161.385 47.4258 159.092V109.611C47.4258 108.544 47.0171 107.568 46.3358 106.818C46.3586 106.796 46.3358 106.796 46.3131 106.773Z" fill="#E3E6FF"/>
<path d="M43.2703 105.433H23.0602C20.7667 105.433 18.882 107.318 18.882 109.611V159.092C18.882 161.386 20.7667 163.27 23.0602 163.27H43.2703C45.5638 163.27 47.4486 161.386 47.4486 159.092V109.611C47.4486 107.318 45.5638 105.433 43.2703 105.433ZM45.6319 153.688C45.6319 155.981 43.7472 157.866 41.4537 157.866H24.8768C22.5833 157.866 20.6986 155.981 20.6986 153.688V111.564C20.6986 109.271 22.5833 107.386 24.8768 107.386H41.4537C43.7472 107.386 45.6319 109.271 45.6319 111.564V153.688Z" fill="#978CFF"/>
<path d="M35.8448 106.75H30.463C30.3267 106.75 30.2359 106.636 30.2359 106.5C30.2359 106.364 30.3494 106.25 30.463 106.25H35.8448C35.981 106.25 36.0718 106.364 36.0718 106.5C36.0946 106.659 35.981 106.75 35.8448 106.75Z" fill="#E3E6FF"/>
<path d="M33.1652 161.862C33.9804 161.862 34.6412 161.201 34.6412 160.386C34.6412 159.571 33.9804 158.91 33.1652 158.91C32.35 158.91 31.6892 159.571 31.6892 160.386C31.6892 161.201 32.35 161.862 33.1652 161.862Z" fill="#0B0450"/>
<path d="M42.5436 145.036H23.7868C22.9239 145.036 22.22 144.332 22.22 143.469C22.22 142.606 22.9239 141.925 23.7868 141.925H42.5436C43.4065 141.925 44.1105 142.629 44.1105 143.469C44.1105 144.332 43.4065 145.036 42.5436 145.036Z" fill="white"/>
<path d="M42.5436 152.166H23.7868C22.9239 152.166 22.22 151.462 22.22 150.622C22.22 149.759 22.9239 149.055 23.7868 149.055H42.5436C43.4065 149.055 44.1105 149.759 44.1105 150.622C44.1105 151.462 43.4065 152.166 42.5436 152.166Z" fill="white"/>
</svg>
