<svg width="239" height="214" viewBox="0 0 239 214" fill="none" xmlns="http://www.w3.org/2000/svg">
<path d="M26.9559 165.938C26.6816 163.918 26.7314 161.424 28.5023 160.401C31.0713 158.88 33.765 161.972 36.2841 163.594C36.8578 163.968 37.5312 164.267 38.2046 164.192C38.8781 164.117 39.4767 163.668 39.9257 163.145C41.4721 161.324 41.5469 158.68 41.2975 156.311C41.0481 153.941 40.5741 151.472 41.2725 149.177C41.9958 146.883 44.4651 144.937 46.7098 145.76C51.7481 147.631 51.9226 140.722 54.2173 138.003C55.19 136.856 56.6866 136.058 58.1581 136.307C59.6047 136.557 60.7022 137.754 61.4504 139.026C63.1465 141.894 63.795 145.96 62.5479 149.127C61.3756 152.12 57.784 153.941 58.0085 157.558C58.1582 160.052 60.3779 162.172 60.2033 164.666C60.0537 166.736 58.2829 168.382 57.8838 170.428C57.36 173.196 59.48 175.99 58.7817 178.733C58.3327 180.504 56.7863 181.826 56.2875 183.597C55.6889 185.767 56.8113 188.012 57.1106 190.232C57.8089 195.02 54.342 200.258 49.3536 200.807C45.0886 201.281 42.1954 196.866 39.6513 193.948C32.8671 186.091 28.3527 176.239 26.9559 165.938Z" fill="#FF9A9A"/>
<path d="M47.6327 188.81H47.6077C47.3583 188.785 47.1588 188.585 47.1588 188.311L48.5805 162.945C48.6055 162.696 48.7801 162.496 49.0794 162.496C49.3288 162.521 49.5283 162.721 49.5283 162.995L48.1066 188.361C48.0816 188.61 47.8821 188.81 47.6327 188.81Z" fill="white"/>
<path d="M48.4807 173.969C48.381 173.969 48.2563 173.919 48.1814 173.845L41.7464 168.233C41.5469 168.058 41.522 167.759 41.6966 167.584C41.8712 167.385 42.1705 167.36 42.3451 167.534L48.7801 173.146C48.9796 173.321 49.0045 173.62 48.83 173.795C48.7302 173.919 48.6054 173.969 48.4807 173.969Z" fill="white"/>
<path d="M45.8618 203.451C43.7917 203.027 41.6467 201.58 39.5765 200.483C35.0121 198.063 34.0394 193.948 15.0088 194.571C6.15443 194.871 10.619 184.395 4.43347 178.06C2.46306 176.065 0.517599 173.795 0.0686462 171.026C-0.380307 168.258 1.41547 164.965 4.20896 164.816C5.88006 164.716 7.40154 165.739 8.97287 166.337C10.5442 166.936 12.6642 167.011 13.5621 165.614C12.3151 163.943 10.5442 162.771 9.04771 161.324C7.5512 159.877 6.27915 157.932 6.47869 155.862C6.80293 152.669 9.92064 153.991 10.8185 152.544C12.0407 150.574 10.7438 146.234 11.4172 143.74C13.0135 137.854 21.9925 133.888 26.6566 138.976C32.0441 144.862 31.2958 154.59 30.8469 162.596C30.2483 173.745 41.522 175.167 46.4355 181.776C49.9773 186.54 55.5643 195.345 51.1496 201.206C49.5034 203.376 47.7075 203.825 45.8618 203.451Z" fill="#F44E4E"/>
<path d="M50.5759 204.922C50.4262 204.922 50.3015 204.872 50.2017 204.748L25.4095 174.069C25.2598 173.87 25.2848 173.57 25.4843 173.421C25.6839 173.271 25.9832 173.296 26.1328 173.495L50.925 204.174C51.0996 204.373 51.0497 204.673 50.8502 204.822C50.7754 204.897 50.6756 204.922 50.5759 204.922Z" fill="white"/>
<path d="M38.3793 190.556C38.3294 190.556 38.2795 190.556 38.2296 190.531L23.5389 185.193C23.2894 185.118 23.1648 184.844 23.2645 184.595C23.3394 184.345 23.6137 184.22 23.8631 184.32L38.5539 189.658C38.8033 189.733 38.928 190.007 38.8282 190.256C38.7534 190.431 38.5788 190.556 38.3793 190.556Z" fill="white"/>
<path d="M31.3955 181.302C31.3457 181.302 31.2958 181.302 31.2459 181.277L16.5551 175.94C16.3057 175.865 16.181 175.591 16.2808 175.341C16.3806 175.092 16.63 174.967 16.8794 175.067L31.5702 180.404C31.8196 180.479 31.9443 180.754 31.8445 181.003C31.7697 181.203 31.5951 181.302 31.3955 181.302Z" fill="white"/>
<path d="M43.4923 196.891C43.2429 196.891 43.0185 196.691 43.0185 196.417L43.0434 183.497C43.0434 183.248 43.2429 183.023 43.5173 183.023C43.7667 183.023 43.9912 183.223 43.9912 183.497L43.9663 196.417C43.9663 196.666 43.7667 196.891 43.4923 196.891Z" fill="white"/>
<path d="M217.562 155.587C213.596 156.36 227.912 150.798 223.947 151.572C226.291 146.084 216.938 147.032 219.033 141.47C212.972 141.37 205.864 134.312 205.315 139.225C218.41 118.923 202.048 122.44 198.082 108.921C197.583 107.25 196.436 105.304 194.341 105.28C192.944 105.255 191.772 106.177 190.998 107.125C184.464 115.082 193.418 125.956 190.5 135.21C188.28 135.559 186.609 133.688 185.337 132.167C184.065 130.645 181.471 129.174 179.75 130.396C178.577 131.219 178.802 132.741 179.201 133.988C181.072 139.899 184.389 145.486 188.878 150.349C186.983 151.422 184.489 150.1 182.618 148.953C180.772 147.805 177.729 146.957 176.457 148.529C175.734 149.427 176.083 150.624 176.557 151.646C178.004 154.639 180.398 157.308 183.441 159.353C188.429 162.721 181.77 162.92 181.945 165.938C182.144 169.305 184.938 169.854 184.239 173.795C183.391 178.783 178.827 182.125 187.606 182.749C193.368 183.148 200.327 179.332 204.168 176.239C207.585 173.495 210.353 169.879 212.573 166.437C213.297 165.34 217.013 155.687 217.562 155.587Z" fill="#FF9A9A"/>
<path d="M185.062 188.286C202.596 185.118 219.482 178.983 234.622 170.328C236.093 169.48 237.59 168.582 238.438 167.185C239.286 165.789 239.236 163.843 237.864 162.87C236.767 162.097 235.27 162.197 233.898 162.297C229.858 162.646 225.817 162.97 221.777 163.319C226.216 159.304 230.431 155.064 234.422 150.649C235.42 149.526 236.393 147.855 235.32 146.808C234.721 146.234 233.774 146.184 232.901 146.159C230.731 146.109 228.561 146.035 226.391 145.985C228.661 142.992 230.531 139.749 231.878 136.332C232.477 134.836 232.976 133.239 232.626 131.668C232.277 130.122 230.756 128.675 229.035 128.8C228.112 128.875 227.289 129.348 226.541 129.847C220.405 133.938 216.439 140.622 216.04 147.556C215.89 150.399 215.741 154.066 212.773 154.964C211.725 155.288 210.553 155.113 209.455 155.213C205.19 155.637 202.771 159.952 202.147 163.843C201.549 167.709 201.898 171.874 199.803 175.316C198.905 176.763 197.633 178.01 196.735 179.432C195.812 180.878 195.288 182.674 196.062 184.196C196.835 185.692 199.329 186.415 200.576 185.193" fill="#0B0450"/>
<path d="M194.016 176.913C193.991 176.913 193.991 176.913 193.966 176.913C193.717 176.888 193.518 176.663 193.542 176.389L198.456 132.865C198.481 132.616 198.73 132.416 198.98 132.441C199.229 132.466 199.429 132.691 199.379 132.965L194.465 176.489C194.465 176.738 194.241 176.913 194.016 176.913Z" fill="white"/>
<path d="M195.837 160.7C195.737 160.7 195.613 160.675 195.538 160.6C195.338 160.426 195.313 160.152 195.488 159.952L206.687 146.583C206.861 146.384 207.161 146.359 207.335 146.533C207.535 146.708 207.56 146.982 207.385 147.182L196.186 160.551C196.112 160.65 195.987 160.7 195.837 160.7Z" fill="white"/>
<path d="M197.059 149.926C196.91 149.926 196.785 149.851 196.685 149.751L189.801 140.672C189.652 140.473 189.677 140.173 189.901 140.024C190.101 139.874 190.4 139.899 190.55 140.123L197.433 149.202C197.583 149.402 197.558 149.701 197.334 149.851C197.259 149.901 197.159 149.926 197.059 149.926Z" fill="white"/>
<path d="M205.964 182.849C205.889 182.849 205.814 182.824 205.739 182.799C205.515 182.674 205.415 182.4 205.54 182.175L220.43 153.342C220.555 153.118 220.829 153.018 221.053 153.143C221.278 153.268 221.378 153.542 221.253 153.766L206.363 182.599C206.288 182.774 206.113 182.849 205.964 182.849Z" fill="white"/>
<path d="M214.244 166.786C214.045 166.786 213.87 166.661 213.795 166.487L211.575 160.401C211.476 160.152 211.6 159.902 211.85 159.802C212.099 159.703 212.374 159.852 212.448 160.077L214.668 166.163C214.768 166.412 214.643 166.661 214.394 166.761C214.344 166.761 214.294 166.786 214.244 166.786Z" fill="white"/>
<path d="M211.999 171.7C211.75 171.7 211.526 171.5 211.526 171.226C211.526 170.976 211.725 170.752 211.999 170.752L224.121 170.652C224.371 170.652 224.595 170.852 224.595 171.126C224.595 171.375 224.396 171.6 224.121 171.6L211.999 171.7Z" fill="white"/>
<path d="M98.7386 167.385C98.8882 166.936 99.0379 166.462 99.2125 166.013C104.924 150.2 119.266 139.026 134.281 131.419C139.469 128.8 144.931 126.38 148.847 122.09C157.751 112.338 155.057 96.2506 143.459 89.9652C148.847 92.8834 164.435 86.8475 156.03 80.6869C154.06 79.2403 151.54 78.7165 149.321 77.644C147.101 76.5715 144.981 74.5512 145.13 72.1069C145.205 71.0344 145.704 70.0367 146.303 69.1388C148.947 65.2479 153.611 63.0281 156.105 59.0623C156.654 58.1893 157.103 57.1667 157.028 56.1441C156.878 54.4979 155.406 53.2259 153.81 52.777C137.972 48.4121 125.776 67.6672 110.112 65.8964C109.214 65.7966 108.266 65.647 107.468 66.046C106.545 66.5449 106.146 67.6423 105.872 68.64C104.026 75.6237 104.575 83.206 107.418 89.8405C109.788 95.3527 113.754 100.665 113.155 106.651C112.631 111.989 108.441 116.603 108.541 121.966C108.566 123.387 108.915 124.859 108.541 126.231C107.992 128.301 105.997 129.648 104.076 130.62C94.698 135.31 83.7735 135.384 73.5723 137.754C72.8489 137.928 72.1007 138.128 71.5769 138.652C70.6541 139.55 70.7788 141.021 70.9035 142.318C71.9012 152.295 69.5068 162.247 67.1622 171.999C64.5433 182.749 61.9493 193.499 59.3304 204.249C59.0561 205.396 58.8067 206.718 59.5799 207.616C60.0039 208.115 60.6274 208.339 61.226 208.564C64.7428 209.786 68.3843 210.684 72.0508 211.257C74.969 211.706 78.0119 211.931 80.8304 211.033C85.1952 209.636 88.3378 205.77 90.383 201.655C95.6208 191.055 95.097 178.584 98.7386 167.385Z" fill="#D4A79A"/>
<path d="M77.3384 107.499C79.1841 102.661 81.5536 98.0215 83.1498 93.083C84.4219 89.1172 85.1951 85.0018 85.8436 80.8864C87.0158 73.3789 87.0159 65.7966 87.3152 58.1893C91.2061 59.9851 95.6457 64.2502 96.3191 68.4903C96.9676 72.7304 95.5709 77.0454 95.1219 81.3104C93.9746 91.8359 93.6753 103.309 100.036 111.764C102.43 114.957 105.573 117.551 108.092 120.644C110.611 123.761 112.531 127.702 111.858 131.643C111.01 136.532 106.545 139.874 102.305 142.443C96.7432 145.81 90.9317 148.778 84.9457 151.297C81.404 152.794 80.8552 154.365 76.0913 154.415C73.4725 154.44 69.9057 145.611 70.8785 134.886C71.926 122.963 73.0484 118.848 77.3384 107.499Z" fill="#D4A79A"/>
<path d="M138.645 14.1919H96.1196C91.2809 14.1919 87.3401 18.1577 87.3401 22.9714V65.622C106.071 48.8112 125.177 32.3994 145.08 17.0103C143.459 15.2893 141.19 14.1919 138.645 14.1919Z" fill="#EFF0FC"/>
<path d="M145.08 17.0353C125.177 32.4244 106.071 48.8361 87.3401 65.6469V102.985V127.054C87.3401 131.892 91.3059 135.833 96.1196 135.833H138.645C143.484 135.833 147.425 131.868 147.425 127.054V22.9964C147.425 20.7267 146.552 18.6814 145.13 17.1101C145.13 17.0852 145.105 17.0602 145.08 17.0353Z" fill="#E3E6FF"/>
<path d="M138.645 14.1919H96.1196C91.2809 14.1919 87.3401 18.1577 87.3401 22.9714V127.054C87.3401 131.892 91.3059 135.833 96.1196 135.833H138.645C143.484 135.833 147.425 131.868 147.425 127.054V22.9964C147.45 18.1577 143.484 14.1919 138.645 14.1919ZM143.634 115.73C143.634 120.569 139.668 124.51 134.854 124.51H99.9607C95.122 124.51 91.1812 120.544 91.1812 115.73V27.0868C91.1812 22.2481 95.1469 18.3073 99.9607 18.3073H134.854C139.693 18.3073 143.634 22.2731 143.634 27.0868V115.73Z" fill="#0B0450"/>
<path d="M123.281 16.9854H111.484C111.334 16.9854 111.234 16.8607 111.234 16.711V16.2371C111.234 16.0875 111.359 15.9628 111.484 15.9628H123.281C123.431 15.9628 123.556 16.0875 123.556 16.2371V16.711C123.556 16.8607 123.431 16.9854 123.281 16.9854Z" fill="#E3E6FF"/>
<path d="M117.395 132.94C119.117 132.94 120.513 131.544 120.513 129.822C120.513 128.101 119.117 126.705 117.395 126.705C115.673 126.705 114.277 128.101 114.277 129.822C114.277 131.544 115.673 132.94 117.395 132.94Z" fill="#0B0450"/>
<path opacity="0.36" d="M118.592 85.75C127.808 85.75 135.278 78.2794 135.278 69.0639C135.278 59.8484 127.808 52.3778 118.592 52.3778C109.377 52.3778 101.906 59.8484 101.906 69.0639C101.906 78.2794 109.377 85.75 118.592 85.75Z" fill="#F44E4E"/>
<path opacity="0.36" d="M118.592 81.7094C125.576 81.7094 131.238 76.0478 131.238 69.0639C131.238 62.08 125.576 56.4184 118.592 56.4184C111.608 56.4184 105.947 62.08 105.947 69.0639C105.947 76.0478 111.608 81.7094 118.592 81.7094Z" fill="#F44E4E"/>
<path d="M118.592 75.8731C122.353 75.8731 125.401 72.8246 125.401 69.064C125.401 65.3034 122.353 62.2549 118.592 62.2549C114.832 62.2549 111.783 65.3034 111.783 69.064C111.783 72.8246 114.832 75.8731 118.592 75.8731Z" fill="#F44E4E"/>
<path d="M159.098 18.0828C158.574 18.0828 158.15 17.6588 158.15 17.135C158.15 8.72965 151.316 1.89558 142.911 1.89558C142.387 1.89558 141.963 1.47157 141.963 0.947795C141.963 0.424016 142.387 0 142.911 0C152.339 0 160.021 7.68209 160.021 17.1101C160.046 17.6588 159.622 18.0828 159.098 18.0828Z" fill="#8888CF"/>
<path d="M153.86 18.0829C153.336 18.0829 152.912 17.6588 152.912 17.1351C152.912 11.9721 148.722 7.78187 143.559 7.78187C143.035 7.78187 142.611 7.35786 142.611 6.83408C142.611 6.3103 143.035 5.88629 143.559 5.88629C149.745 5.88629 154.783 10.9245 154.783 17.1101C154.808 17.6588 154.384 18.0829 153.86 18.0829Z" fill="#8888CF"/>
<path d="M192.121 29.5311H168.202C167.428 29.5311 166.78 28.9076 166.78 28.1344V26.7626C166.78 25.9894 167.403 25.3658 168.202 25.3658H192.121C192.894 25.3658 193.543 25.9894 193.543 26.7626V28.1344C193.543 28.9076 192.919 29.5311 192.121 29.5311Z" fill="#E3E6FF"/>
<path d="M192.121 36.6396H168.202C167.428 36.6396 166.78 36.016 166.78 35.2429V33.871C166.78 33.0979 167.403 32.4743 168.202 32.4743H192.121C192.894 32.4743 193.543 33.0979 193.543 33.871V35.2429C193.543 36.016 192.919 36.6396 192.121 36.6396Z" fill="#E3E6FF"/>
<path d="M192.121 43.7729H168.202C167.428 43.7729 166.78 43.1494 166.78 42.3762V41.0044C166.78 40.2312 167.403 39.6077 168.202 39.6077H192.121C192.894 39.6077 193.543 40.2312 193.543 41.0044V42.3762C193.543 43.1245 192.919 43.7729 192.121 43.7729Z" fill="#E3E6FF"/>
<path d="M192.121 50.8813H168.202C167.428 50.8813 166.78 50.2578 166.78 49.4846V48.1128C166.78 47.3396 167.403 46.7161 168.202 46.7161H192.121C192.894 46.7161 193.543 47.3396 193.543 48.1128V49.4846C193.543 50.2329 192.919 50.8813 192.121 50.8813Z" fill="#E3E6FF"/>
<path d="M66.4139 58.788H11.3922C10.619 58.788 9.97052 58.1644 9.97052 57.3912V54.498C9.97052 53.7248 10.5941 53.0763 11.3922 53.0763H66.4139C67.1871 53.0763 67.8356 53.6998 67.8356 54.498V57.3912C67.8107 58.1395 67.1871 58.788 66.4139 58.788Z" fill="#E3E6FF"/>
<path d="M66.4139 68.4404H32.8672C32.094 68.4404 31.4704 67.8169 31.4704 67.0187V64.1255C31.4704 63.3523 32.094 62.7288 32.8672 62.7288H66.4139C67.1871 62.7288 67.8356 63.3523 67.8356 64.1255V67.0187C67.8107 67.8169 67.1871 68.4404 66.4139 68.4404Z" fill="#E3E6FF"/>
<path d="M66.4139 90.1398H34.7378C33.9646 90.1398 33.341 89.5163 33.341 88.7181V85.8498C33.341 85.0766 33.9646 84.4531 34.7378 84.4531H66.4139C67.1871 84.4531 67.8356 85.0766 67.8356 85.8498V88.7181C67.8107 89.5163 67.1871 90.1398 66.4139 90.1398Z" fill="#E3E6FF"/>
<path d="M66.4139 99.8173H47.5579C46.7847 99.8173 46.1362 99.1937 46.1362 98.3956V95.5023C46.1362 94.7291 46.7597 94.0806 47.5579 94.0806H66.4139C67.1871 94.0806 67.8356 94.7042 67.8356 95.5023V98.4205C67.8107 99.1937 67.1871 99.8173 66.4139 99.8173Z" fill="#E3E6FF"/>
<path d="M167.104 165.115C166.805 162.87 166.63 160.601 166.58 158.281C166.306 143.017 168.551 123.063 153.96 113.735C147.4 109.545 138.72 109.27 133.383 102.935C131.412 100.615 130.365 97.6224 129.367 94.7042C126.249 85.6254 123.231 76.5216 120.338 67.368C117.37 67.6922 115.649 71.0594 115.001 74.0773C113.105 82.8569 115.475 92.0105 118.592 100.391C121.71 108.771 125.601 117.002 126.898 125.906C127.397 129.274 126.349 134.013 123.082 133.888C121.336 133.813 120.014 132.267 119.141 130.695C115.524 124.385 114.452 115.406 107.867 112.762C106.121 112.064 103.627 112.313 103.053 114.159C102.754 115.157 102.405 116.229 102.804 117.202C108.291 130.82 112.407 143.091 120.862 154.964C124.079 159.503 130.914 164.217 134.031 168.831C145.155 185.393 144.881 187.962 153.985 205.621C154.583 206.793 155.805 195.594 156.928 196.218C158 196.841 157.277 201.755 158.499 201.605C164.685 200.832 171.868 205.296 177.405 202.378C178.328 201.904 179.301 201.356 179.8 200.433C180.298 199.485 180.248 198.363 180.174 197.29C178.802 179.282 169.424 182.973 167.104 165.115Z" fill="#EAC2AB"/>
<path d="M207.51 178.234C205.016 176.588 202.023 175.616 198.83 175.616H106.321C106.146 175.616 105.972 175.641 105.797 175.641C119.365 179.207 132.809 183.472 146.103 188.037C166.955 196.342 186.708 184.62 207.51 178.234Z" fill="#E3E6FF"/>
<path d="M207.51 178.234C186.708 184.62 166.955 196.367 146.103 188.037C132.809 183.497 119.365 179.207 105.797 175.641C97.3418 175.915 90.5077 182.899 90.5077 191.429C90.5077 200.133 97.6162 207.242 106.321 207.242H198.805C207.51 207.242 214.618 200.133 214.618 191.429C214.643 185.917 211.8 181.053 207.51 178.234Z" fill="#978CFF"/>
<path d="M122.633 213.103H38.2297C32.0441 213.103 27.0058 208.04 27.0058 201.879V200.183C27.0058 193.998 32.069 188.959 38.2297 188.959H122.633C128.818 188.959 133.857 194.023 133.857 200.183V201.879C133.857 208.065 128.793 213.103 122.633 213.103Z" fill="#0B0450"/>
<path d="M122.907 201.106L122.533 201.555C122.458 201.655 122.284 201.68 122.184 201.58L115.549 196.168C115.45 196.093 115.425 195.918 115.524 195.818L115.899 195.369C115.973 195.27 116.148 195.245 116.248 195.345L122.882 200.757C122.982 200.832 123.007 201.006 122.907 201.106Z" fill="white"/>
<path d="M122.907 200.931L122.533 200.482C122.458 200.383 122.284 200.358 122.184 200.458L115.549 205.87C115.45 205.945 115.425 206.119 115.524 206.219L115.899 206.668C115.973 206.768 116.148 206.793 116.248 206.693L122.882 201.281C122.982 201.206 123.007 201.056 122.907 200.931Z" fill="white"/>
<path d="M113.803 201.106L113.429 201.555C113.354 201.655 113.18 201.68 113.08 201.58L106.446 196.168C106.346 196.093 106.321 195.918 106.421 195.818L106.795 195.369C106.87 195.27 107.044 195.245 107.144 195.345L113.778 200.757C113.878 200.832 113.903 201.006 113.803 201.106Z" fill="white"/>
<path d="M113.803 200.931L113.429 200.482C113.354 200.383 113.18 200.358 113.08 200.458L106.446 205.87C106.346 205.945 106.321 206.119 106.421 206.219L106.795 206.668C106.87 206.768 107.044 206.793 107.144 206.693L113.778 201.281C113.878 201.206 113.903 201.056 113.803 200.931Z" fill="white"/>
<path d="M103.852 201.106L103.477 201.555C103.378 201.655 103.228 201.68 103.128 201.58L96.4938 196.168C96.394 196.093 96.3691 195.918 96.4689 195.818L96.843 195.369C96.9428 195.27 97.0924 195.245 97.1922 195.345L103.827 200.757C103.926 200.832 103.951 201.006 103.852 201.106Z" fill="white"/>
<path d="M103.852 200.931L103.477 200.482C103.378 200.383 103.228 200.358 103.128 200.458L96.4938 205.87C96.394 205.945 96.3691 206.119 96.4689 206.219L96.843 206.668C96.9428 206.768 97.0924 206.793 97.1922 206.693L103.827 201.281C103.926 201.206 103.951 201.056 103.852 200.931Z" fill="white"/>
</svg>
