<svg width="240" height="153" viewBox="0 0 240 153" fill="none" xmlns="http://www.w3.org/2000/svg">
<path d="M10.1569 138.733C14.304 141.418 18.4361 144.12 22.538 146.882C18.4512 145.632 14.3342 144.382 10.5791 142.314C6.82408 140.245 3.41593 137.282 1.50071 133.392C-0.414515 129.487 -0.625671 124.578 1.62132 120.859C4.80331 115.611 12.4039 113.017 17.8027 116.074C20.0497 117.339 22.2062 119.423 24.7398 119.022C29.7917 118.235 33.3356 113.002 38.101 111.211C43.2586 109.282 49.0193 109.004 54.3277 110.517C56.454 111.119 62.8029 113.558 63.0442 109.205C63.1196 107.908 62.5616 106.643 62.5314 105.331C62.3656 99.033 79.3764 104.914 82.9806 101.873C85.9665 99.3417 86.6603 95.1433 89.4351 92.365C92.7076 89.0927 96.9301 86.9626 100.549 84.1379C104.908 80.7267 109.296 74.7687 107.124 68.8724C106.159 66.2175 104.003 63.7324 104.561 60.9695C104.893 59.3334 106.114 58.0677 107.29 56.8946C110.533 53.6532 113.76 50.4272 117.002 47.1858C117.741 46.4449 118.631 45.6577 119.641 45.7966C120.818 45.9509 121.526 47.3093 121.466 48.5286C121.406 49.748 120.818 50.8439 120.365 51.9707C118.209 57.2959 119.083 63.8405 122.808 68.2087C125.055 70.8481 128.328 72.9473 129.067 76.3739C129.836 79.9704 127.951 84.956 131.148 86.6693C132.807 87.5645 134.888 86.7619 136.667 87.3639C140.286 88.5833 140.015 93.8313 141.704 97.3197C143.936 101.919 149.606 103.216 153.829 105.979C158.383 108.973 161.369 113.866 165.169 117.818C170.07 122.881 176.48 126.4 183.311 127.758C186.237 128.345 189.947 128.159 191.319 125.443C192.752 122.603 190.61 118.605 192.601 116.135C194.893 113.311 199.191 115.765 202.298 117.586C207.048 120.349 212.582 121.214 217.966 122.171C223.35 123.143 228.9 124.347 233.288 127.65C237.691 130.969 240.632 136.942 238.868 142.236C236.892 148.164 230.212 150.834 224.194 151.899C201.755 155.881 179.119 147.948 156.438 145.725C133.259 143.471 110.11 147.222 87.0523 149.198C63.2704 151.251 40.2878 148.966 16.6566 146.25" fill="#E3E6FF"/>
<path d="M108.829 91.5469C108.783 93.5998 109.055 95.6835 108.678 97.7055C108.301 99.7276 107.109 101.78 105.164 102.336C102.434 103.123 99.0112 100.839 96.93 102.815C95.3466 104.312 96.0403 107.044 95.1807 109.066C93.4314 113.187 86.8261 112.184 84.187 115.765C83.252 117.031 82.8901 118.806 81.5932 119.67C80.0249 120.72 77.9588 119.932 76.1341 119.454C68.7295 117.509 61.1139 121.368 54.6293 125.535C50.2861 128.314 46.0635 131.293 41.9767 134.457C41.1171 135.121 40.2274 135.846 39.8504 136.88C39.2622 138.517 40.1822 140.307 41.2378 141.665C46.2144 148.025 56.4842 141.48 64.4316 142.005C78.185 142.916 88.5 140.431 102.284 139.983C111.995 139.659 120.848 141.496 130.409 139.69C139.397 137.992 150.406 140.816 159.544 140.739C163.737 140.708 168.276 141.511 171.88 139.304C172.363 139.01 172.83 138.655 173.117 138.146C173.931 136.711 172.891 134.936 171.805 133.701C167.446 128.823 153.497 130.614 149.757 125.227C139.789 110.841 135.144 111.458 124.105 107.538C122.672 107.029 121.179 106.519 120.094 105.423C119.023 104.327 118.525 102.46 119.415 101.209C120.245 100.052 121.888 99.8202 122.853 98.7706C124.889 96.5479 122.492 93.0441 122.507 90.0033C122.507 88.7531 122.959 87.5491 123.125 86.2989C123.683 82.2548 119.687 76.0035 115.177 77.439C110.849 78.8436 108.919 87.7035 108.829 91.5469Z" fill="#8888CF"/>
<path d="M107.758 60.0434C106.521 60.985 105.255 61.9728 104.516 63.3466C103.505 65.2297 105.013 66.7886 105.632 68.4711C105.993 69.4744 106.189 70.1844 105.978 71.2494C105.812 72.1601 104.681 73.1017 105.345 74.0741C106.28 75.417 107.984 74.6298 108.889 76.5129C109.643 78.041 109.341 79.8469 110.306 81.3133C111.302 82.8259 113.006 84.0145 113.624 85.7741C114.288 87.6109 112.825 90.3275 114.831 91.6241C115.901 92.3186 117.394 91.7321 118.163 90.6979C119.777 88.537 119.747 84.493 120.154 81.9153C120.335 80.7113 121.164 79.1369 122.235 79.6308C122.914 79.9395 123.834 84.9406 125.251 82.3629C125.523 81.8535 125.493 81.2361 125.447 80.665C125.387 79.8469 125.116 78.9362 125.236 78.1027C125.673 75.1237 126.382 73.5184 125.477 70.4005C125.387 70.0609 125.312 69.6442 125.568 69.4126C125.704 69.2891 125.9 69.2737 126.081 69.2737C127.212 69.1965 128.509 69.2737 129.112 68.0698C129.76 66.7732 128.237 65.7853 127.8 64.6894C127.89 64.9055 130.906 65.8008 131.389 66.0632C130.469 63.8096 128.237 62.0654 125.975 61.4017" fill="#F44E4E"/>
<path d="M109.266 70.8327C109.583 71.8977 110.08 72.8702 110.744 73.6419C111.272 74.2593 111.905 74.7841 112.252 75.525C112.538 76.1733 112.584 76.8988 112.855 77.5625C113.896 80.0939 115.826 77.3927 116.505 76.1424C117.349 74.5989 118.179 74.1358 119.777 74.1667C119.958 74.1667 120.154 74.1667 120.275 74.0278C120.395 73.9043 120.395 73.6882 120.365 73.5184C120.229 72.5306 119.174 71.1414 120.199 70.2925C120.607 69.9529 121.134 69.8603 121.617 69.6905C124.045 68.8106 124 64.2264 123.894 62.0346C123.864 61.2011 123.547 60.4139 123.11 59.7347C120.682 55.9067 114.408 55.9067 111.453 59.1327C109.055 61.7567 108.09 66.9739 109.266 70.8327Z" fill="#D7384E"/>
<path d="M139.623 63.2077C138.326 64.2573 128.901 57.0027 119.702 48.6213L130.122 40.1164C136.019 51.199 140.799 62.2507 139.623 63.2077Z" fill="#0B0450"/>
<path d="M93.9291 63.2077C95.226 64.2573 104.651 57.0027 113.85 48.6213L103.43 40.1164C97.5333 51.199 92.7377 62.2507 93.9291 63.2077Z" fill="#0B0450"/>
<path d="M102.284 41.6908C102.284 54.3786 108.587 61.34 116.339 61.34C124.09 61.34 130.394 54.3786 130.394 41.6908C130.394 36.628 128.765 28.9567 126.563 21.5631H105.978C103.852 28.9567 102.284 36.628 102.284 41.6908Z" fill="#8888CF"/>
<path d="M116.339 0C113.775 0 109.221 10.4651 105.993 21.5631H126.578C123.276 10.4651 118.676 0 116.339 0Z" fill="#0B0450"/>
<path d="M126.774 59.8273H105.918C104.274 59.8273 102.932 58.4536 102.932 56.7711C102.932 55.0887 104.274 53.7149 105.918 53.7149H126.774C128.418 53.7149 129.76 55.0887 129.76 56.7711C129.745 58.4536 128.418 59.8273 126.774 59.8273Z" fill="#978CFF"/>
<path d="M125.824 61.4943H106.868C106.416 61.4943 106.054 61.1238 106.054 60.6608C106.054 60.1977 106.416 59.8273 106.868 59.8273H125.824C126.277 59.8273 126.639 60.1977 126.639 60.6608C126.639 61.1238 126.277 61.4943 125.824 61.4943Z" fill="#0B0450"/>
<path d="M116.339 30.1606C112.267 30.1606 108.949 33.5409 108.949 37.7239C108.949 37.9554 108.964 38.1869 108.979 38.403C113.307 36.5971 117.605 34.7449 121.828 32.692C120.486 31.133 118.525 30.1606 116.339 30.1606Z" fill="white"/>
<path d="M108.994 38.4031C109.326 42.2619 112.493 45.2718 116.339 45.2718C120.41 45.2718 123.728 41.8915 123.728 37.7239C123.728 35.7945 123.004 34.0195 121.843 32.692C117.621 34.7295 113.323 36.5972 108.994 38.4031Z" fill="#E3E6FF"/>
</svg>
