<svg width="495" height="335" viewBox="0 0 495 335" fill="none" xmlns="http://www.w3.org/2000/svg">
<path d="M459.237 299.076C459.885 299.839 460.8 299.877 461.64 299.839C466.446 299.724 471.213 300.068 476.019 300.03C480.558 299.991 484.296 300.411 484.754 291.753C484.868 289.922 485.059 277.945 485.708 268.867H453.63C454.85 278.136 456.185 287.519 458.169 296.33C458.398 297.398 458.665 298.428 459.237 299.076Z" fill="#FF9A9A"/>
<path d="M469.459 289.006C473.019 289.006 475.905 286.12 475.905 282.56C475.905 279 473.019 276.114 469.459 276.114C465.899 276.114 463.013 279 463.013 282.56C463.013 286.12 465.899 289.006 469.459 289.006Z" fill="white"/>
<path d="M464.005 252.695C462.403 252.313 460.877 251.741 459.542 250.787C457.101 249.071 455.461 246.02 456.147 243.159C457.406 237.972 465.034 235.988 465.568 230.686C465.759 228.588 464.729 226.567 464.424 224.469C464.119 222.371 465.149 219.663 467.247 219.587C468.124 223.477 470.718 226.91 474.189 228.855C475.791 229.733 477.621 230.343 479.033 231.525C480.444 232.708 481.359 234.806 480.482 236.408C479.872 237.514 478.613 238.086 477.545 238.811C476.477 239.535 475.524 240.756 475.905 241.976C476.096 242.587 476.592 243.044 477.087 243.426C478.651 244.799 484.525 247.736 482.084 250.559C481.359 251.398 480.215 251.779 479.109 252.084C475.485 253 471.709 253.381 467.971 253.19C466.636 253.152 465.301 253 464.005 252.695Z" fill="#8888CF"/>
<path d="M483.419 266.884H455.232C452.333 266.884 449.968 264.519 449.968 261.62C449.968 258.721 452.333 256.356 455.232 256.356H483.419C486.318 256.356 488.683 258.721 488.683 261.62C488.683 264.519 486.318 266.884 483.419 266.884Z" fill="#0B0450"/>
<path d="M165.729 333.671C257.259 333.671 331.459 327.336 331.459 319.52C331.459 311.705 257.259 305.369 165.729 305.369C74.1996 305.369 0 311.705 0 319.52C0 327.336 74.1996 333.671 165.729 333.671Z" fill="#E3E6FF"/>
<path d="M450.044 192.048C454.202 189.149 458.626 185.182 458.283 180.147C451.951 179.995 445.62 181.33 439.898 183.962C437.877 181.292 441.157 177.859 444.018 176.142C450.235 172.404 456.452 168.666 462.669 164.928C460.495 162.907 457.52 161.725 454.545 161.725C452.218 156.118 463.28 152.418 462.288 146.429C461.754 143.302 457.825 141.738 454.774 142.539C451.722 143.34 449.358 145.781 447.184 148.108C448.557 144.179 451.112 140.746 453.134 137.084C455.155 133.423 456.681 129.189 455.804 125.108C454.927 121.026 450.769 117.479 446.726 118.509C443.941 119.234 442.034 121.789 440.585 124.269C437.381 129.685 435.131 135.635 433.872 141.814C433.147 145.476 430.973 150.472 427.426 149.252C425.519 148.603 424.679 146.391 423.459 144.789C419.95 140.327 412.245 141.242 408.621 145.628C404.998 150.015 404.922 156.423 406.752 161.801C407.859 165.119 409.384 169.429 406.6 171.565C403.854 173.663 399.505 171.26 396.606 173.091C393.097 175.303 395.043 180.643 395.462 184.801C395.958 189.759 393.593 194.451 391.648 199.028C389.703 203.605 388.101 208.869 390.046 213.408C395.958 227.177 441.767 197.846 450.044 192.048Z" fill="#F44E4E"/>
<path d="M458.397 224.965C459.771 223.63 461.182 221.99 460.953 220.083C460.724 218.099 458.664 216.764 456.681 216.65C454.698 216.535 452.791 217.298 450.922 218.061C449.815 216.574 451.456 214.59 453.019 213.56C459.923 208.945 468.734 204.864 470.412 196.739C470.565 196.053 470.641 195.29 470.222 194.718C469.84 194.146 469.116 193.917 468.429 193.841C464.31 193.307 460.533 196.205 456.414 196.93C451.875 197.693 447.336 195.748 442.759 195.862C439.059 195.977 435.55 197.426 432.155 198.837C425.824 201.507 419.34 204.254 414.419 209.059C407.058 216.268 396.645 237.247 412.131 241.328C427.044 245.295 447.908 234.958 458.397 224.965Z" fill="#FF9A9A"/>
<path d="M402.633 202.423C402.48 202.423 402.29 202.346 402.175 202.232C401.87 201.965 401.87 201.507 402.099 201.202L437.991 161.076C438.258 160.771 438.716 160.771 439.021 161C439.326 161.229 439.326 161.725 439.097 162.03L403.167 202.194C403.014 202.346 402.824 202.423 402.633 202.423Z" fill="white"/>
<path d="M422.315 180.414C421.971 180.414 421.666 180.147 421.59 179.804L418.691 157.033C418.653 156.652 418.92 156.27 419.301 156.232C419.683 156.194 420.064 156.461 420.102 156.842L423.001 179.613C423.039 179.995 422.772 180.376 422.391 180.414C422.353 180.414 422.315 180.414 422.315 180.414Z" fill="white"/>
<path d="M400.497 242.663C400.268 242.663 400.039 242.549 399.887 242.358C399.658 242.015 399.772 241.595 400.077 241.366L440.699 214.438C441.004 214.209 441.462 214.323 441.691 214.628C441.92 214.972 441.806 215.391 441.5 215.62L400.879 242.549C400.764 242.625 400.612 242.663 400.497 242.663Z" fill="white"/>
<path d="M424.527 227.025C424.451 227.025 424.412 227.025 424.336 226.986C423.955 226.872 423.726 226.491 423.84 226.109L428.379 208.602C428.494 208.22 428.875 207.991 429.257 208.106C429.638 208.22 429.867 208.602 429.752 208.983L425.213 226.491C425.137 226.834 424.87 227.025 424.527 227.025Z" fill="white"/>
<path d="M215.467 229.199C210.509 225.537 205.589 221.837 200.63 218.176C186.021 207.305 171.184 196.205 160.39 181.559C156.118 175.761 152.494 169.315 151.121 162.258C150.816 160.809 150.663 159.207 151.464 157.948C152.799 155.812 155.927 155.965 158.368 156.461C165.768 157.987 172.977 160.39 179.804 163.632C175.685 148.451 157.72 141.128 150.892 126.977C149.786 124.688 148.985 122.056 149.671 119.577C150.129 118.013 151.159 116.64 152.418 115.572C156.652 111.948 162.945 111.605 168.247 113.322C173.549 115.038 178.126 118.471 182.55 121.827C176.448 117.365 171.603 111.147 168.857 104.129C167.713 101.23 166.912 97.8357 168.285 95.0131C170.574 90.2072 177.63 89.9402 182.283 92.5339C191.209 97.5687 194.069 108.821 196.625 118.738C199.181 128.655 203.567 139.831 213.331 142.92C214.514 143.302 215.773 143.569 216.65 144.408C218.328 146.124 217.489 149.099 215.811 150.854C214.132 152.608 211.882 153.638 210.28 155.431C206.695 159.436 207.534 165.691 209.441 170.726C211.348 175.761 214.247 180.643 214.056 186.021C213.865 192.696 215.658 200.668 216.001 207.343C216.154 210.394 210.7 211.272 211.424 214.209C212.149 217.146 212.263 220.54 210.394 222.943C208.564 225.346 204.215 225.804 202.69 223.172" fill="#0B0450"/>
<path d="M224.622 220.922C224.355 220.922 224.126 220.807 224.011 220.578C208.64 193.879 179.27 143.111 177.859 141.204C177.63 140.975 177.592 140.632 177.744 140.365C177.935 140.021 178.355 139.907 178.698 140.098C178.927 140.212 179.461 140.517 225.232 219.854C225.423 220.197 225.308 220.617 224.965 220.846C224.85 220.884 224.736 220.922 224.622 220.922Z" fill="white"/>
<path d="M204.978 186.899C204.94 186.899 204.902 186.899 204.864 186.899L174.655 182.016C174.273 181.94 174.006 181.597 174.083 181.177C174.159 180.796 174.54 180.529 174.884 180.605L205.093 185.487C205.474 185.564 205.741 185.907 205.665 186.326C205.627 186.632 205.321 186.899 204.978 186.899Z" fill="white"/>
<path d="M36.8838 291.6C39.0961 290.227 40.1641 287.252 39.2868 284.772C37.8755 280.768 34.2138 282.102 31.582 280.005C28.4925 277.525 32.2304 273.635 32.0397 270.698C31.8109 267.456 28.912 264.366 28.0348 261.238C26.0132 254.068 34.1757 259.408 36.5024 258.569C37.456 258.225 38.1044 257.234 38.3332 256.242C38.9054 253.648 37.7992 251.588 39.2105 249.147C40.5837 246.782 42.5671 245.714 41.9949 242.549C41.6517 240.756 40.5455 239.078 40.5837 237.247C40.5837 236.713 40.7362 236.141 41.1939 235.874C41.5372 235.683 41.9949 235.721 42.3382 235.874C43.5969 236.331 44.4361 237.476 45.4278 238.353C46.4576 239.23 48.0596 239.764 49.0132 238.849C49.6616 238.239 49.7379 237.247 49.8523 236.37C50.0812 234.806 51.1873 233.7 52.5604 234.615C54.048 235.607 53.4759 239.535 53.247 240.947C52.9037 243.159 52.3316 245.486 53.0181 247.66C54.1243 251.245 57.0994 247.24 58.3963 246.058C59.4642 245.104 61.2569 244.494 62.2868 245.524C64.3465 247.545 61.0662 250.215 60.6085 252.122C60.4178 253.038 60.6848 254.106 61.4858 254.602C63.8506 255.975 65.8341 253.534 66.2155 257.157C66.4443 259.637 64.1939 262.04 65.6052 264.519C66.8257 266.693 70.907 267.608 69.305 270.698C68.3133 272.567 64.0413 272.491 64.2702 275.161C64.4228 276.915 67.0165 277.678 67.0165 279.433C67.0165 280.767 65.4908 281.53 64.1558 281.607C62.8208 281.683 61.4476 281.378 60.2652 281.874C58.8921 282.446 58.0911 284.162 58.5107 285.573C58.8921 286.832 60.0364 287.938 59.6931 289.197C59.2735 290.685 57.1757 290.761 55.65 290.494C49.3565 289.502 42.6052 288.854 36.8838 291.6Z" fill="#F44E4E"/>
<path d="M48.7844 291.295C48.4029 291.295 48.0596 290.99 48.0596 290.57V262.459C48.0596 262.078 48.3648 261.734 48.7844 261.734C49.1658 261.734 49.5091 262.039 49.5091 262.459V290.608C49.5091 290.99 49.1658 291.295 48.7844 291.295Z" fill="white"/>
<path d="M48.7843 280.348C48.6317 280.348 48.4792 280.31 48.3266 280.195C48.0215 279.928 47.9833 279.509 48.2122 279.204L55.5737 270.126C55.8407 269.821 56.2602 269.782 56.5654 270.011C56.8705 270.278 56.9087 270.698 56.6798 271.003L49.2802 280.081C49.2039 280.272 48.975 280.348 48.7843 280.348Z" fill="white"/>
<path d="M48.7844 272.681C48.6318 272.681 48.4411 272.643 48.3267 272.529L39.5539 265.129C39.2487 264.862 39.2106 264.442 39.4776 264.137C39.7446 263.832 40.2023 263.794 40.4693 264.061L49.2421 271.461C49.5473 271.728 49.5854 272.147 49.3184 272.452C49.1658 272.567 48.9751 272.681 48.7844 272.681Z" fill="white"/>
<path d="M35.6251 287.671C36.7694 295.376 37.8374 303.386 39.7827 310.824C39.9352 311.434 40.1259 312.083 40.5455 312.502C41.0032 312.96 41.6517 312.96 42.2238 312.96C45.5803 312.884 48.9369 313.112 52.2934 313.074C55.4593 313.074 58.0911 313.303 58.4344 308.039C58.5488 306.209 58.854 287.671 60.5322 287.671C60.4941 287.671 35.6251 287.671 35.6251 287.671Z" fill="#978CFF"/>
<path d="M58.2437 292.248H37.9137C35.3963 292.248 33.3366 290.189 33.3366 287.671C33.3366 285.154 35.3963 283.094 37.9137 283.094H58.2437C60.7611 283.094 62.8208 285.154 62.8208 287.671C62.8208 290.189 60.7611 292.248 58.2437 292.248Z" fill="#8888CF"/>
<path d="M433.681 283.209C433.033 283.552 432.003 283.704 430.477 283.704C389.97 283.704 349.424 283.704 308.917 283.781C288.625 283.819 268.295 283.704 248.003 283.743C237.743 283.781 227.482 283.819 217.26 284.01C212.149 284.086 207 284.2 201.889 284.353C198.113 284.467 193.535 285.154 189.95 283.59C188.729 283.056 187.585 282.331 187.089 281.034C187.013 280.729 186.975 280.424 187.013 280.081C187.394 277.335 191.59 272.758 193.23 270.507C196.587 265.854 200.058 260.819 206.122 259.217C209.632 258.263 213.37 258.301 216.993 258.34C281.111 258.34 345.228 258.683 409.346 258.912C413.351 258.912 418.348 259.522 421.132 262.573C424.679 266.464 427.807 270.698 430.706 275.084C432.422 277.678 436.58 281.759 433.681 283.209Z" fill="#978CFF"/>
<path d="M406.104 261.62H214.056C204.635 261.62 196.892 253.915 196.892 244.456V108.21C196.892 98.7893 204.597 91.0463 214.056 91.0463H406.104C415.525 91.0463 423.268 98.7511 423.268 108.21V244.456C423.268 253.915 415.563 261.62 406.104 261.62Z" fill="#8888CF"/>
<path d="M220.045 98.4841C210.28 98.4841 202.27 106.494 202.27 116.259V209.479C260.132 174.731 316.736 138.038 371.432 98.4841H220.045Z" fill="#EFF0FC"/>
<path d="M399.162 98.4841H371.432C316.774 138.038 260.171 174.731 202.27 209.479V229.618C202.27 239.383 210.28 247.393 220.045 247.393H399.162C408.927 247.393 416.937 239.383 416.937 229.618V116.259C416.937 106.494 408.927 98.4841 399.162 98.4841Z" fill="#E3E6FF"/>
<path d="M322.228 253.839H306.018C305.713 253.839 305.484 253.61 305.484 253.305V252.962C305.484 252.656 305.713 252.428 306.018 252.428H322.228C322.534 252.428 322.762 252.656 322.762 252.962V253.305C322.762 253.61 322.534 253.839 322.228 253.839Z" fill="#E3E6FF"/>
<path d="M218.519 96.7677C219.383 96.7677 220.083 96.0676 220.083 95.2039C220.083 94.3402 219.383 93.64 218.519 93.64C217.655 93.64 216.955 94.3402 216.955 95.2039C216.955 96.0676 217.655 96.7677 218.519 96.7677Z" fill="#E3E6FF"/>
<path d="M225.308 96.7677C226.172 96.7677 226.872 96.0676 226.872 95.2039C226.872 94.3402 226.172 93.64 225.308 93.64C224.445 93.64 223.744 94.3402 223.744 95.2039C223.744 96.0676 224.445 96.7677 225.308 96.7677Z" fill="white"/>
<path d="M232.174 96.7677C233.038 96.7677 233.738 96.0676 233.738 95.2039C233.738 94.3402 233.038 93.64 232.174 93.64C231.31 93.64 230.61 94.3402 230.61 95.2039C230.61 96.0676 231.31 96.7677 232.174 96.7677Z" fill="#0B0450"/>
<path d="M214.857 270.011H208.525C207.686 270.011 207 269.325 207 268.486V267.494C207 266.655 207.686 265.968 208.525 265.968H214.857C215.696 265.968 216.383 266.655 216.383 267.494V268.486C216.383 269.325 215.696 270.011 214.857 270.011Z" fill="#E3E6FF"/>
<path d="M230.457 270.011H224.126C223.287 270.011 222.6 269.325 222.6 268.486V267.494C222.6 266.655 223.287 265.968 224.126 265.968H230.457C231.297 265.968 231.983 266.655 231.983 267.494V268.486C231.983 269.325 231.297 270.011 230.457 270.011Z" fill="#E3E6FF"/>
<path d="M246.058 270.011H239.726C238.887 270.011 238.2 269.325 238.2 268.486V267.494C238.2 266.655 238.887 265.968 239.726 265.968H246.058C246.897 265.968 247.583 266.655 247.583 267.494V268.486C247.583 269.325 246.897 270.011 246.058 270.011Z" fill="#E3E6FF"/>
<path d="M261.658 270.011H255.326C254.487 270.011 253.801 269.325 253.801 268.486V267.494C253.801 266.655 254.487 265.968 255.326 265.968H261.658C262.497 265.968 263.184 266.655 263.184 267.494V268.486C263.184 269.325 262.497 270.011 261.658 270.011Z" fill="#E3E6FF"/>
<path d="M277.258 270.011H270.927C270.088 270.011 269.401 269.325 269.401 268.486V267.494C269.401 266.655 270.088 265.968 270.927 265.968H277.258C278.098 265.968 278.784 266.655 278.784 267.494V268.486C278.784 269.325 278.098 270.011 277.258 270.011Z" fill="#E3E6FF"/>
<path d="M292.897 270.011H286.565C285.726 270.011 285.039 269.325 285.039 268.486V267.494C285.039 266.655 285.726 265.968 286.565 265.968H292.897C293.736 265.968 294.423 266.655 294.423 267.494V268.486C294.384 269.325 293.698 270.011 292.897 270.011Z" fill="#E3E6FF"/>
<path d="M308.497 270.011H302.165C301.326 270.011 300.64 269.325 300.64 268.486V267.494C300.64 266.655 301.326 265.968 302.165 265.968H308.497C309.336 265.968 310.023 266.655 310.023 267.494V268.486C309.985 269.325 309.336 270.011 308.497 270.011Z" fill="#E3E6FF"/>
<path d="M324.097 270.011H317.766C316.927 270.011 316.24 269.325 316.24 268.486V267.494C316.24 266.655 316.927 265.968 317.766 265.968H324.097C324.937 265.968 325.623 266.655 325.623 267.494V268.486C325.623 269.325 324.937 270.011 324.097 270.011Z" fill="#E3E6FF"/>
<path d="M339.698 270.011H333.366C332.527 270.011 331.84 269.325 331.84 268.486V267.494C331.84 266.655 332.527 265.968 333.366 265.968H339.698C340.537 265.968 341.223 266.655 341.223 267.494V268.486C341.223 269.325 340.537 270.011 339.698 270.011Z" fill="#E3E6FF"/>
<path d="M355.298 270.011H348.966C348.127 270.011 347.441 269.325 347.441 268.486V267.494C347.441 266.655 348.127 265.968 348.966 265.968H355.298C356.137 265.968 356.824 266.655 356.824 267.494V268.486C356.824 269.325 356.137 270.011 355.298 270.011Z" fill="#E3E6FF"/>
<path d="M370.898 270.011H364.567C363.728 270.011 363.041 269.325 363.041 268.486V267.494C363.041 266.655 363.728 265.968 364.567 265.968H370.898C371.738 265.968 372.424 266.655 372.424 267.494V268.486C372.424 269.325 371.738 270.011 370.898 270.011Z" fill="#E3E6FF"/>
<path d="M386.499 270.011H380.167C379.328 270.011 378.641 269.325 378.641 268.486V267.494C378.641 266.655 379.328 265.968 380.167 265.968H386.499C387.338 265.968 388.024 266.655 388.024 267.494V268.486C388.024 269.325 387.338 270.011 386.499 270.011Z" fill="#E3E6FF"/>
<path d="M402.099 270.011H395.767C394.928 270.011 394.242 269.325 394.242 268.486V267.494C394.242 266.655 394.928 265.968 395.767 265.968H402.099C402.938 265.968 403.625 266.655 403.625 267.494V268.486C403.625 269.325 402.938 270.011 402.099 270.011Z" fill="#E3E6FF"/>
<path d="M114.351 171.642H53.2852C42.6816 171.642 33.9851 162.945 33.9851 152.341C33.9851 141.738 42.6816 133.041 53.2852 133.041H114.351C124.955 133.041 133.652 141.738 133.652 152.341C133.613 162.945 124.955 171.642 114.351 171.642Z" fill="#E3E6FF"/>
<path d="M74.9502 161.534C74.6069 161.534 74.2255 161.419 73.9585 161.114L65.4527 152.837L73.9585 144.141C74.5306 143.569 75.4079 143.569 75.98 144.103C76.5522 144.637 76.5522 145.552 76.0182 146.124L69.5339 152.761L76.0182 159.055C76.5903 159.589 76.5903 160.504 76.0563 161.076C75.713 161.419 75.3316 161.534 74.9502 161.534Z" fill="#8888CF"/>
<path d="M91.1607 161.534C90.8174 161.534 90.436 161.419 90.169 161.114C89.5969 160.542 89.5969 159.665 90.1309 159.093L96.6151 152.456L90.1309 146.162C89.5587 145.628 89.5587 144.713 90.0927 144.141C90.6267 143.569 91.5422 143.569 92.1143 144.103L100.62 152.38L92.1906 161.114C91.9236 161.419 91.5422 161.534 91.1607 161.534Z" fill="#8888CF"/>
<path d="M78.6119 168.094C78.4593 168.094 78.3067 168.056 78.1542 168.018C77.3913 167.789 77.0099 166.95 77.2387 166.225L86.1641 138.953C86.393 138.191 87.194 137.809 87.9568 138.038C88.7197 138.267 89.1011 139.106 88.8722 139.831L79.9469 167.103C79.7562 167.713 79.2222 168.094 78.6119 168.094Z" fill="#8888CF"/>
<path d="M443.293 52.5223H416.326V25.5555H443.293V52.5223ZM417.737 51.0729H441.844V26.9668H417.737V51.0729Z" fill="#0B0450"/>
<path d="M442.063 25.7386L416.521 51.2798L417.519 52.2777L443.061 26.7365L442.063 25.7386Z" fill="#0B0450"/>
<path d="M417.521 25.7378L416.523 26.7357L442.065 52.2769L443.063 51.279L417.521 25.7378Z" fill="#0B0450"/>
<path d="M468.848 52.5223H441.882V25.5555H468.848V52.5223ZM443.293 51.0729H467.399V26.9668H443.293V51.0729Z" fill="#0B0450"/>
<path d="M467.616 25.733L442.075 51.2742L443.073 52.2721L468.614 26.7309L467.616 25.733Z" fill="#0B0450"/>
<path d="M443.048 25.7592L442.05 26.7571L467.591 52.2983L468.589 51.3004L443.048 25.7592Z" fill="#0B0450"/>
<path d="M392.22 307.963H365.253V280.996H392.22V307.963ZM366.665 306.552H390.771V282.446H366.665V306.552Z" fill="#0B0450"/>
<path d="M390.96 281.223L365.419 306.764L366.417 307.762L391.958 282.221L390.96 281.223Z" fill="#0B0450"/>
<path d="M366.418 281.225L365.42 282.223L390.961 307.764L391.959 306.766L366.418 281.225Z" fill="#0B0450"/>
<path d="M392.22 282.446H365.253V255.479H392.22V282.446ZM366.665 280.996H390.771V256.89H366.665V280.996Z" fill="#0B0450"/>
<path d="M390.955 255.67L365.414 281.211L366.412 282.209L391.953 256.668L390.955 255.67Z" fill="#0B0450"/>
<path d="M366.412 255.672L365.415 256.67L390.956 282.211L391.954 281.213L366.412 255.672Z" fill="#0B0450"/>
<path d="M392.22 256.89H365.253V229.923H392.22V256.89ZM366.665 255.441H390.771V231.335H366.665V255.441Z" fill="#0B0450"/>
<path d="M390.975 230.146L365.434 255.687L366.432 256.685L391.973 231.144L390.975 230.146Z" fill="#0B0450"/>
<path d="M366.434 230.145L365.436 231.143L390.977 256.684L391.975 255.687L366.434 230.145Z" fill="#0B0450"/>
<path d="M392.22 231.335H365.253V204.368H392.22V231.335ZM366.665 229.923H390.771V205.817H366.665V229.923Z" fill="#0B0450"/>
<path d="M390.969 204.593L365.428 230.134L366.426 231.132L391.967 205.591L390.969 204.593Z" fill="#0B0450"/>
<path d="M366.428 204.592L365.43 205.59L390.971 231.131L391.969 230.133L366.428 204.592Z" fill="#0B0450"/>
<path d="M392.22 205.779H365.253V178.812H392.22V205.779ZM366.665 204.368H390.771V180.262H366.665V204.368Z" fill="#0B0450"/>
<path d="M390.964 179.04L365.423 204.581L366.421 205.579L391.962 180.038L390.964 179.04Z" fill="#0B0450"/>
<path d="M366.423 179.039L365.425 180.037L390.966 205.578L391.964 204.58L366.423 179.039Z" fill="#0B0450"/>
<path d="M392.22 180.224H365.253V153.257H392.22V180.224ZM366.665 178.812H390.771V154.706H366.665V178.812Z" fill="#0B0450"/>
<path d="M390.958 153.486L365.417 179.028L366.415 180.025L391.956 154.484L390.958 153.486Z" fill="#0B0450"/>
<path d="M366.417 153.486L365.419 154.483L390.96 180.025L391.958 179.027L366.417 153.486Z" fill="#0B0450"/>
<path d="M392.22 154.706H365.253V127.739H392.22V154.706ZM366.665 153.257H390.771V129.151H366.665V153.257Z" fill="#0B0450"/>
<path d="M390.953 127.933L365.412 153.474L366.409 154.472L391.951 128.931L390.953 127.933Z" fill="#0B0450"/>
<path d="M366.41 127.935L365.412 128.933L390.954 154.474L391.951 153.476L366.41 127.935Z" fill="#0B0450"/>
<path d="M392.22 129.151H365.253V102.184H392.22V129.151ZM366.665 127.701H390.771V103.595H366.665V127.701Z" fill="#0B0450"/>
<path d="M390.973 102.41L365.432 127.951L366.43 128.949L391.971 103.408L390.973 102.41Z" fill="#0B0450"/>
<path d="M366.432 102.409L365.434 103.407L390.975 128.948L391.973 127.95L366.432 102.409Z" fill="#0B0450"/>
<path d="M392.22 103.595H365.253V76.6284H392.22V103.595ZM366.665 102.184H390.771V78.0778H366.665V102.184Z" fill="#0B0450"/>
<path d="M390.967 76.8563L365.426 102.397L366.424 103.395L391.965 77.8542L390.967 76.8563Z" fill="#0B0450"/>
<path d="M366.426 76.8556L365.428 77.8535L390.969 103.395L391.967 102.397L366.426 76.8556Z" fill="#0B0450"/>
<path d="M392.22 78.0397H365.253V51.0729H392.22V78.0397ZM366.665 76.6284H390.771V52.5223H366.665V76.6284Z" fill="#0B0450"/>
<path d="M390.962 51.3031L365.421 76.8442L366.419 77.8422L391.96 52.301L390.962 51.3031Z" fill="#0B0450"/>
<path d="M366.42 51.3023L365.423 52.3002L390.964 77.8413L391.962 76.8434L366.42 51.3023Z" fill="#0B0450"/>
<path d="M392.22 52.5223H365.253V25.5555H392.22V52.5223ZM366.665 51.0729H390.771V26.9668H366.665V51.0729Z" fill="#0B0450"/>
<path d="M390.956 25.7498L365.415 51.291L366.413 52.2889L391.954 26.7477L390.956 25.7498Z" fill="#0B0450"/>
<path d="M366.415 25.749L365.417 26.7469L390.958 52.2881L391.956 51.2902L366.415 25.749Z" fill="#0B0450"/>
<path d="M392.22 26.9668H365.253V0H392.22V26.9668ZM366.665 25.5174H390.771V1.41128H366.665V25.5174Z" fill="#0B0450"/>
<path d="M390.951 0.196572L365.41 25.7377L366.407 26.7356L391.949 1.19449L390.951 0.196572Z" fill="#0B0450"/>
<path d="M366.435 0.22555L365.437 1.22345L390.978 26.7646L391.976 25.7667L366.435 0.22555Z" fill="#0B0450"/>
<path d="M417.737 52.5223H390.771V25.5555H417.737V52.5223ZM392.22 51.0729H416.326V26.9668H392.22V51.0729Z" fill="#0B0450"/>
<path d="M416.509 25.7442L390.968 51.2854L391.966 52.2833L417.507 26.7422L416.509 25.7442Z" fill="#0B0450"/>
<path d="M391.968 25.7434L390.97 26.7413L416.511 52.2825L417.509 51.2846L391.968 25.7434Z" fill="#0B0450"/>
<path d="M366.665 52.5223H339.698V25.5555H366.665V52.5223ZM341.109 51.0729H365.215V26.9668H341.109V51.0729Z" fill="#0B0450"/>
<path d="M365.433 25.7296L339.891 51.2708L340.889 52.2687L366.43 26.7275L365.433 25.7296Z" fill="#0B0450"/>
<path d="M340.862 25.7546L339.864 26.7525L365.405 52.2937L366.403 51.2958L340.862 25.7546Z" fill="#0B0450"/>
<path d="M341.109 52.5223H314.142V25.5555H341.109V52.5223ZM315.554 51.0729H339.66V26.9668H315.554V51.0729Z" fill="#0B0450"/>
<path d="M339.879 25.7352L314.338 51.2764L315.336 52.2743L340.877 26.7331L339.879 25.7352Z" fill="#0B0450"/>
<path d="M315.335 25.7333L314.337 26.7312L339.879 52.2724L340.877 51.2745L315.335 25.7333Z" fill="#0B0450"/>
<path d="M315.744 52.5223H287.748L315.744 24.5257V52.5223ZM291.219 51.0729H314.333V27.9585L291.219 51.0729Z" fill="#0B0450"/>
<path d="M314.514 25.7325L288.973 51.2736L289.97 52.2715L315.512 26.7304L314.514 25.7325Z" fill="#0B0450"/>
<path d="M290.227 64.5754H288.777V154.668H290.227V64.5754Z" fill="#0B0450"/>
<path d="M294.461 161.496H285.459C282.903 161.496 280.806 159.398 280.806 156.842V147.841C280.806 145.285 282.903 143.187 285.459 143.187H294.461C297.016 143.187 299.114 145.285 299.114 147.841V156.842C299.152 159.398 297.054 161.496 294.461 161.496Z" fill="#0B0450"/>
<path d="M286.832 181.025C281.034 181.025 277.792 176.066 277.258 171.451L278.67 171.26C279.165 175.265 281.912 179.575 286.832 179.575C286.87 179.575 286.87 179.575 286.87 179.575C290.723 179.537 294.842 176.715 294.842 172.519C294.842 167.484 289.731 165.386 289.693 165.386L289.235 165.195V158.559H290.685V164.242C292.096 164.928 296.291 167.408 296.291 172.519C296.291 177.706 291.409 180.987 286.87 180.987C286.87 181.025 286.87 181.025 286.832 181.025Z" fill="#0B0450"/>
<path d="M340.728 72.0131H266.617C261.849 72.0131 257.92 68.1226 257.92 63.3166C257.92 58.5488 261.811 54.6201 266.617 54.6201H340.728C345.495 54.6201 349.424 58.5107 349.424 63.3166C349.424 68.0844 345.495 72.0131 340.728 72.0131Z" fill="#978CFF"/>
<path d="M480.215 334.892H364.338C356.29 334.892 349.691 328.293 349.691 320.245V313.685C349.691 305.636 356.29 299.038 364.338 299.038H480.215C488.263 299.038 494.862 305.636 494.862 313.685V320.245C494.862 328.293 488.263 334.892 480.215 334.892Z" fill="#8888CF"/>
<path d="M462.402 313.418H403.815C402.061 313.418 400.611 311.968 400.611 310.214C400.611 308.459 402.061 307.01 403.815 307.01H462.402C464.157 307.01 465.606 308.459 465.606 310.214C465.606 312.006 464.157 313.418 462.402 313.418Z" fill="white"/>
<path d="M435.016 325.928H403.777C402.023 325.928 400.573 324.479 400.573 322.724C400.573 320.97 402.023 319.52 403.777 319.52H435.016C436.771 319.52 438.22 320.97 438.22 322.724C438.258 324.479 436.809 325.928 435.016 325.928Z" fill="white"/>
<path d="M376.086 328.827C382.111 328.827 386.995 323.943 386.995 317.918C386.995 311.894 382.111 307.01 376.086 307.01C370.061 307.01 365.177 311.894 365.177 317.918C365.177 323.943 370.061 328.827 376.086 328.827Z" fill="white"/>
<path d="M232.25 263.756C231.602 264.023 230.953 264.29 230.305 264.595C231.335 256.547 231.335 248.423 231.678 240.298C231.792 237.743 230.991 232.326 233.28 231.182C236.255 229.695 239.802 232.746 242.816 231.373C246.248 229.847 245.6 225.842 246.248 222.791C246.821 220.235 250.253 207.877 254.068 214.018C259.827 210.318 264.786 202.041 271.957 200.973C273.253 200.783 274.779 201.278 275.389 202.461C275.733 203.147 275.733 203.987 275.656 204.749C275.466 206.618 274.855 208.411 273.902 210.013C273.292 211.081 272.491 212.111 272.109 213.293C271.728 214.476 271.88 215.963 272.834 216.726C273.673 217.413 274.855 217.336 275.923 217.527C276.991 217.718 278.174 218.481 278.059 219.549C278.021 219.968 277.754 220.35 277.525 220.693C266.731 236.675 261.62 256.204 246.325 268.791C243.998 270.698 241.404 272.491 238.429 272.834C234.92 273.215 231.487 271.499 228.97 269.02C226.491 266.54 224.812 263.375 223.21 260.247" fill="#0B0450"/>
<path d="M271.613 290.685C278.403 289.273 285.573 287.481 290.303 282.408C286.374 281.759 282.446 281.149 278.517 280.5C277.983 280.424 277.411 280.31 277.068 279.852C276.572 279.127 277.144 278.174 277.792 277.563C281.836 273.673 287.824 272.719 292.897 270.278C294.384 269.554 295.986 268.486 296.253 266.845C296.52 265.129 295.109 263.489 293.469 262.879C291.829 262.306 289.998 262.497 288.243 262.688C291.638 258.492 294.995 254.335 298.389 250.177C299 249.414 299.648 248.575 299.763 247.583C299.953 245.524 297.436 244.074 295.414 244.494C293.393 244.913 291.867 246.515 290.456 248.003C293.545 241.595 295.872 234.806 297.36 227.826C297.817 225.69 298.046 223.134 296.444 221.646C294.842 220.235 292.172 220.769 290.608 222.219C289.044 223.668 288.243 225.766 287.404 227.711C285.04 233.166 281.874 238.277 277.983 242.777C277.525 243.273 277.068 243.807 276.419 244.036C274.474 244.723 272.834 242.282 272.681 240.222C272.529 238.162 272.872 235.797 271.499 234.234C269.935 232.479 266.845 232.937 265.167 234.615C263.489 236.255 262.802 238.658 262.192 240.947C261.162 244.799 260.132 248.613 259.141 252.466C257.501 251.054 255.746 249.605 253.648 248.995C251.55 248.384 248.995 248.88 247.812 250.711C247.202 251.665 247.049 252.771 246.821 253.877C244.914 263.374 237.857 271.156 235.454 280.539C233.661 287.557 236.103 296.825 244.875 296.024C253.534 295.338 262.993 292.477 271.613 290.685Z" fill="#FF9A9A"/>
<path d="M239.726 293.545C239.535 293.545 239.345 293.469 239.23 293.316C238.963 293.011 238.963 292.592 239.268 292.287L280.157 253.076C280.462 252.809 280.882 252.809 281.187 253.076C281.454 253.381 281.454 253.801 281.149 254.106L240.222 293.355C240.069 293.469 239.917 293.545 239.726 293.545Z" fill="white"/>
<path d="M253.877 279.966C253.839 279.966 253.801 279.966 253.763 279.966C253.381 279.928 253.114 279.547 253.152 279.165L255.746 260.59C255.784 260.209 256.166 259.942 256.547 259.98C256.928 260.018 257.195 260.399 257.157 260.781L254.564 279.356C254.564 279.699 254.258 279.966 253.877 279.966Z" fill="white"/>
<path d="M264.976 269.325C264.633 269.325 264.328 269.058 264.29 268.714C264.214 268.333 264.481 267.952 264.862 267.875L280.5 265.205C280.882 265.129 281.263 265.396 281.34 265.777C281.416 266.159 281.149 266.54 280.767 266.617L265.129 269.287C265.091 269.325 265.015 269.325 264.976 269.325Z" fill="white"/>
<path d="M234.882 261.391C234.729 261.391 234.577 261.353 234.462 261.238C234.157 261.01 234.081 260.552 234.31 260.247L261.506 223.325C261.734 223.02 262.192 222.943 262.497 223.172C262.802 223.401 262.879 223.859 262.65 224.164L235.454 261.086C235.302 261.277 235.111 261.391 234.882 261.391Z" fill="white"/>
<path d="M252.237 237.819C252.161 237.819 252.122 237.819 252.046 237.781C251.665 237.666 251.436 237.285 251.55 236.904L255.784 220.655C255.899 220.273 256.28 220.045 256.661 220.159C257.043 220.273 257.272 220.655 257.157 221.036L252.923 237.285C252.847 237.59 252.58 237.819 252.237 237.819Z" fill="white"/>
<path d="M239.764 317.27H85.5157C80.4809 317.27 76.3233 313.151 76.3233 308.078V196.396C76.3233 191.361 80.4427 187.204 85.5157 187.204H239.764C244.799 187.204 248.957 191.323 248.957 196.396V308.116C248.957 313.151 244.837 317.27 239.764 317.27Z" fill="#8888CF"/>
<path d="M235.302 306.399H89.2537C84.3714 306.399 80.4046 302.433 80.4046 297.55V201.698C80.4046 196.816 84.3714 192.849 89.2537 192.849H235.263C240.146 192.849 244.113 196.816 244.113 201.698V297.588C244.151 302.432 240.146 306.399 235.302 306.399Z" fill="#E3E6FF"/>
<path d="M171.756 311.32H159.665C159.36 311.32 159.131 311.091 159.131 310.786C159.131 310.481 159.36 310.252 159.665 310.252H171.756C172.061 310.252 172.29 310.481 172.29 310.786C172.29 311.091 172.061 311.32 171.756 311.32Z" fill="#E3E6FF"/>
<path d="M85.5538 191.59C86.2279 191.59 86.7744 191.044 86.7744 190.37C86.7744 189.695 86.2279 189.149 85.5538 189.149C84.8797 189.149 84.3333 189.695 84.3333 190.37C84.3333 191.044 84.8797 191.59 85.5538 191.59Z" fill="#E3E6FF"/>
<path d="M90.7412 191.59C91.4153 191.59 91.9617 191.044 91.9617 190.37C91.9617 189.695 91.4153 189.149 90.7412 189.149C90.0671 189.149 89.5206 189.695 89.5206 190.37C89.5206 191.044 90.0671 191.59 90.7412 191.59Z" fill="white"/>
<path d="M95.9667 191.59C96.6408 191.59 97.1872 191.044 97.1872 190.37C97.1872 189.695 96.6408 189.149 95.9667 189.149C95.2926 189.149 94.7461 189.695 94.7461 190.37C94.7461 191.044 95.2926 191.59 95.9667 191.59Z" fill="#0B0450"/>
<path d="M169.467 257.195H96.1955C95.3945 257.195 94.7461 256.547 94.7461 255.746C94.7461 254.945 95.3945 254.297 96.1955 254.297H169.467C170.268 254.297 170.917 254.945 170.917 255.746C170.917 256.547 170.268 257.195 169.467 257.195Z" fill="white"/>
<path d="M169.467 263.756H96.1955C95.3945 263.756 94.7461 263.107 94.7461 262.306C94.7461 261.506 95.3945 260.857 96.1955 260.857H169.467C170.268 260.857 170.917 261.506 170.917 262.306C170.917 263.107 170.268 263.756 169.467 263.756Z" fill="white"/>
<path d="M169.467 270.316H96.1955C95.3945 270.316 94.7461 269.668 94.7461 268.867C94.7461 268.066 95.3945 267.418 96.1955 267.418H169.467C170.268 267.418 170.917 268.066 170.917 268.867C170.917 269.668 170.268 270.316 169.467 270.316Z" fill="white"/>
<path d="M169.467 277.678H96.1955C95.3945 277.678 94.7461 277.03 94.7461 276.229C94.7461 275.428 95.3945 274.779 96.1955 274.779H169.467C170.268 274.779 170.917 275.428 170.917 276.229C170.917 277.068 170.268 277.678 169.467 277.678Z" fill="white"/>
<path d="M169.467 284.238H96.1955C95.3945 284.238 94.7461 283.59 94.7461 282.789C94.7461 281.988 95.3945 281.34 96.1955 281.34H169.467C170.268 281.34 170.917 281.988 170.917 282.789C170.917 283.59 170.268 284.238 169.467 284.238Z" fill="white"/>
<path d="M169.467 290.799H96.1955C95.3945 290.799 94.7461 290.151 94.7461 289.35C94.7461 288.549 95.3945 287.9 96.1955 287.9H169.467C170.268 287.9 170.917 288.549 170.917 289.35C170.917 290.151 170.268 290.799 169.467 290.799Z" fill="white"/>
<path d="M111.91 241.709H153.753C163.174 241.709 170.917 234.005 170.917 224.545V221.494C170.917 212.073 163.212 204.33 153.753 204.33H111.91C102.489 204.33 94.7461 212.035 94.7461 221.494V224.545C94.7843 233.967 102.489 241.709 111.91 241.709Z" fill="white"/>
<path d="M204.177 269.744H212.607C222.028 269.744 229.771 262.039 229.771 252.58V221.456C229.771 212.035 222.066 204.292 212.607 204.292H204.177C194.756 204.292 187.013 211.996 187.013 221.456V252.58C187.013 262.039 194.718 269.744 204.177 269.744Z" fill="white"/>
<path d="M194.718 289.083H222.028C226.262 289.083 229.733 285.612 229.733 281.378C229.733 277.144 226.262 273.673 222.028 273.673H194.718C190.484 273.673 187.013 277.144 187.013 281.378C187.013 285.65 190.484 289.083 194.718 289.083Z" fill="white"/>
</svg>
