<svg width="240" height="237" viewBox="0 0 240 237" fill="none" xmlns="http://www.w3.org/2000/svg">
<path d="M151.036 234.53H122.29C116.738 234.53 112.176 229.492 112.176 223.307V166.219C112.176 160.058 116.716 154.995 122.29 154.995H151.036C156.588 154.995 161.15 160.033 161.15 166.219V223.307C161.128 229.492 156.588 234.53 151.036 234.53Z" fill="#8888CF"/>
<path d="M202.865 234.53H174.118C168.567 234.53 164.004 229.492 164.004 223.307V120.977C164.004 114.817 168.545 109.754 174.118 109.754H202.865C208.416 109.754 212.979 114.792 212.979 120.977V223.307C212.979 229.492 208.416 234.53 202.865 234.53Z" fill="#0B0450"/>
<path d="M99.2972 234.53H70.551C64.9995 234.53 60.437 229.492 60.437 223.307V188.64C60.437 182.48 64.977 177.417 70.551 177.417H99.2972C104.849 177.417 109.411 182.455 109.411 188.64V223.307C109.411 229.492 104.849 234.53 99.2972 234.53Z" fill="#E3E6FF"/>
<path d="M229.408 79.576H176.546C170.994 79.576 166.432 74.538 166.432 68.3528V55.8328C166.432 49.6725 170.972 44.6096 176.546 44.6096H229.408C234.96 44.6096 239.522 49.6476 239.522 55.8328V68.3528C239.522 74.5131 234.96 79.576 229.408 79.576Z" fill="#E3E6FF"/>
<path d="M216.575 67.9537H163.712C158.161 67.9537 153.598 62.9157 153.598 56.7305V29.2712C153.598 23.111 158.138 18.0481 163.712 18.0481H216.575C222.126 18.0481 226.689 23.086 226.689 29.2712V56.7305C226.689 62.8908 222.149 67.9537 216.575 67.9537Z" fill="#8888CF"/>
<path d="M167.96 53.7876C173.309 61.9431 183.581 63.7387 190.93 57.8279L171.601 28.2986C164.252 34.2094 162.633 45.6321 167.96 53.7876Z" fill="white"/>
<path d="M173.332 26.902L182.187 40.4197L194.616 30.3936C189.582 23.0113 180.119 21.4401 173.332 26.902Z" fill="white"/>
<path d="M196.055 32.5884C195.987 32.4886 195.92 32.4138 195.852 32.3141L183.423 42.3401L192.638 56.4064C199.538 50.8946 201.044 40.2201 196.055 32.5884Z" fill="white"/>
<path d="M218.8 38.2249H205.135C204.438 38.2249 203.876 37.6014 203.876 36.8282C203.876 36.0551 204.438 35.4066 205.135 35.4066H218.8C219.497 35.4066 220.081 36.0301 220.081 36.8282C220.081 37.6014 219.497 38.2249 218.8 38.2249Z" fill="white"/>
<path d="M218.8 43.0133H205.135C204.438 43.0133 203.876 42.3897 203.876 41.6166C203.876 40.8434 204.438 40.22 205.135 40.22H218.8C219.497 40.22 220.081 40.8434 220.081 41.6166C220.081 42.3648 219.497 43.0133 218.8 43.0133Z" fill="white"/>
<path d="M218.8 47.802H205.135C204.438 47.802 203.876 47.1785 203.876 46.3804C203.876 45.6073 204.438 44.9838 205.135 44.9838H218.8C219.497 44.9838 220.081 45.6073 220.081 46.3804C220.081 47.1536 219.497 47.802 218.8 47.802Z" fill="white"/>
<path d="M218.8 52.5904H205.135C204.438 52.5904 203.876 51.9669 203.876 51.1688C203.876 50.3957 204.438 49.7722 205.135 49.7722H218.8C219.497 49.7722 220.081 50.3957 220.081 51.1688C220.081 51.942 219.497 52.5904 218.8 52.5904Z" fill="white"/>
<path d="M55.8294 122.722H6.6528C2.98928 122.722 0 119.405 0 115.34V113.644C0 109.579 2.98928 106.262 6.6528 106.262H55.8294C59.4929 106.262 62.4822 109.579 62.4822 113.644V115.34C62.4822 119.405 59.4929 122.722 55.8294 122.722Z" fill="#E3E6FF"/>
<path d="M55.2676 114.991L55.2226 115.066C55.1102 115.216 54.8854 115.241 54.7506 115.116L50.4578 111.225C50.323 111.101 50.3004 110.851 50.4128 110.701L50.4578 110.627C50.5702 110.477 50.7949 110.452 50.9297 110.577L55.2451 114.467C55.3799 114.592 55.4024 114.842 55.2676 114.991Z" fill="white"/>
<path d="M55.2676 114.592L55.2226 114.517C55.1102 114.368 54.8854 114.343 54.7506 114.467L50.4578 118.358C50.323 118.483 50.3004 118.732 50.4128 118.882L50.4578 118.957C50.5702 119.106 50.7949 119.131 50.9297 119.007L55.2451 115.116C55.3799 114.991 55.4024 114.742 55.2676 114.592Z" fill="white"/>
<path d="M63.4486 141.029H30.5668C28.117 141.029 26.1166 138.809 26.1166 136.091V134.968C26.1166 132.25 28.117 130.03 30.5668 130.03H63.4486C65.8984 130.03 67.8987 132.25 67.8987 134.968V136.091C67.8987 138.809 65.8984 141.029 63.4486 141.029Z" fill="#8888CF"/>
<path d="M63.0665 135.866L63.0441 135.916C62.9542 136.016 62.8193 136.041 62.7294 135.941L59.8525 133.347C59.7626 133.247 59.7401 133.098 59.8301 132.998L59.8525 132.948C59.9424 132.848 60.0773 132.823 60.1672 132.923L63.0441 135.517C63.134 135.617 63.1564 135.766 63.0665 135.866Z" fill="white"/>
<path d="M63.0665 135.592L63.0441 135.542C62.9542 135.442 62.8193 135.417 62.7294 135.517L59.8525 138.111C59.7626 138.186 59.7401 138.36 59.8301 138.46L59.8525 138.51C59.9424 138.609 60.0773 138.634 60.1672 138.535L63.0441 135.941C63.134 135.866 63.1564 135.691 63.0665 135.592Z" fill="white"/>
<path d="M57.0205 218.444C56.0091 217.82 54.5033 218.169 54.0313 219.341C52.6828 216.573 53.357 213.181 53.6942 210.064C53.8066 208.941 53.874 207.744 53.4469 206.722C52.9974 205.699 51.8961 204.951 50.9521 205.375C49.0192 206.223 49.626 210.513 47.5583 210.762C46.3895 210.912 45.6254 209.49 44.9736 208.393C44.0746 206.896 42.7935 205.674 41.3101 204.901C40.7932 204.627 40.0964 204.452 39.7143 204.926C39.3547 205.375 39.512 206.048 39.7143 206.597C40.3886 208.467 41.1977 210.263 42.1192 211.959C42.2541 212.208 42.3889 212.458 42.344 212.732C42.2316 213.356 41.4 213.256 40.8606 213.007C38.9502 212.134 37.0397 211.236 35.1068 210.363C34.5674 210.912 34.7922 211.959 35.2642 212.583C35.7362 213.206 36.3879 213.68 36.7925 214.378C37.3768 215.426 37.197 216.773 37.3319 218.02C37.4667 219.242 38.2309 220.663 39.3547 220.514C38.4557 220.987 38.4107 222.509 39.04 223.382C39.6694 224.255 40.6584 224.654 41.5798 225.078C42.5013 225.502 43.4902 226.05 43.8723 227.073C44.2094 227.946 44.0521 228.943 44.2319 229.866C45.1534 234.929 51.5815 236.899 54.2561 232.884C56.0766 230.091 61.0212 220.938 57.0205 218.444Z" fill="#978CFF"/>
<path d="M32.8368 232.909C32.4772 232.485 32.1176 231.986 32.1625 231.412C32.2075 230.664 32.9942 230.19 33.6684 230.34C34.3202 230.49 34.8372 231.113 35.1518 231.762C35.1968 230.864 35.3991 229.991 35.7362 229.193C35.8711 228.869 36.1183 228.519 36.4105 228.594C36.5903 228.644 36.7026 228.819 36.7925 228.993C37.1521 229.716 37.2195 230.589 36.9948 231.387C37.3993 229.816 38.5906 228.544 40.0066 228.145C40.1864 228.095 40.3886 228.07 40.546 228.145C40.9281 228.37 40.8157 228.968 40.6359 229.417C39.8492 231.437 38.9727 233.906 37.3769 235.353C35.8261 236.775 33.8257 234.106 32.8368 232.909Z" fill="#FF9A9A"/>
<path d="M51.6489 235.528C51.4691 235.528 51.2893 235.378 51.2444 235.179L46.5469 215.625C46.4795 215.376 46.6144 215.127 46.8391 215.052C47.0639 214.977 47.2886 215.127 47.356 215.376L52.0534 234.929C52.1208 235.179 51.986 235.428 51.7613 235.503C51.7163 235.528 51.6938 235.528 51.6489 235.528Z" fill="white"/>
<path d="M48.7047 223.307C48.6372 223.307 48.5698 223.282 48.5249 223.257L42.3441 219.84C42.1418 219.716 42.0519 219.441 42.1642 219.217C42.2766 218.992 42.5238 218.893 42.7261 219.017L48.9069 222.434C49.1092 222.559 49.1992 222.833 49.0868 223.058C49.0194 223.207 48.862 223.307 48.7047 223.307Z" fill="white"/>
<path d="M50.3455 230.141C50.278 230.141 50.2105 230.116 50.1431 230.091C49.9408 229.966 49.851 229.692 49.9633 229.467L52.5255 223.955C52.6379 223.731 52.8851 223.631 53.0874 223.756C53.2897 223.881 53.3797 224.155 53.2673 224.379L50.705 229.891C50.66 230.041 50.5028 230.141 50.3455 230.141Z" fill="white"/>
<path d="M200.932 217.147C200.887 216.947 200.842 216.748 200.797 216.548C200.303 214.029 200.932 211.136 202.797 209.59C204.618 208.068 207.54 207.769 208.236 205.375C208.731 203.679 207.742 201.933 207.068 200.312C206.393 198.691 206.169 196.371 207.562 195.473C208.708 194.75 210.237 195.523 211.45 194.95C213.518 193.977 213.203 190.086 215.249 189.039C216.575 188.365 218.193 189.338 219.609 188.939C221.677 188.341 222.216 185.298 221.699 183.003C221.205 180.709 220.081 178.489 220.328 176.145C221.003 169.76 234.578 165.121 234.825 173.626C234.892 175.97 233.477 177.99 232.69 180.16C231.903 182.33 232.038 185.447 234.016 186.246C235.364 186.794 237.207 186.096 238.039 187.393C239.567 189.787 234.331 191.633 234.645 194.551C234.848 196.546 237.365 196.92 238.601 198.391C240.219 200.337 239.028 203.654 237.095 205.175C235.162 206.697 232.69 207.146 230.555 208.293C229.701 208.767 228.824 209.44 228.577 210.438C228.015 212.732 230.69 214.204 232.802 214.553C234.915 214.902 237.657 215.8 237.657 218.169C237.657 220.065 235.747 221.212 234.083 221.636C232.42 222.06 230.487 222.384 229.543 223.955C228.644 225.477 229.071 227.497 228.577 229.243C227.476 233.158 215.901 235.553 212.327 234.58C206.686 233.059 208.236 227.796 204.281 223.082C202.82 221.386 201.516 219.416 200.932 217.147Z" fill="#FF9A9A"/>
<path d="M210.776 229.368C211.833 226.599 211.518 223.482 211.203 220.489C211.091 219.491 210.978 218.469 210.506 217.596C210.034 216.748 209.113 216.099 208.237 216.349C207.113 216.673 206.483 218.294 205.315 218.369C204.416 218.444 203.696 217.521 203.427 216.548C202.887 214.678 203.562 212.682 203.562 210.712C203.562 208.742 202.325 206.397 200.595 206.797C198.797 207.196 198.55 209.914 198.909 211.909C199.066 212.807 199.179 213.979 198.46 214.453C197.695 214.952 196.796 214.229 196.145 213.555C194.886 212.283 193.515 211.136 192.076 210.114C191.425 209.64 190.503 209.241 189.919 209.789C189.335 210.338 189.537 211.361 189.829 212.134C190.436 213.705 191.312 215.152 192.391 216.374C192.931 216.997 193.56 217.945 193.065 218.593C192.661 219.117 191.897 218.893 191.312 218.643C190.054 218.07 186.84 212.408 187.469 218.618C188.098 224.803 194.077 224.205 197.538 226.749C196.077 227.871 196.055 230.415 197.044 232.036C198.033 233.657 199.741 234.555 201.404 235.204C206.506 237.199 208.686 234.929 210.776 229.368Z" fill="#F44E4E"/>
<path d="M207.517 235.004C207.382 235.004 207.247 234.929 207.158 234.779L198.325 219.042C198.212 218.818 198.257 218.543 198.46 218.394C198.662 218.269 198.909 218.319 199.044 218.543L207.877 234.281C208.012 234.505 207.944 234.779 207.742 234.929C207.674 234.979 207.607 235.004 207.517 235.004Z" fill="white"/>
<path d="M204.64 229.866C204.595 229.866 204.573 229.866 204.528 229.841C204.303 229.766 204.168 229.517 204.236 229.268L205.786 222.783C205.854 222.534 206.079 222.384 206.303 222.459C206.528 222.534 206.663 222.783 206.596 223.033L205.045 229.517C205 229.741 204.82 229.866 204.64 229.866Z" fill="white"/>
<path d="M200.999 223.382C200.977 223.382 200.954 223.382 200.932 223.382L196.077 222.534C195.852 222.484 195.695 222.259 195.718 222.01C195.763 221.76 195.965 221.586 196.212 221.611L201.067 222.459C201.291 222.509 201.449 222.733 201.426 222.983C201.381 223.232 201.202 223.382 200.999 223.382Z" fill="white"/>
<path d="M211.743 236.625C211.698 236.625 211.653 236.625 211.608 236.6C211.383 236.525 211.271 236.251 211.338 236.002L225.34 190.909C225.408 190.66 225.655 190.535 225.88 190.61C226.105 190.685 226.217 190.959 226.149 191.209L212.147 236.301C212.102 236.5 211.922 236.625 211.743 236.625Z" fill="white"/>
<path d="M217.496 219.267C217.294 219.267 217.092 219.092 217.069 218.843C217.047 218.593 217.204 218.369 217.451 218.344L226.576 217.321C226.801 217.296 227.003 217.471 227.026 217.745C227.048 217.995 226.891 218.219 226.644 218.269L217.519 219.292C217.519 219.267 217.496 219.267 217.496 219.267Z" fill="white"/>
<path d="M221.25 205.973C221.048 205.973 220.868 205.824 220.845 205.599C220.8 205.35 220.958 205.1 221.182 205.05L228.914 203.479C229.139 203.429 229.363 203.604 229.408 203.853C229.453 204.103 229.296 204.352 229.071 204.402L221.34 205.973C221.317 205.973 221.295 205.973 221.25 205.973Z" fill="white"/>
<path d="M219.384 211.984C219.272 211.984 219.16 211.934 219.07 211.834L212.664 204.227C212.507 204.028 212.507 203.754 212.687 203.554C212.866 203.38 213.114 203.38 213.271 203.579L219.676 211.186C219.834 211.385 219.834 211.66 219.654 211.834C219.587 211.959 219.474 211.984 219.384 211.984Z" fill="white"/>
<path d="M99.4769 79.6258L80.6199 85.6613C78.8668 86.21 77.0464 85.0877 76.5294 83.1673L72.6636 68.278C72.1691 66.3326 73.1805 64.3125 74.9111 63.7388L93.7681 57.7032C95.5212 57.1545 97.3418 58.2769 97.8587 60.1973L101.724 75.0867C102.241 77.032 101.23 79.0522 99.4769 79.6258Z" fill="#FF9A9A"/>
<path d="M73.6976 65.7091L94.1729 38.2249L96.8024 44.6095L92.8018 44.9836L76.5969 65.7091H73.6976Z" fill="#FF9A9A"/>
<path d="M119.795 136.914L116.536 149.434L112.401 148.735L116.536 135.891C116.536 135.891 118.851 135.916 119.795 136.914Z" fill="#EAC2AB"/>
<path d="M133.19 152.377C133.19 152.377 130.246 153.574 124.56 154.247C118.873 154.92 111.232 154.571 109.861 154.097C107.793 153.399 109.052 146.341 110.962 146.266C112.872 146.191 113.727 149.01 116.986 146.316C119.773 143.997 122.245 148.012 127.302 148.91C132.336 149.783 134.382 150.132 133.19 152.377Z" fill="#FF9A9A"/>
<path d="M124.83 137.537C125.706 127.262 128.898 112.647 126.897 102.296C124.874 91.7716 118.109 88.1553 111.367 80.6482C104.422 72.8918 104.444 80.2991 104.444 80.2991L103.815 82.5188C107.096 85.5615 97.5666 87.5567 100.758 90.6992C104.197 94.0661 106.916 95.7621 110.243 99.2537C114.491 103.718 116.783 101.798 116.311 108.357C116.176 110.227 113.187 127.212 112.311 134.345C111.299 142.625 106.175 140.106 119.975 142.725C128.56 144.396 124.29 143.972 124.83 137.537Z" fill="#0B0450"/>
<path d="M91.2285 156.367L91.0711 169.162L86.9356 169.536L87.8796 156.217C87.8796 156.193 90.1047 155.644 91.2285 156.367Z" fill="#EAC2AB"/>
<path d="M107.523 173.85C107.523 173.85 104.556 174.848 98.9151 175.172C93.2737 175.496 86.9581 175.596 85.8343 174.698C84.7105 173.8 84.1037 166.418 85.9692 166.443C87.8572 166.468 88.5314 169.311 91.9027 166.867C94.7796 164.772 96.9822 168.887 101.904 170.059C106.827 171.231 108.827 171.705 107.523 173.85Z" fill="#FF9A9A"/>
<path d="M100.129 162.029C100.017 161.555 99.5894 161.131 99.2074 160.707C95.836 156.816 97.5891 152.077 98.8927 147.912C102.017 138.011 102.084 127.486 103.163 117.236C104.197 107.21 106.759 97.4331 110.513 88.1553C111.884 84.7884 113.861 79.5509 108.445 79.6507C105.883 79.7005 103.455 79.1768 101.05 78.3039C99.7917 77.83 101.185 77.6305 99.7918 77.8301C95.0269 78.5284 91.9028 87.1079 92.3298 90.3501C93.1839 96.8346 92.8242 102.845 92.0601 109.404C90.9812 118.707 90.9588 128.209 88.4191 137.213C87.1829 141.627 85.8343 145.992 84.5307 150.381C83.7666 152.925 80.7324 158.312 81.7663 160.906C83.1822 164.498 92.2849 163.251 95.1843 163.675C97.3869 163.999 100.511 163.675 100.129 162.029Z" fill="#0B0450"/>
<path d="M109.658 31.1169L108.4 40.6192C106.197 41.2925 103.86 42.5895 101.545 42.5895C101.657 40.8187 103.32 38.7985 104.084 37.1525C105.006 35.1323 105.658 33.0373 105.568 30.7927C105.298 24.8569 109.658 31.1169 109.658 31.1169Z" fill="#D4A79A"/>
<path d="M113.547 12.6859C113.547 12.6859 117.143 15.2299 115.232 21.2904C113.187 27.7748 110.243 33.2118 108.355 32.6382C103.118 31.0919 101.567 27.0266 99.9939 23.535C98.061 19.2452 103.343 9.61833 103.343 9.61833L107.771 7.59814L113.547 12.6859Z" fill="#EAC2AB"/>
<path d="M120.222 12.2871C120.739 10.9403 120.155 8.39636 119.256 7.44862C118.896 7.07452 118.447 6.82514 117.975 6.85008C117.615 6.85008 117.255 6.99971 116.896 6.89995C115.862 6.62561 115.862 5.70284 114.895 5.30379C114.176 5.00451 113.434 5.62803 112.67 5.75273C112.086 5.85249 111.524 5.62798 110.962 5.4534C109.389 4.97953 107.973 4.05674 106.355 3.70758C104.984 3.40829 103.545 3.45819 102.242 4.03181C100.871 4.65532 99.8367 5.90234 99.2299 7.39876C98.8703 8.29661 98.6904 9.31916 98.8478 10.2669C98.7129 9.4688 97.2969 10.1921 97.0497 10.4914C96.1057 11.6137 93.7009 14.9058 94.038 16.3274C94.3077 17.4747 93.4761 18.4972 93.7009 19.6445C93.9931 21.0162 97.4318 21.7893 98.0611 23.0363C98.7803 24.4579 100.331 25.3059 101.77 25.0315C101.432 23.7596 101.118 22.4877 101.14 21.1409C101.163 19.8191 99.9491 13.7087 106.31 12.9605C108.827 12.6612 111.659 15.0804 114.154 15.3797C115.322 15.5293 116.536 15.4046 117.682 15.0305C118.581 14.7312 119.503 13.4842 120.065 12.5614C120.132 12.4866 120.177 12.3868 120.222 12.2871Z" fill="#0B0450"/>
<path d="M116.199 11.6883C117.772 10.7656 118.222 8.67061 118.379 6.80008C118.559 4.77992 118.514 4.4058 116.873 2.9842C116.244 2.43552 114.67 1.83693 114.67 1.83693C110.692 0.365447 106.197 -0.70695 102.039 0.565006C98.2184 1.7372 95.5662 5.12908 94.2626 8.92001C93.5884 10.8404 93.2287 12.9104 93.2063 14.9556C93.2063 17.2002 94.0378 19.6942 92.6219 21.6645C93.1388 21.7144 93.6783 21.6395 94.1728 21.4899C91.9926 21.8391 88.7112 22.4377 88.6213 25.3307C88.5988 26.6027 89.3854 27.7001 90.0372 28.7476C90.7114 29.795 91.2958 31.1169 90.8238 32.2891C90.2394 33.7605 88.2167 34.3342 87.947 35.9304C87.6323 37.8009 89.3405 38.6488 90.0148 40.1203C90.8913 41.9659 90.0597 44.0858 89.8574 46.0062C89.6776 47.7022 91.1835 48.4753 92.15 49.4729C94.9819 52.3909 94.9593 55.708 91.8577 58.9502C91.7903 59.0251 91.8128 59.1498 91.8577 59.2246C91.9027 59.2994 92.0151 59.3493 92.105 59.3743C96.1281 60.4716 101.342 56.4313 102.264 52.4159C102.691 50.6202 101.612 48.9242 102.084 47.1784C102.579 45.3079 104.579 44.6096 105.927 43.5122C108.377 41.517 111.007 38.0752 110.647 34.6334C110.423 32.5384 109.793 30.1692 108.4 28.4483C107.186 26.9519 103.545 26.1288 103.568 23.8842C103.59 22.8866 104.354 22.1384 104.939 21.3403C106.399 19.3451 103.59 17.5992 104.983 16.5517C105.882 15.8783 106.939 15.4045 108.018 15.205C109.164 14.9805 110.355 14.7809 111.254 13.933C112.086 13.1349 113.254 11.3642 114.536 11.4889C116.154 11.6385 118.019 11.2145 118.851 9.76796" fill="#0B0450"/>
<path d="M111.569 59.075C110.985 53.3387 113.659 44.2106 110.445 39.5717C110.108 39.0978 109.748 38.624 109.276 38.2997C103.208 34.3592 99.0275 40.4945 97.0721 45.8816C95.3865 50.5703 95.5887 54.8601 95.4763 59.7484C95.2741 67.9787 93.431 75.9845 91.0711 83.7908C90.2395 86.5841 90.0148 89.8264 92.3747 90.2504C95.5888 90.824 96.2855 86.7089 99.3422 85.6614C102.152 84.6887 104.399 85.2872 107.456 85.4618C108.984 85.5366 113.929 84.5141 113.637 81.5961C112.917 74.6627 111.839 68.677 111.816 63.8386C111.816 62.2674 111.726 60.6711 111.569 59.075Z" fill="#F9A0CF"/>
<path d="M103.365 44.0607C103.365 44.0607 101.612 52.5155 99.7691 62.8158C97.9261 73.1162 100.668 80.8976 100.668 80.8976C101.073 82.0448 101.477 83.1671 101.927 84.2645C102.803 86.4343 103.095 87.8809 102.736 90.2253C102.444 92.1956 103.051 93.9414 104.354 95.4378C105.298 96.5102 106.467 97.3333 107.276 98.5055C107.411 98.705 107.613 98.9045 107.815 98.8047C107.973 98.705 107.973 98.4805 107.95 98.281C107.681 96.5352 107.411 94.7644 107.164 93.0186C107.119 92.6694 107.051 92.3202 107.141 91.996C107.209 91.6468 107.456 91.3476 107.793 91.2728C108.197 91.1979 108.557 91.5222 108.827 91.7965C109.276 92.2455 109.568 93.8416 110.378 93.2181C110.715 91.6718 109.344 88.7787 108.49 87.5317C107.658 86.1101 106.062 86.4094 105.568 84.888C105.028 83.2669 104.489 81.6209 103.972 79.9998C100.308 63.7636 105.478 57.1045 105.478 57.1045C105.478 57.1045 104.354 56.057 105.163 47.9764C105.972 39.9206 103.365 44.0607 103.365 44.0607Z" fill="#EAC2AB"/>
<path d="M107.478 56.4313C107.478 56.4313 111.681 41.517 105.793 41.7913C99.904 42.0657 97.9712 59.2745 97.9712 59.2745L107.636 58.6759L107.478 56.4313Z" fill="#FE67AF"/>
</svg>
