<svg width="335" height="243" viewBox="0 0 335 243" fill="none" xmlns="http://www.w3.org/2000/svg">
<path d="M197.505 243C252.896 243 297.8 240.848 297.8 238.193C297.8 235.539 252.896 233.387 197.505 233.387C142.114 233.387 97.2103 235.539 97.2103 238.193C97.2103 240.848 142.114 243 197.505 243Z" fill="#E3E6FF"/>
<path d="M327.024 24.0584C327.024 17.7096 321.832 12.4918 315.458 12.4918H79.9375C73.5888 12.4918 68.371 17.6839 68.371 24.0584V50.3272H326.999L327.024 24.0584Z" fill="#8888CF"/>
<path d="M327.024 50.353H68.3967V207.401H327.024V50.353Z" fill="#E3E6FF"/>
<path d="M116.591 100.012H93.5604C90.1932 100.012 87.4687 97.2616 87.4687 93.9201V73.1004C87.4687 69.7332 90.2189 67.0087 93.5604 67.0087H116.591C119.958 67.0087 122.682 69.7589 122.682 73.1004V93.9201C122.682 97.2616 119.932 100.012 116.591 100.012Z" fill="white"/>
<path d="M178.047 100.012H155.017C151.676 100.012 148.925 97.2616 148.925 93.9201V73.1004C148.925 69.7332 151.676 67.0087 155.017 67.0087H178.047C181.415 67.0087 184.139 69.7589 184.139 73.1004V93.9201C184.165 97.2616 181.415 100.012 178.047 100.012Z" fill="white"/>
<path d="M239.53 100.012H216.5C213.133 100.012 210.408 97.2616 210.408 93.9201V73.1004C210.408 69.7332 213.158 67.0087 216.5 67.0087H239.53C242.897 67.0087 245.622 69.7589 245.622 73.1004V93.9201C245.622 97.2616 242.871 100.012 239.53 100.012Z" fill="white"/>
<path d="M300.987 100.012H277.957C274.589 100.012 271.865 97.2616 271.865 93.9201V73.1004C271.865 69.7332 274.615 67.0087 277.957 67.0087H300.987C304.354 67.0087 307.078 69.7589 307.078 73.1004V93.9201C307.104 97.2616 304.354 100.012 300.987 100.012Z" fill="white"/>
<path d="M116.591 144.427H93.5604C90.1932 144.427 87.4687 141.677 87.4687 138.336V117.516C87.4687 114.149 90.2189 111.424 93.5604 111.424H116.591C119.958 111.424 122.682 114.174 122.682 117.516V138.336C122.682 141.677 119.932 144.427 116.591 144.427Z" fill="white"/>
<path d="M178.047 144.427H155.017C151.676 144.427 148.925 141.677 148.925 138.336V117.516C148.925 114.149 151.676 111.424 155.017 111.424H178.047C181.415 111.424 184.139 114.174 184.139 117.516V138.336C184.165 141.677 181.415 144.427 178.047 144.427Z" fill="white"/>
<path d="M239.53 144.427H216.5C213.133 144.427 210.408 141.677 210.408 138.336V117.516C210.408 114.149 213.158 111.424 216.5 111.424H239.53C242.897 111.424 245.622 114.174 245.622 117.516V138.336C245.622 141.677 242.871 144.427 239.53 144.427Z" fill="white"/>
<path d="M300.987 144.427H277.957C274.589 144.427 271.865 141.677 271.865 138.336V117.516C271.865 114.149 274.615 111.424 277.957 111.424H300.987C304.354 111.424 307.078 114.174 307.078 117.516V138.336C307.104 141.677 304.354 144.427 300.987 144.427Z" fill="white"/>
<path d="M116.591 188.843H93.5604C90.1932 188.843 87.4687 186.092 87.4687 182.751V161.931C87.4687 158.564 90.2189 155.84 93.5604 155.84H116.591C119.958 155.84 122.682 158.59 122.682 161.931V182.751C122.682 186.092 119.932 188.843 116.591 188.843Z" fill="white"/>
<path d="M178.047 188.843H155.017C151.676 188.843 148.925 186.092 148.925 182.751V161.931C148.925 158.564 151.676 155.84 155.017 155.84H178.047C181.415 155.84 184.139 158.59 184.139 161.931V182.751C184.165 186.092 181.415 188.843 178.047 188.843Z" fill="white"/>
<path d="M239.53 188.843H216.5C213.133 188.843 210.408 186.092 210.408 182.751V161.931C210.408 158.564 213.158 155.84 216.5 155.84H239.53C242.897 155.84 245.622 158.59 245.622 161.931V182.751C245.622 186.092 242.871 188.843 239.53 188.843Z" fill="white"/>
<path d="M300.987 188.843H277.957C274.589 188.843 271.865 186.092 271.865 182.751V161.931C271.865 158.564 274.615 155.84 277.957 155.84H300.987C304.354 155.84 307.078 158.59 307.078 161.931V182.751C307.104 186.092 304.354 188.843 300.987 188.843Z" fill="white"/>
<path d="M127.078 38.5295C131.847 38.5295 135.714 34.6629 135.714 29.8932C135.714 25.1235 131.847 21.2568 127.078 21.2568C122.308 21.2568 118.441 25.1235 118.441 29.8932C118.441 34.6629 122.308 38.5295 127.078 38.5295Z" fill="#0B0450"/>
<path d="M127.412 33.6972C124.79 33.6972 122.657 31.5638 122.657 28.9421V4.75513C122.657 2.13338 124.79 0 127.412 0C130.033 0 132.167 2.13338 132.167 4.75513V28.9421C132.167 31.5638 130.033 33.6972 127.412 33.6972Z" fill="#F44E4E"/>
<path d="M174.012 38.5295C178.782 38.5295 182.648 34.6629 182.648 29.8932C182.648 25.1235 178.782 21.2568 174.012 21.2568C169.242 21.2568 165.376 25.1235 165.376 29.8932C165.376 34.6629 169.242 38.5295 174.012 38.5295Z" fill="#0B0450"/>
<path d="M174.346 33.6972C171.724 33.6972 169.591 31.5638 169.591 28.9421V4.75513C169.591 2.13338 171.724 0 174.346 0C176.968 0 179.101 2.13338 179.101 4.75513V28.9421C179.101 31.5638 176.968 33.6972 174.346 33.6972Z" fill="#F44E4E"/>
<path d="M220.946 38.5295C225.716 38.5295 229.583 34.6629 229.583 29.8932C229.583 25.1235 225.716 21.2568 220.946 21.2568C216.177 21.2568 212.31 25.1235 212.31 29.8932C212.31 34.6629 216.177 38.5295 220.946 38.5295Z" fill="#0B0450"/>
<path d="M221.281 33.6972C218.659 33.6972 216.525 31.5638 216.525 28.9421V4.75513C216.525 2.13338 218.659 0 221.281 0C223.902 0 226.036 2.13338 226.036 4.75513V28.9421C226.036 31.5638 223.902 33.6972 221.281 33.6972Z" fill="#F44E4E"/>
<path d="M267.881 38.5295C272.651 38.5295 276.517 34.6629 276.517 29.8932C276.517 25.1235 272.651 21.2568 267.881 21.2568C263.111 21.2568 259.244 25.1235 259.244 29.8932C259.244 34.6629 263.111 38.5295 267.881 38.5295Z" fill="#0B0450"/>
<path d="M268.215 33.6972C265.593 33.6972 263.46 31.5638 263.46 28.9421V4.75513C263.46 2.13338 265.593 0 268.215 0C270.837 0 272.97 2.13338 272.97 4.75513V28.9421C272.97 31.5638 270.837 33.6972 268.215 33.6972Z" fill="#F44E4E"/>
<path d="M118.107 120.42C117.67 119.983 116.925 119.983 116.488 120.42L102.042 134.866L103.662 136.485L118.107 122.04C118.544 121.603 118.544 120.883 118.107 120.42Z" fill="#F44E4E"/>
<path d="M101.22 135.688L102.017 134.891L95.4881 128.363C95.0512 127.926 94.3058 127.926 93.8689 128.363C93.4319 128.8 93.4319 129.545 93.8689 129.982L101.22 137.333C100.757 136.871 100.757 136.151 101.22 135.688Z" fill="#F44E4E"/>
<path d="M101.22 135.688C100.783 136.125 100.783 136.87 101.22 137.307C101.657 137.744 102.402 137.744 102.839 137.307L103.636 136.511L102.017 134.891L101.22 135.688Z" fill="#F44E4E"/>
<path d="M224.057 181.337C223.697 181.337 223.337 181.209 223.08 180.926L215.729 173.575C215.472 173.318 215.317 172.958 215.317 172.598C215.317 172.238 215.472 171.879 215.729 171.622C216.243 171.108 217.168 171.108 217.682 171.622L224.057 177.996L238.348 163.705C238.887 163.165 239.761 163.165 240.301 163.705C240.841 164.245 240.841 165.119 240.301 165.658L225.033 180.926C224.776 181.209 224.416 181.337 224.057 181.337ZM216.705 171.699C216.474 171.699 216.243 171.802 216.063 171.956C215.883 172.136 215.806 172.341 215.806 172.598C215.806 172.855 215.909 173.061 216.063 173.241L223.414 180.592C223.774 180.952 224.339 180.952 224.699 180.592L239.967 165.324C240.327 164.964 240.327 164.399 239.967 164.039C239.607 163.679 239.042 163.679 238.682 164.039L224.057 178.664L217.348 171.956C217.168 171.802 216.962 171.699 216.705 171.699Z" fill="#F44E4E"/>
<path d="M178.664 75.054C178.227 74.6171 177.482 74.6171 177.045 75.054L162.6 89.4993L164.219 91.1187L178.664 76.6734C179.101 76.2107 179.101 75.491 178.664 75.054Z" fill="#F44E4E"/>
<path d="M161.777 90.3217L162.574 89.4992L156.045 82.9705C155.608 82.5336 154.863 82.5336 154.426 82.9705C153.989 83.4075 153.989 84.1529 154.426 84.5899L161.777 91.941C161.34 91.4783 161.34 90.7587 161.777 90.3217Z" fill="#F44E4E"/>
<path d="M161.777 90.3219C161.34 90.7588 161.34 91.5042 161.777 91.9411C162.214 92.3781 162.96 92.3781 163.397 91.9411L164.193 91.1444L162.574 89.525L161.777 90.3219Z" fill="#F44E4E"/>
<path d="M178.536 119.675H154.555C153.809 119.675 153.192 119.058 153.192 118.313C153.192 117.567 153.809 116.95 154.555 116.95H178.536C179.281 116.95 179.898 117.567 179.898 118.313C179.898 119.058 179.281 119.675 178.536 119.675Z" fill="#E3E6FF"/>
<path d="M178.536 126.332H154.555C153.809 126.332 153.192 125.715 153.192 124.97C153.192 124.224 153.809 123.608 154.555 123.608H178.536C179.281 123.608 179.898 124.224 179.898 124.97C179.898 125.715 179.281 126.332 178.536 126.332Z" fill="#E3E6FF"/>
<path d="M178.536 133.015H154.555C153.809 133.015 153.192 132.398 153.192 131.653C153.192 130.907 153.809 130.291 154.555 130.291H178.536C179.281 130.291 179.898 130.907 179.898 131.653C179.898 132.398 179.281 133.015 178.536 133.015Z" fill="#E3E6FF"/>
<path d="M178.536 139.672H154.555C153.809 139.672 153.192 139.055 153.192 138.31C153.192 137.565 153.809 136.948 154.555 136.948H178.536C179.281 136.948 179.898 137.565 179.898 138.31C179.898 139.055 179.281 139.672 178.536 139.672Z" fill="#E3E6FF"/>
<path d="M117.053 164.45H93.072C92.3266 164.45 91.7097 163.834 91.7097 163.088C91.7097 162.343 92.3266 161.726 93.072 161.726H117.053C117.799 161.726 118.416 162.343 118.416 163.088C118.441 163.834 117.824 164.45 117.053 164.45Z" fill="#E3E6FF"/>
<path d="M117.053 171.108H93.072C92.3266 171.108 91.7097 170.491 91.7097 169.745C91.7097 169 92.3266 168.383 93.072 168.383H117.053C117.799 168.383 118.416 169 118.416 169.745C118.441 170.491 117.824 171.108 117.053 171.108Z" fill="#E3E6FF"/>
<path d="M117.053 177.765H93.072C92.3266 177.765 91.7097 177.148 91.7097 176.402C91.7097 175.657 92.3266 175.04 93.072 175.04H117.053C117.799 175.04 118.416 175.657 118.416 176.402C118.441 177.148 117.824 177.765 117.053 177.765Z" fill="#E3E6FF"/>
<path d="M117.053 184.448H93.072C92.3266 184.448 91.7097 183.831 91.7097 183.085C91.7097 182.34 92.3266 181.723 93.072 181.723H117.053C117.799 181.723 118.416 182.34 118.416 183.085C118.441 183.831 117.824 184.448 117.053 184.448Z" fill="#E3E6FF"/>
<path d="M301.861 74.874H277.879C277.134 74.874 276.517 74.2571 276.517 73.5117C276.517 72.7663 277.134 72.1494 277.879 72.1494H301.861C302.606 72.1494 303.223 72.7663 303.223 73.5117C303.223 74.2571 302.606 74.874 301.861 74.874Z" fill="#E3E6FF"/>
<path d="M301.861 81.5312H277.879C277.134 81.5312 276.517 80.9143 276.517 80.1689C276.517 79.4235 277.134 78.8066 277.879 78.8066H301.861C302.606 78.8066 303.223 79.4235 303.223 80.1689C303.223 80.9143 302.606 81.5312 301.861 81.5312Z" fill="#E3E6FF"/>
<path d="M301.861 88.1883H277.879C277.134 88.1883 276.517 87.5714 276.517 86.826C276.517 86.0806 277.134 85.4637 277.879 85.4637H301.861C302.606 85.4637 303.223 86.0806 303.223 86.826C303.223 87.5714 302.606 88.1883 301.861 88.1883Z" fill="#E3E6FF"/>
<path d="M301.861 94.8712H277.879C277.134 94.8712 276.517 94.2543 276.517 93.5089C276.517 92.7635 277.134 92.1466 277.879 92.1466H301.861C302.606 92.1466 303.223 92.7635 303.223 93.5089C303.223 94.2543 302.606 94.8712 301.861 94.8712Z" fill="#E3E6FF"/>
<path d="M239.993 74.874H216.011C215.266 74.874 214.649 74.2571 214.649 73.5117C214.649 72.7663 215.266 72.1494 216.011 72.1494H239.993C240.738 72.1494 241.355 72.7663 241.355 73.5117C241.381 74.2571 240.764 74.874 239.993 74.874Z" fill="#E3E6FF"/>
<path d="M239.993 81.5312H216.011C215.266 81.5312 214.649 80.9143 214.649 80.1689C214.649 79.4235 215.266 78.8066 216.011 78.8066H239.993C240.738 78.8066 241.355 79.4235 241.355 80.1689C241.381 80.9143 240.764 81.5312 239.993 81.5312Z" fill="#E3E6FF"/>
<path d="M239.993 88.1883H216.011C215.266 88.1883 214.649 87.5714 214.649 86.826C214.649 86.0806 215.266 85.4637 216.011 85.4637H239.993C240.738 85.4637 241.355 86.0806 241.355 86.826C241.381 87.5714 240.764 88.1883 239.993 88.1883Z" fill="#E3E6FF"/>
<path d="M239.993 94.8712H216.011C215.266 94.8712 214.649 94.2543 214.649 93.5089C214.649 92.7635 215.266 92.1466 216.011 92.1466H239.993C240.738 92.1466 241.355 92.7635 241.355 93.5089C241.381 94.2543 240.764 94.8712 239.993 94.8712Z" fill="#E3E6FF"/>
<path d="M239.993 119.392H216.011C215.266 119.392 214.649 118.775 214.649 118.03C214.649 117.285 215.266 116.668 216.011 116.668H239.993C240.738 116.668 241.355 117.285 241.355 118.03C241.381 118.775 240.764 119.392 239.993 119.392Z" fill="#E3E6FF"/>
<path d="M239.993 126.05H216.011C215.266 126.05 214.649 125.433 214.649 124.687C214.649 123.942 215.266 123.325 216.011 123.325H239.993C240.738 123.325 241.355 123.942 241.355 124.687C241.381 125.433 240.764 126.05 239.993 126.05Z" fill="#E3E6FF"/>
<path d="M239.993 132.732H216.011C215.266 132.732 214.649 132.116 214.649 131.37C214.649 130.625 215.266 130.008 216.011 130.008H239.993C240.738 130.008 241.355 130.625 241.355 131.37C241.381 132.116 240.764 132.732 239.993 132.732Z" fill="#E3E6FF"/>
<path d="M239.993 139.39H216.011C215.266 139.39 214.649 138.773 214.649 138.027C214.649 137.282 215.266 136.665 216.011 136.665H239.993C240.738 136.665 241.355 137.282 241.355 138.027C241.381 138.773 240.764 139.39 239.993 139.39Z" fill="#E3E6FF"/>
<path d="M301.861 119.29H277.879C277.134 119.29 276.517 118.673 276.517 117.927C276.517 117.182 277.134 116.565 277.879 116.565H301.861C302.606 116.565 303.223 117.182 303.223 117.927C303.223 118.673 302.606 119.29 301.861 119.29Z" fill="#E3E6FF"/>
<path d="M301.861 125.947H277.879C277.134 125.947 276.517 125.33 276.517 124.584C276.517 123.839 277.134 123.222 277.879 123.222H301.861C302.606 123.222 303.223 123.839 303.223 124.584C303.223 125.33 302.606 125.947 301.861 125.947Z" fill="#E3E6FF"/>
<path d="M301.861 132.604H277.879C277.134 132.604 276.517 131.987 276.517 131.242C276.517 130.496 277.134 129.879 277.879 129.879H301.861C302.606 129.879 303.223 130.496 303.223 131.242C303.223 131.987 302.606 132.604 301.861 132.604Z" fill="#E3E6FF"/>
<path d="M301.861 139.287H277.879C277.134 139.287 276.517 138.67 276.517 137.924C276.517 137.179 277.134 136.562 277.879 136.562H301.861C302.606 136.562 303.223 137.179 303.223 137.924C303.223 138.67 302.606 139.287 301.861 139.287Z" fill="#E3E6FF"/>
<path d="M301.861 163.705H277.879C277.134 163.705 276.517 163.088 276.517 162.343C276.517 161.597 277.134 160.98 277.879 160.98H301.861C302.606 160.98 303.223 161.597 303.223 162.343C303.223 163.088 302.606 163.705 301.861 163.705Z" fill="#E3E6FF"/>
<path d="M301.861 170.362H277.879C277.134 170.362 276.517 169.745 276.517 169C276.517 168.254 277.134 167.637 277.879 167.637H301.861C302.606 167.637 303.223 168.254 303.223 169C303.223 169.745 302.606 170.362 301.861 170.362Z" fill="#E3E6FF"/>
<path d="M301.861 177.019H277.879C277.134 177.019 276.517 176.403 276.517 175.657C276.517 174.912 277.134 174.295 277.879 174.295H301.861C302.606 174.295 303.223 174.912 303.223 175.657C303.223 176.403 302.606 177.019 301.861 177.019Z" fill="#E3E6FF"/>
<path d="M301.861 183.702H277.879C277.134 183.702 276.517 183.085 276.517 182.34C276.517 181.595 277.134 180.978 277.879 180.978H301.861C302.606 180.978 303.223 181.595 303.223 182.34C303.223 183.085 302.606 183.702 301.861 183.702Z" fill="#E3E6FF"/>
<path d="M178.536 163.705H154.555C153.809 163.705 153.192 163.088 153.192 162.343C153.192 161.597 153.809 160.98 154.555 160.98H178.536C179.281 160.98 179.898 161.597 179.898 162.343C179.898 163.088 179.281 163.705 178.536 163.705Z" fill="#E3E6FF"/>
<path d="M178.536 170.362H154.555C153.809 170.362 153.192 169.745 153.192 169C153.192 168.254 153.809 167.637 154.555 167.637H178.536C179.281 167.637 179.898 168.254 179.898 169C179.898 169.745 179.281 170.362 178.536 170.362Z" fill="#E3E6FF"/>
<path d="M178.536 177.019H154.555C153.809 177.019 153.192 176.403 153.192 175.657C153.192 174.912 153.809 174.295 154.555 174.295H178.536C179.281 174.295 179.898 174.912 179.898 175.657C179.898 176.403 179.281 177.019 178.536 177.019Z" fill="#E3E6FF"/>
<path d="M178.536 183.702H154.555C153.809 183.702 153.192 183.085 153.192 182.34C153.192 181.595 153.809 180.978 154.555 180.978H178.536C179.281 180.978 179.898 181.595 179.898 182.34C179.898 183.085 179.281 183.702 178.536 183.702Z" fill="#E3E6FF"/>
<path d="M117.053 74.1286H93.072C92.3266 74.1286 91.7097 73.5117 91.7097 72.7663C91.7097 72.0209 92.3266 71.4041 93.072 71.4041H117.053C117.799 71.4041 118.416 72.0209 118.416 72.7663C118.441 73.5117 117.824 74.1286 117.053 74.1286Z" fill="#E3E6FF"/>
<path d="M117.053 80.7856H93.072C92.3266 80.7856 91.7097 80.1687 91.7097 79.4233C91.7097 78.6779 92.3266 78.061 93.072 78.061H117.053C117.799 78.061 118.416 78.6779 118.416 79.4233C118.441 80.1687 117.824 80.7856 117.053 80.7856Z" fill="#E3E6FF"/>
<path d="M117.053 87.443H93.072C92.3266 87.443 91.7097 86.8262 91.7097 86.0808C91.7097 85.3354 92.3266 84.7185 93.072 84.7185H117.053C117.799 84.7185 118.416 85.3354 118.416 86.0808C118.441 86.8262 117.824 87.443 117.053 87.443Z" fill="#E3E6FF"/>
<path d="M117.053 94.1259H93.072C92.3266 94.1259 91.7097 93.5091 91.7097 92.7637C91.7097 92.0183 92.3266 91.4014 93.072 91.4014H117.053C117.799 91.4014 118.416 92.0183 118.416 92.7637C118.441 93.5091 117.824 94.1259 117.053 94.1259Z" fill="#E3E6FF"/>
<path d="M276.851 138.464C276.286 137.899 275.36 137.899 274.795 138.464L256.417 156.842L258.473 158.898L276.851 140.52C277.417 139.955 277.417 139.03 276.851 138.464Z" fill="#F44E4E"/>
<path d="M255.389 157.87L256.417 156.842L248.115 148.54C247.549 147.974 246.624 147.974 246.059 148.54C245.493 149.105 245.493 150.031 246.059 150.596L255.389 159.927C254.824 159.361 254.824 158.436 255.389 157.87Z" fill="#F44E4E"/>
<path d="M255.389 157.87C254.823 158.436 254.823 159.361 255.389 159.927C255.954 160.492 256.88 160.492 257.445 159.927L258.473 158.898L256.417 156.842L255.389 157.87Z" fill="#F44E4E"/>
<path d="M84.3328 181.517H41.8451C36.7044 181.517 32.5148 177.328 32.5148 172.187C32.5148 167.072 36.7044 162.857 41.8451 162.857H84.3328C89.4478 162.857 93.6632 167.046 93.6632 172.187C93.6375 177.328 89.4478 181.517 84.3328 181.517Z" fill="#8888CF"/>
<path d="M44.3127 179.281C40.4058 179.281 37.2185 176.094 37.2185 172.187C37.2185 168.28 40.4058 165.093 44.3127 165.093C48.2196 165.093 51.4068 168.28 51.4068 172.187C51.3811 176.094 48.2196 179.281 44.3127 179.281ZM44.3127 166.07C40.9455 166.07 38.1952 168.82 38.1952 172.187C38.1952 175.554 40.9455 178.304 44.3127 178.304C47.6798 178.304 50.4301 175.554 50.4301 172.187C50.4301 168.82 47.6798 166.07 44.3127 166.07Z" fill="white"/>
<path d="M44.6211 175.554H43.6443V177.405H44.6211V175.554Z" fill="white"/>
<path d="M44.6211 167.021H43.6443V168.871H44.6211V167.021Z" fill="white"/>
<path d="M47.8818 168.496L43.9558 171.815L44.5697 172.541L48.4957 169.223L47.8818 168.496Z" fill="white"/>
<path d="M51.818 154.94H9.33031C4.21534 154.94 0 150.75 0 145.61C0 140.495 4.18963 136.279 9.33031 136.279H51.818C56.9587 136.279 61.1484 140.469 61.1484 145.61C61.1484 150.75 56.9587 154.94 51.818 154.94Z" fill="#E3E6FF"/>
<path d="M20.974 140.366C20.7426 140.135 20.3828 140.135 20.1515 140.366L12.826 147.692L13.6485 148.514L20.974 141.189C21.2053 140.957 21.2053 140.598 20.974 140.366Z" fill="#8888CF"/>
<path d="M12.4404 148.077L12.8517 147.666L9.53594 144.35C9.30461 144.119 8.94478 144.119 8.71345 144.35C8.48211 144.582 8.48211 144.941 8.71345 145.173L12.4404 148.9C12.2091 148.694 12.2091 148.309 12.4404 148.077Z" fill="#8888CF"/>
<path d="M12.4405 148.077C12.2091 148.309 12.2091 148.668 12.4405 148.9C12.6718 149.131 13.0316 149.131 13.263 148.9L13.6742 148.488L12.8517 147.666L12.4405 148.077Z" fill="#8888CF"/>
<path d="M300.884 163.859C300.884 163.859 294.818 174.578 285.025 171.879C275.232 169.206 268.446 155.094 265.516 156.662C262.586 158.23 255.595 155.814 263.408 153.629C266.981 152.627 267.521 152.781 267.932 153.064C273.356 156.945 279.653 162.985 282.969 165.813C286.516 168.871 290.962 166.661 295.024 164.373C299.11 162.086 314.61 157.253 300.884 163.859Z" fill="#EAC2AB"/>
<path d="M307.464 143.81L308.852 154.04C311.32 154.76 313.916 156.148 316.512 156.148C316.383 154.246 314.532 152.087 313.684 150.288C312.656 148.129 315.175 143.194 315.304 140.777C315.612 134.403 307.464 143.81 307.464 143.81Z" fill="#D4A79A"/>
<path d="M305.202 128.389C303.968 128.054 300.421 129.391 299.83 130.548C298.442 133.324 299.496 136.562 299.162 139.827C298.93 142.011 300.498 146.51 302.195 148.283C304.714 150.905 307.875 147.358 309.777 145.173C312.45 142.088 313.633 137.976 313.247 133.889C313.119 132.424 312.707 130.882 311.628 129.905C310.574 128.954 309.083 128.723 307.67 128.517C306.821 128.337 306.05 128.62 305.202 128.389Z" fill="#EAC2AB"/>
<path d="M233.078 220.355L225.727 228.76L228.272 231.511L235.417 222.283C235.417 222.283 234.235 220.587 233.078 220.355Z" fill="#EAC2AB"/>
<path d="M209.38 223.851C209.38 223.851 211.539 226.216 216.423 229.377C221.306 232.539 226.884 235.854 228.349 235.674C229.788 235.495 233.978 229.429 232.282 228.478C230.585 227.552 228.58 229.634 226.781 225.804C225.239 222.514 221.255 224.93 216.268 223.44C211.282 221.949 209.277 221.332 209.38 223.851Z" fill="#FF9A9A"/>
<path d="M258.011 193.547C257.24 193.547 256.443 193.547 255.723 193.855C254.926 194.189 254.335 194.858 253.77 195.5C249.683 200.101 245.467 204.573 241.124 208.943C236.908 213.158 232.462 217.322 227.115 220.021C227.552 220.869 228.529 221.306 229.403 221.718C233.001 223.388 236.24 225.882 238.759 228.94C238.99 226.576 240.095 224.314 241.792 222.669C243 221.486 244.491 220.638 245.93 219.738C252.33 215.6 257.599 209.92 263.82 205.499C264.102 205.293 264.385 205.088 264.719 205.01C265.156 204.882 265.619 204.959 266.056 205.036C275.772 206.604 285.616 207.426 295.486 207.555C297.774 207.581 300.601 207.195 301.321 205.036C304.225 196.297 273.998 194.421 270.091 194.112C266.261 193.727 261.84 193.033 258.011 193.547Z" fill="#0B0450"/>
<path d="M307.438 152.215C303.454 153.732 298.982 158.873 297.543 160.98C293.173 167.432 295.872 173.421 289.446 182.803C288.829 183.702 289.035 185.013 289.446 186.041C290.037 187.532 291.682 188.277 293.147 188.946C298.931 191.542 304.277 195.037 308.955 199.304C311.577 186.632 313.247 173.729 313.941 160.8C314.044 158.718 314.121 156.559 313.273 154.632C311.962 151.701 309.777 151.342 307.438 152.215Z" fill="#FE67AF"/>
<path d="M314.969 158.102C317.103 163.242 315.483 169.282 316.409 174.86C317.334 180.412 317.103 185.861 318.388 191.362C319.236 194.934 319.93 198.533 320.47 202.157C320.496 202.414 320.547 202.723 320.753 202.928C320.984 203.16 321.318 203.211 321.652 203.262C324.711 203.751 330.083 203.648 331.934 206.218C328.824 207.452 324.84 207.015 321.704 205.961C322.269 206.527 322.835 207.092 323.4 207.683C322.141 208.3 320.547 207.735 319.545 206.732C318.542 205.73 318.028 204.368 317.514 203.057C314.712 195.731 311.679 188.534 310.497 180.721C309.829 176.3 309.854 171.801 308.903 167.432C308.595 166.07 308.209 164.733 308.235 163.345C308.261 161.135 309.417 158.95 311.294 157.536C311.654 157.253 312.091 156.996 312.553 156.893C313.427 156.714 314.327 157.125 314.918 157.716C315.509 158.307 315.843 159.078 316.177 159.824" fill="#EAC2AB"/>
<path d="M260.915 213.415L259.733 224.519L263.408 225.29L263.948 213.621C263.948 213.647 262.02 212.927 260.915 213.415Z" fill="#EAC2AB"/>
<path d="M245.724 230.405C245.724 230.405 248.475 231.022 253.59 230.816C258.705 230.637 264.411 230.174 265.362 229.326C266.313 228.452 266.262 221.975 264.565 222.154C262.869 222.334 262.483 224.879 259.245 223.003C256.469 221.409 254.823 225.162 250.48 226.627C246.136 228.066 244.362 228.657 245.724 230.405Z" fill="#FF9A9A"/>
<path d="M307.875 188.406C309.315 188.971 310.78 189.768 311.499 191.156C311.911 191.953 312.039 192.853 312.091 193.752C312.348 197.222 311.782 201.052 309.289 203.468C308.055 204.65 306.487 205.396 304.894 206.038C301.141 207.529 297.003 208.455 293.07 207.555C288.752 206.578 285.205 203.494 282.223 200.204C279.704 197.402 277.442 194.343 275.54 191.105C274.461 189.28 273.304 187.249 271.299 186.607C269.731 191.387 270.862 196.605 270.323 201.617C270.014 204.471 269.166 207.221 268.883 210.074C268.6 212.927 268.986 216.011 270.811 218.196C269.269 219.661 266.776 219.07 264.694 218.684C262.072 218.196 259.373 218.196 256.751 218.659C256.083 218.787 255.312 218.916 254.798 218.479C254.361 218.119 254.258 217.502 254.284 216.962C254.361 215.086 255.543 213.467 256.16 211.693C256.88 209.586 256.751 207.324 256.88 205.113C257.24 197.736 260.144 190.642 260.375 183.265C260.427 181.158 260.298 178.998 260.735 176.942C261.172 174.886 262.329 172.804 264.257 171.956C266.518 170.953 269.577 171.107 271.454 172.727C272.61 173.729 284.639 181.44 294.998 186.375C299.11 188.303 303.634 186.709 307.875 188.406Z" fill="#0B0450"/>
<path d="M332.114 174.603C331.677 174.577 331.24 174.475 330.957 174.166C330.443 173.626 330.623 172.752 330.52 172.007C330.314 170.388 329.003 169.205 328.901 167.535C328.798 165.581 329.954 163.808 329.338 161.829C328.721 159.824 327.024 157.922 325.688 156.379C324.557 155.12 322.989 154.117 322.269 152.55C321.575 151.084 322.115 149.439 322.346 147.923C322.603 146.252 321.858 145.404 321.704 143.836C321.601 142.757 322.192 141.78 322.089 140.7C322.243 140.058 322.372 139.389 322.475 138.747C322.912 135.997 320.187 134.506 318.851 132.655C317.437 130.702 318.825 127.309 317.18 125.021C314.995 121.937 310.394 121.526 306.976 122.194C304.457 122.682 303.403 124.25 301.578 125.818C300.807 126.486 299.702 126.615 298.828 127.103C297.543 127.797 296.694 128.877 296.077 130.265C295.923 130.625 295.846 131.01 295.846 131.396C295.872 131.755 295.949 132.115 296.18 132.398C296.797 133.272 298.134 133.298 299.162 132.964C303.3 131.576 308.929 131.833 309.058 137.59C309.109 140.058 308.03 142.397 307.721 144.813C307.387 147.512 310.805 148.668 311.859 150.673C312.887 152.627 313.581 155.171 313.556 157.382C313.556 157.382 311.808 160.389 311.988 163.628C312.116 166.198 313.736 166.198 315.124 167.123C315.972 167.689 315.483 170.131 315.715 170.979C316.126 172.624 317.488 173.729 318.028 175.297C318.594 176.993 318.542 178.099 320.213 179.255C323.734 181.672 328.438 181.08 331.857 178.767C332.653 178.227 334.53 176.916 334.401 175.76C334.247 174.423 333.116 174.68 332.114 174.603Z" fill="#0B0450"/>
</svg>
