<svg width="304" height="328" viewBox="0 0 304 328" fill="none" xmlns="http://www.w3.org/2000/svg">
<path d="M288.039 257.662H191.301C182.908 257.662 176.01 250.798 176.01 242.371V15.2905C176.01 6.89771 182.874 0 191.301 0H288.039C296.432 0 303.329 6.86373 303.329 15.2905V242.371C303.295 250.798 296.432 257.662 288.039 257.662Z" fill="#8888CF"/>
<path d="M279.952 233.639H199.388C190.995 233.639 184.097 226.775 184.097 218.348V23.955C184.097 15.5623 190.961 8.66455 199.388 8.66455H279.952C288.345 8.66455 295.242 15.5283 295.242 23.955V218.348C295.242 226.741 288.345 233.639 279.952 233.639Z" fill="#E3E6FF"/>
<path d="M251.647 5.91242H227.658C227.081 5.91242 226.605 5.43668 226.605 4.85904C226.605 4.2814 227.081 3.80566 227.658 3.80566H251.647C252.225 3.80566 252.701 4.2814 252.701 4.85904C252.701 5.43668 252.225 5.91242 251.647 5.91242Z" fill="#E3E6FF"/>
<path d="M239.653 251.443C243.294 251.443 246.245 248.492 246.245 244.851C246.245 241.211 243.294 238.26 239.653 238.26C236.012 238.26 233.061 241.211 233.061 244.851C233.061 248.492 236.012 251.443 239.653 251.443Z" fill="#E3E6FF"/>
<path d="M269.962 206.795H209.344C203.941 206.795 199.524 202.378 199.524 196.975V193.17C199.524 187.767 203.941 183.35 209.344 183.35H269.962C275.365 183.35 279.782 187.767 279.782 193.17V196.975C279.782 202.378 275.365 206.795 269.962 206.795Z" fill="#F44E4E"/>
<path d="M240.332 70.6423C235.236 69.3511 233.978 54.0945 228.882 54.0945C217.703 55.1139 213.829 69.9287 207.509 81.0398C208.324 85.6269 212.368 89.1267 217.159 89.1267H261.977C267.38 89.1267 271.797 84.7095 271.797 79.3069V47.1628C270.234 47.2988 268.637 47.8424 267.074 48.9977C258.171 56.6429 251.783 73.1907 240.332 70.6423Z" fill="#8888CF"/>
<path d="M262.079 33.9448H217.261C211.858 33.9448 207.441 38.362 207.441 43.7647V79.3066C207.441 79.8842 207.509 80.4618 207.611 81.0395C213.897 69.9284 217.771 55.1136 228.984 54.0942C234.08 54.0942 235.338 69.3848 240.434 70.642C251.885 73.1904 258.273 56.6426 267.176 48.9974C268.773 47.8761 270.37 47.2985 271.899 47.1626V43.7647C271.899 38.362 267.482 33.9448 262.079 33.9448Z" fill="white"/>
<path d="M268.739 109.854H210.601C209.038 109.854 207.747 108.562 207.747 106.999C207.747 105.436 209.038 104.179 210.601 104.179H268.739C270.302 104.179 271.593 105.47 271.593 106.999C271.559 108.562 270.302 109.854 268.739 109.854Z" fill="#8888CF"/>
<path d="M268.739 122.834H210.601C209.038 122.834 207.747 121.542 207.747 119.979C207.747 118.416 209.038 117.159 210.601 117.159H268.739C270.302 117.159 271.593 118.45 271.593 119.979C271.559 121.576 270.302 122.834 268.739 122.834Z" fill="white"/>
<path d="M268.739 135.814H210.601C209.038 135.814 207.747 134.522 207.747 132.959C207.747 131.396 209.038 130.139 210.601 130.139H268.739C270.302 130.139 271.593 131.43 271.593 132.959C271.559 134.556 270.302 135.814 268.739 135.814Z" fill="white"/>
<path d="M246.041 56.7785C249.156 56.7785 251.681 54.2532 251.681 51.138C251.681 48.0228 249.156 45.4976 246.041 45.4976C242.926 45.4976 240.4 48.0228 240.4 51.138C240.4 54.2532 242.926 56.7785 246.041 56.7785Z" fill="#8888CF"/>
<path d="M239.177 172.307C238.803 172.001 238.769 171.491 239.041 171.118L246.822 161.57C247.128 161.196 247.638 161.162 248.012 161.434C248.385 161.74 248.419 162.249 248.148 162.623L240.366 172.171C240.061 172.545 239.551 172.579 239.177 172.307Z" fill="white"/>
<path d="M240.163 172.307C240.536 172.001 240.57 171.491 240.298 171.118L232.517 161.57C232.212 161.196 231.702 161.162 231.328 161.434C230.954 161.74 230.92 162.249 231.192 162.623L238.973 172.171C239.245 172.545 239.789 172.579 240.163 172.307Z" fill="white"/>
<path d="M239.653 320.964C272.137 320.964 298.47 317.085 298.47 312.3C298.47 307.514 272.137 303.635 239.653 303.635C207.169 303.635 180.835 307.514 180.835 312.3C180.835 317.085 207.169 320.964 239.653 320.964Z" fill="#E3E6FF"/>
<path d="M74.6516 105.844H10.0578C4.51922 105.844 0 101.325 0 95.7865C0 90.248 4.51922 85.7288 10.0578 85.7288H74.6516C80.1901 85.7288 84.7093 90.248 84.7093 95.7865C84.7093 101.325 80.1901 105.844 74.6516 105.844Z" fill="#E3E6FF"/>
<path d="M74.8894 96.4318C74.7195 96.6357 74.3798 96.6696 74.1759 96.4997L68.4334 91.8106C68.2296 91.6407 68.1956 91.301 68.3655 91.0971C68.5354 90.8933 68.8752 90.8593 69.0791 91.0292L74.8215 95.7182C75.0593 95.8881 75.0933 96.2279 74.8894 96.4318Z" fill="white"/>
<path d="M74.8894 95.8545C74.7195 95.6506 74.3798 95.6166 74.1759 95.7865L68.4334 100.476C68.2296 100.645 68.1956 100.985 68.3655 101.189C68.5354 101.393 68.8752 101.427 69.0791 101.257L74.8215 96.568C75.0593 96.3981 75.0933 96.0583 74.8894 95.8545Z" fill="white"/>
<path d="M49.9149 128.236H6.72783C3.02414 128.236 0 125.212 0 121.509C0 117.805 3.02414 114.781 6.72783 114.781H49.9149C53.6186 114.781 56.6427 117.805 56.6427 121.509C56.6427 125.178 53.6186 128.236 49.9149 128.236Z" fill="#8888CF"/>
<path d="M50.0848 121.951C49.9829 122.086 49.7451 122.12 49.6092 121.984L45.7695 118.858C45.6336 118.722 45.5997 118.519 45.7356 118.383C45.8375 118.247 46.0754 118.213 46.2113 118.349L50.0509 121.475C50.1868 121.577 50.1868 121.781 50.0848 121.951Z" fill="white"/>
<path d="M50.0848 121.542C49.9829 121.406 49.7451 121.373 49.6092 121.508L45.7695 124.634C45.6336 124.77 45.5997 124.974 45.7356 125.11C45.8375 125.246 46.0754 125.28 46.2113 125.144L50.0509 122.018C50.1868 121.916 50.1868 121.678 50.0848 121.542Z" fill="white"/>
<path d="M107.815 124.77C107.815 124.77 100.068 134.998 99.626 142.405C99.1503 149.813 118.756 152.803 118.756 152.803L107.815 124.77Z" fill="#D4A79A"/>
<path d="M129.697 96.3301L128.882 111.757L116.785 116.412C116.785 116.412 124.057 105.776 122.834 96.3301C121.576 86.85 129.697 96.3301 129.697 96.3301Z" fill="#D4A79A"/>
<path d="M140.503 64.7638C140.503 64.7638 143.119 68.2636 140.571 78.933C138.022 89.6363 133.843 98.7426 130.615 98.097C121.712 96.3301 118.586 90.0101 115.494 84.6074C111.722 77.9815 119.232 61.8076 119.232 61.8076L126.333 57.968L140.503 64.7638Z" fill="#EAC2AB"/>
<path d="M149.983 61.8756C150.764 59.3612 149.405 56.1671 147.57 54.6041C146.857 53.9925 145.973 53.6188 145.09 53.7207C144.41 53.7887 143.765 54.0945 143.119 53.9925C141.148 53.6528 140.91 50.7306 139.042 50.1529C137.682 49.7112 136.357 50.9684 134.964 51.2742C133.911 51.5121 132.823 51.2402 131.736 51.0024C128.746 50.3568 125.96 48.9297 122.902 48.5559C120.319 48.2501 117.601 48.5219 115.256 49.7791C112.81 51.1043 111.043 53.5168 110.126 56.303C109.582 57.968 109.378 59.8369 109.854 61.5358C109.48 60.1427 106.966 61.6377 106.558 62.1814C104.961 64.356 104.689 69.0452 105.538 71.5596C106.218 73.5644 107.339 75.3313 107.951 77.336C108.698 79.7485 109.004 82.4328 110.329 84.5735C111.858 87.02 114.916 88.2772 117.533 87.5976C116.717 85.389 115.936 83.1124 115.766 80.7339C115.63 78.3554 112.47 67.5501 124.193 65.2395C128.882 64.3221 134.488 68.1957 139.177 68.3995C141.386 68.5015 143.629 68.0598 145.701 67.2103C147.298 66.5647 148.861 64.1522 149.779 62.3853C149.847 62.2494 149.915 62.0795 149.983 61.8756Z" fill="#0B0450"/>
<path d="M115.732 72.9867C115.732 72.9867 112.436 69.2829 112.81 74.9234C113.184 80.5639 116.14 81.7532 116.14 81.7532L115.732 72.9867Z" fill="#EAC2AB"/>
<path d="M87.7334 289.772L80.6318 308.46L74.1418 306.727L82.7385 287.665C82.7385 287.665 86.4082 288.073 87.7334 289.772Z" fill="#D4A79A"/>
<path d="M97.2474 325.857C97.0096 326.231 94.733 326.095 94.3932 326.095C90.8594 326.129 85.3888 326.401 82.3647 324.362C79.4085 322.357 77.4718 318.926 74.8554 316.513C73.0205 314.814 70.642 313.795 68.4674 312.606C66.0549 311.28 70.9478 300.305 73.87 302.072C76.2485 303.499 75.0592 307.509 81.1075 306.965C86.2723 306.523 82.9763 313.897 88.9906 318.28C94.3252 322.188 99.7958 321.61 97.2474 325.857Z" fill="#FF9A9A"/>
<path d="M100.883 223.071C97.995 238.77 91.9808 253.075 83.0104 266.292C78.6271 272.714 73.972 278.933 69.4528 285.253C62.9968 294.257 84.8792 296.398 90.2479 297.995C93.7817 299.048 99.0144 299.32 98.7765 296.602C98.7086 295.82 98.097 295.005 97.5873 294.257C92.9662 287.223 97.0096 280.122 100.204 273.802C109.752 254.875 116.208 233.061 123.717 213.319C126.571 205.81 125.28 198.403 125.688 190.18C125.96 185.151 117.193 162.929 107.645 168.399C101.699 171.797 104.995 184.743 105.64 189.976C106.082 193.578 106.864 197.485 106.252 201.121C105.029 208.528 102.242 215.63 100.883 223.071Z" fill="#0B0450"/>
<path d="M124.159 296.058L128.576 316.173L122.018 318.348L118.654 297.077C118.654 297.077 122.052 295.378 124.159 296.058Z" fill="#EAC2AB"/>
<path d="M155.487 324.09C155.487 324.09 150.56 325.755 141.148 326.469C131.736 327.182 121.203 327.522 119.3 326.129C117.397 324.736 116.174 312.843 119.3 312.843C122.426 312.843 123.649 317.396 129.222 313.319C133.979 309.853 137.75 316.411 146.007 318.144C154.264 319.877 157.594 320.59 155.487 324.09Z" fill="#FF9A9A"/>
<path d="M141.284 301.664C140.978 300.917 140.129 300.373 139.415 299.795C132.823 294.563 134.454 286.544 135.508 279.544C138.022 262.962 135.338 246.245 134.318 229.629C133.333 213.421 134.964 197.179 138.668 181.379C140.027 175.637 141.862 166.768 132.993 168.467C128.78 169.249 124.634 169.113 120.455 168.365C118.246 167.991 120.489 167.278 118.246 167.991C110.567 170.438 107.713 184.913 109.31 189.976C112.436 200.033 113.455 209.683 113.965 220.319C114.679 235.405 117.193 250.526 115.392 265.477C114.509 272.816 113.489 280.122 112.504 287.461C111.926 291.742 108.359 301.087 110.771 304.96C114.067 310.261 128.712 305.776 133.605 305.64C137.275 305.572 142.337 304.179 141.284 301.664Z" fill="#0B0450"/>
<path d="M134.76 140.469C132.552 131.464 134.964 116.276 128.576 109.582C127.93 108.902 127.251 108.223 126.367 107.815C118.382 104.213 113.557 110.771 110.126 116.446C106.694 122.154 106.762 128.304 105.097 134.658C103.194 141.93 103.568 149.473 103.432 156.948C103.364 161.502 103.907 166.055 103.636 170.608C103.466 173.802 102.99 176.962 102.276 180.054C101.801 182.127 99.0824 186.238 99.8639 188.311C100.475 189.976 103.364 189.364 104.757 189.398C110.193 189.568 115.528 187.971 120.353 185.559C124.77 183.384 128.644 179.986 133.741 179.578C136.255 179.374 144.24 180.394 143.085 175.807C140.367 164.899 137.275 155.623 136.153 147.91C135.847 145.498 135.372 142.983 134.76 140.469Z" fill="#F9A0CF"/>
<path d="M145.837 148.012C145.837 148.012 155.148 158.342 156.677 156.88C158.206 155.419 186.102 125.62 187.495 122.358C188.889 119.096 192.218 109.718 191.879 107.849C191.539 105.946 190.655 106.15 194.325 105.504C198.029 104.825 205.062 104.689 204.485 106.116C203.907 107.543 200.985 107.679 200.985 107.679C200.985 107.679 204.757 108.597 203.329 109.378C201.902 110.16 197.145 110.771 197.587 112.164C198.063 113.557 198.742 116.684 198.504 119.368C198.267 122.052 197.213 123.241 194.121 125.144C191.029 127.047 190.486 125.722 188.685 129.494C186.884 133.265 159.531 165.919 157.764 167.278C156.031 168.637 155.555 170.132 151.682 166.564C147.808 162.997 140.978 154.128 135.508 148.42C130.479 143.187 128.44 135.78 128.44 135.78L136.561 134.59C136.595 134.522 137.546 140.163 145.837 148.012Z" fill="#EAC2AB"/>
<path d="M139.857 134.76C139.857 134.76 133.435 113.931 125.11 117.907C116.785 121.882 128.474 144.138 128.474 144.138L141.964 137.411L139.857 134.76Z" fill="#FE67AF"/>
</svg>
