<svg width="240" height="222" viewBox="0 0 240 222" fill="none" xmlns="http://www.w3.org/2000/svg">
<path d="M86.2322 73.6483L78.8007 95.6725L59.3978 97.5371C59.3978 97.5371 74.2066 85.0792 76.2604 70.8648C78.3142 56.6505 86.2322 73.6483 86.2322 73.6483Z" fill="#D4A79A"/>
<path d="M114.634 32.2482C114.634 32.2482 117.039 38.3555 109.013 52.8131C100.987 67.2707 91.2585 78.8098 86.8267 76.5668C74.639 70.3784 72.6663 60.0014 70.3693 50.9215C67.5588 39.7878 84.989 19.412 84.989 19.412L96.8254 16.7367L114.634 32.2482Z" fill="#EAC2AB"/>
<path d="M130.551 32.1941C131.902 28.5189 131.686 24.3843 128.983 20.4118C128.2 19.2498 127.065 18.358 125.768 18.1148C124.768 17.9256 123.687 18.1418 122.795 17.7094C120.066 16.4393 120.876 12.0885 118.471 10.4941C116.661 9.3051 114.256 10.5752 112.094 10.4671C110.445 10.4131 108.986 9.54833 107.527 8.79167C103.446 6.65681 100.014 3.46802 95.6904 1.68446C92.0692 0.171146 88.0427 -0.477433 84.1243 0.387321C80.0437 1.30612 76.5307 4.08957 74.0445 7.73775C72.5582 9.92665 71.5583 12.5479 71.5043 15.1962C71.5313 13.0073 67.2615 14.1693 66.4508 14.8179C63.235 17.3041 60.9651 24.0059 61.1813 28.0054C61.3434 31.1672 62.2622 34.1938 62.3163 37.3556C62.4784 44.3276 61.7218 55.9207 72.0448 56.1099C71.7745 52.5698 71.5313 48.9487 72.288 45.4356C73.6121 39.1661 76.4225 30.8969 82.2056 27.3298C94.4202 19.8173 98.5278 39.3553 107.797 43.0575C116.39 46.5165 127.497 40.5173 130.551 32.1941Z" fill="#0B0450"/>
<path d="M75.4497 34.1938C75.4497 34.1938 72.1799 27.492 70.4234 35.8423C68.6668 44.1925 72.4771 47.084 72.4771 47.084L75.4497 34.1938Z" fill="#EAC2AB"/>
<path d="M96.0958 152.179C95.204 140.748 93.6366 128.668 90.9883 117.21C88.9345 108.373 87.0159 96.2398 78.3143 91.2134C62.0191 81.7822 51.5339 105.077 48.6424 117.345C45.3726 131.316 45.7779 146.044 45.6158 160.313C45.4807 173.095 43.6701 187.201 45.4266 199.767C45.7239 201.983 46.5346 204.253 48.2911 205.685C52.7229 209.279 57.2629 204.523 60.9922 202.388C64.4782 200.416 68.1534 200.74 71.8556 199.389C75.0984 198.227 76.6928 195.795 79.4222 193.903C86.5564 188.958 94.2041 196.93 101.933 195.416C118.714 192.173 105.905 196.74 99.1494 163.042C98.4468 159.664 96.393 156.259 96.0958 152.179Z" fill="#FE67AF"/>
<path d="M139.712 126.993C146.089 122.885 148.548 113.67 154.467 108.725C156.872 106.698 159.709 105.509 162.547 104.401C166.573 102.834 170.654 101.374 174.761 100.023C174.518 102.131 172.897 103.671 171.221 104.59C169.546 105.509 167.681 106.049 166.114 107.211C165.411 107.725 164.79 108.373 164.438 109.211C163.628 111.103 164.411 113.373 164.087 115.427C163.465 119.291 159.493 120.858 156.439 122.75C150.17 126.668 146.116 134.343 139.577 137.64C139.577 137.64 90.4748 178.419 84.4215 177.284C78.3683 176.149 70.018 120.561 70.018 120.561C70.018 120.561 64.262 91.9161 79.3952 105.644C94.5284 119.372 85.2052 164.988 92.6908 160.259C100.122 155.584 139.712 126.993 139.712 126.993Z" fill="#EAC2AB"/>
<path d="M90.2587 128.371C90.2587 128.371 88.5291 93.0511 73.8824 95.9696C59.2356 98.8882 68.6398 138.532 68.6398 138.532L92.5557 133.424L90.2587 128.371Z" fill="#F9A0CF"/>
<path d="M123.281 214.792H24.4023C19.9974 214.792 16.4033 211.198 16.4033 206.793V195.524C16.4033 191.119 19.9974 187.525 24.4023 187.525H123.281C127.686 187.525 131.28 191.119 131.28 195.524V206.793C131.28 211.171 127.686 214.792 123.281 214.792Z" fill="#E3E6FF"/>
<path d="M71.4773 221.602H5.35068C2.40511 221.602 0 219.197 0 216.251V208.712C0 205.766 2.40511 203.361 5.35068 203.361H71.4773C74.4229 203.361 76.828 205.766 76.828 208.712V216.251C76.828 219.197 74.4229 221.602 71.4773 221.602Z" fill="#F44E4E"/>
<path d="M68.0453 212.928L67.8021 213.225C67.694 213.333 67.5319 213.36 67.4238 213.252L61.911 208.766C61.8029 208.658 61.7759 208.496 61.884 208.388L62.1271 208.09C62.2352 207.982 62.3974 207.955 62.5055 208.063L68.0183 212.549C68.1264 212.63 68.1534 212.82 68.0453 212.928Z" fill="white"/>
<path d="M68.0453 212.684L67.8021 212.387C67.694 212.279 67.5319 212.252 67.4238 212.36L61.911 216.846C61.8029 216.954 61.7759 217.116 61.884 217.224L62.1271 217.522C62.2352 217.63 62.3974 217.657 62.5055 217.549L68.0183 213.063C68.1264 212.982 68.1534 212.792 68.0453 212.684Z" fill="white"/>
<path d="M60.3436 212.928L60.1003 213.225C59.9922 213.333 59.8301 213.36 59.722 213.252L54.2093 208.766C54.1012 208.658 54.0741 208.496 54.1822 208.388L54.4254 208.09C54.5335 207.982 54.6957 207.955 54.8038 208.063L60.3165 212.549C60.4246 212.63 60.4517 212.82 60.3436 212.928Z" fill="white"/>
<path d="M60.3436 212.684L60.1003 212.387C59.9922 212.279 59.8301 212.252 59.722 212.36L54.2093 216.846C54.1012 216.954 54.0741 217.116 54.1822 217.224L54.4254 217.522C54.5335 217.63 54.6957 217.657 54.8038 217.549L60.3165 213.063C60.4246 212.982 60.4517 212.792 60.3436 212.684Z" fill="white"/>
<path d="M51.9393 212.928L51.6961 213.225C51.615 213.333 51.4258 213.36 51.3177 213.252L45.8049 208.766C45.6968 208.658 45.6698 208.496 45.7779 208.388L46.0211 208.09C46.1022 207.982 46.2913 207.955 46.3994 208.063L51.9123 212.549C52.0204 212.63 52.0474 212.82 51.9393 212.928Z" fill="white"/>
<path d="M51.9393 212.684L51.6961 212.387C51.615 212.279 51.4258 212.252 51.3177 212.36L45.8049 216.846C45.6968 216.954 45.6698 217.116 45.7779 217.224L46.0211 217.522C46.1022 217.63 46.2913 217.657 46.3994 217.549L51.9123 213.063C52.0204 212.982 52.0474 212.792 51.9393 212.684Z" fill="white"/>
<path d="M227.89 137.045L127.794 171.744C121.444 171.744 116.282 166.582 116.282 160.232V110.806C116.282 104.455 121.444 99.2935 127.794 99.2935L227.89 64.5953C234.24 64.5953 239.402 69.7568 239.402 76.1074V125.533C239.375 131.884 234.24 137.045 227.89 137.045Z" fill="#8888CF"/>
<path d="M221.701 134.127L121.606 168.825C115.255 168.825 110.094 163.664 110.094 157.313V107.887C110.094 101.536 115.255 96.375 121.606 96.375L221.701 61.6768C228.052 61.6768 233.213 66.8382 233.213 73.1888V122.615C233.186 128.992 228.052 134.127 221.701 134.127Z" fill="#E3E6FF"/>
<path opacity="0.39" d="M161.466 119.345L130.578 130.046C128.632 130.046 127.038 128.452 127.038 126.506V111.265C127.038 109.319 128.632 107.725 130.578 107.725L161.466 97.0234C163.411 97.0234 165.006 98.6178 165.006 100.563V115.805C165.033 117.778 163.438 119.345 161.466 119.345Z" fill="white"/>
<path d="M231.484 48.0839L200.596 58.7852C198.65 58.7852 197.056 57.1908 197.056 55.2451V40.0039C197.056 38.0582 198.65 36.4638 200.596 36.4638L231.484 25.7625C233.429 25.7625 235.024 27.3568 235.024 29.3025V44.5438C235.024 46.4895 233.429 48.0839 231.484 48.0839Z" fill="#8888CF"/>
<path d="M219.782 44.0572L190.543 54.1911C188.678 54.1911 187.192 52.6777 187.192 50.8401V36.4096C187.192 34.5449 188.705 33.0586 190.543 33.0586L219.782 22.9248C221.647 22.9248 223.133 24.4381 223.133 26.2757V40.7063C223.133 42.5439 221.62 44.0572 219.782 44.0572Z" fill="#E3E6FF"/>
<path d="M229.835 161.718L200.596 171.852C198.731 171.852 197.245 170.338 197.245 168.501V154.07C197.245 152.206 198.758 150.719 200.596 150.719L229.835 140.585C231.7 140.585 233.186 142.099 233.186 143.936V158.367C233.186 160.232 231.7 161.718 229.835 161.718Z" fill="#E3E6FF"/>
<path d="M181.328 166.636L150.44 177.337C148.494 177.337 146.9 175.743 146.9 173.797V158.556C146.9 156.61 148.494 155.016 150.44 155.016L181.328 144.315C183.274 144.315 184.868 145.909 184.868 147.855V163.096C184.868 165.042 183.274 166.636 181.328 166.636Z" fill="#8888CF"/>
<path opacity="0.51" d="M161.466 147.233L130.578 157.935C128.632 157.935 127.038 156.34 127.038 154.395V139.153C127.038 137.208 128.632 135.613 130.578 135.613L161.466 124.912C163.411 124.912 165.006 126.506 165.006 128.452V143.693C165.033 145.639 163.438 147.233 161.466 147.233Z" fill="white"/>
<path opacity="0.51" d="M176.302 137.748C175.545 137.748 174.923 137.127 174.923 136.37V113.346C174.923 112.589 175.545 111.968 176.302 111.968C177.058 111.968 177.68 112.589 177.68 113.346V136.37C177.68 137.154 177.058 137.748 176.302 137.748Z" fill="white"/>
<path opacity="0.51" d="M183.679 92.7269C183.436 92.0242 183.787 91.2135 184.517 90.9703L221.053 77.945C221.755 77.7018 222.566 78.0531 222.809 78.7827C223.052 79.4854 222.674 80.269 221.971 80.5393L185.436 93.5646C184.733 93.8349 183.949 93.4565 183.679 92.7269Z" fill="white"/>
<path opacity="0.51" d="M183.679 97.7261C183.436 97.0235 183.787 96.2128 184.517 95.9696L221.053 82.9443C221.755 82.701 222.566 83.0524 222.809 83.782C223.052 84.4846 222.674 85.2953 221.971 85.5385L185.436 98.5639C184.733 98.8071 183.949 98.4287 183.679 97.7261Z" fill="white"/>
<path opacity="0.51" d="M183.679 102.699C183.436 101.996 183.787 101.185 184.517 100.942L221.053 87.9167C221.755 87.6735 222.566 88.0247 222.809 88.7544C223.052 89.457 222.674 90.2407 221.971 90.5109L185.436 103.536C184.733 103.779 183.949 103.401 183.679 102.699Z" fill="white"/>
<path opacity="0.51" d="M183.679 107.671C183.436 106.968 183.787 106.158 184.517 105.914L221.053 92.889C221.755 92.6457 222.566 92.9971 222.809 93.7267C223.052 94.4293 222.674 95.24 221.971 95.4832L185.436 108.509C184.733 108.752 183.949 108.373 183.679 107.671Z" fill="white"/>
<path opacity="0.51" d="M183.679 112.643C183.436 111.94 183.787 111.13 184.517 110.887L221.053 97.8611C221.755 97.6179 222.566 97.9692 222.809 98.6989C223.052 99.4015 222.674 100.212 221.971 100.455L185.436 113.481C184.733 113.724 183.949 113.346 183.679 112.643Z" fill="white"/>
<path opacity="0.51" d="M183.679 117.615C183.436 116.913 183.787 116.102 184.517 115.859L221.053 102.834C221.755 102.59 222.566 102.942 222.809 103.671C223.052 104.374 222.674 105.158 221.971 105.428L185.436 118.453C184.733 118.696 183.949 118.318 183.679 117.615Z" fill="white"/>
<path opacity="0.51" d="M183.679 122.588C183.436 121.885 183.787 121.101 184.517 120.831L221.053 107.806C221.755 107.563 222.566 107.941 222.809 108.644C223.052 109.346 222.674 110.157 221.971 110.4L185.436 123.425C184.733 123.669 183.949 123.317 183.679 122.588Z" fill="white"/>
<path opacity="0.51" d="M183.679 127.56C183.436 126.858 183.787 126.047 184.517 125.804L221.053 112.778C221.755 112.535 222.566 112.886 222.809 113.616C223.052 114.319 222.674 115.129 221.971 115.372L185.436 128.398C184.733 128.668 183.949 128.29 183.679 127.56Z" fill="white"/>
<path opacity="0.51" d="M183.679 132.559C183.436 131.857 183.787 131.046 184.517 130.803L221.053 117.778C221.755 117.534 222.566 117.886 222.809 118.615C223.052 119.318 222.674 120.102 221.971 120.372L185.436 133.397C184.733 133.64 183.949 133.262 183.679 132.559Z" fill="white"/>
<path opacity="0.51" d="M183.679 137.532C183.436 136.829 183.787 136.046 184.517 135.775L221.053 122.75C221.755 122.507 222.566 122.885 222.809 123.588C223.052 124.29 222.674 125.101 221.971 125.344L185.436 138.37C184.733 138.613 183.949 138.235 183.679 137.532Z" fill="white"/>
<path d="M167.114 53.0563C167.465 52.8401 167.816 52.651 168.168 52.4888C172.978 50.2729 178.707 52.4077 180.923 57.2179C183.139 62.0281 181.004 67.7571 176.194 69.973L175.221 67.8652C178.896 66.1898 180.49 61.839 178.815 58.1638C177.139 54.4886 172.789 52.8942 169.113 54.5696C168.843 54.7047 168.573 54.8399 168.303 55.002L167.114 53.0563Z" fill="#E3E6FF"/>
<path d="M172.87 70.2432L177.139 70.6486L175.356 66.7572L172.87 70.2432Z" fill="#E3E6FF"/>
<path d="M172.059 71.8105C171.708 72.0267 171.356 72.2159 171.005 72.378C166.195 74.594 160.466 72.4591 158.25 67.6489C156.034 62.8117 158.169 57.1097 162.979 54.8938L163.952 57.0016C160.277 58.6771 158.682 63.0279 160.358 66.7031C162.033 70.3783 166.384 71.9727 170.059 70.2972C170.329 70.1621 170.6 70.027 170.87 69.8649L172.059 71.8105Z" fill="#E3E6FF"/>
<path d="M166.303 54.6235L162.033 54.2181L163.817 58.1095L166.303 54.6235Z" fill="#E3E6FF"/>
<path opacity="0.36" d="M176.302 106.238C180.197 106.238 183.355 103.081 183.355 99.1853C183.355 95.2899 180.197 92.1321 176.302 92.1321C172.406 92.1321 169.249 95.2899 169.249 99.1853C169.249 103.081 172.406 106.238 176.302 106.238Z" fill="#F44E4E"/>
<path d="M176.302 102.725C178.257 102.725 179.842 101.141 179.842 99.1854C179.842 97.2302 178.257 95.6453 176.302 95.6453C174.346 95.6453 172.762 97.2302 172.762 99.1854C172.762 101.141 174.346 102.725 176.302 102.725Z" fill="#F44E4E"/>
<path opacity="0.36" d="M176.302 104.158C179.048 104.158 181.274 101.932 181.274 99.1855C181.274 96.4394 179.048 94.2131 176.302 94.2131C173.555 94.2131 171.329 96.4394 171.329 99.1855C171.329 101.932 173.555 104.158 176.302 104.158Z" fill="#F44E4E"/>
</svg>
