<svg width="401" height="275" viewBox="0 0 401 275" fill="none" xmlns="http://www.w3.org/2000/svg">
<path d="M388.404 208.981H135.906C129.099 208.981 123.505 203.414 123.505 196.58V12.4016C123.505 5.59451 129.072 0 135.906 0H388.431C395.238 0 400.833 5.56696 400.833 12.4016V196.58C400.805 203.414 395.238 208.981 388.404 208.981Z" fill="#8888CF"/>
<path d="M380.659 191.536H142.438C135.631 191.536 130.036 185.97 130.036 179.135V21.4688C130.036 14.6617 135.603 9.06714 142.438 9.06714H380.659C387.467 9.06714 393.061 14.6341 393.061 21.4688V179.135C393.061 185.97 387.494 191.536 380.659 191.536Z" fill="#E3E6FF"/>
<path d="M276.789 199.446H257.332C256.864 199.446 256.478 199.06 256.478 198.591C256.478 198.123 256.864 197.737 257.332 197.737H276.789C277.257 197.737 277.643 198.123 277.643 198.591C277.671 199.06 277.285 199.446 276.789 199.446Z" fill="#E3E6FF"/>
<path d="M138.304 7.02772C139.369 7.02772 140.233 6.16401 140.233 5.09858C140.233 4.03314 139.369 3.16943 138.304 3.16943C137.239 3.16943 136.375 4.03314 136.375 5.09858C136.375 6.16401 137.239 7.02772 138.304 7.02772Z" fill="#E3E6FF"/>
<path d="M146.627 7.02772C147.692 7.02772 148.556 6.16401 148.556 5.09858C148.556 4.03314 147.692 3.16943 146.627 3.16943C145.561 3.16943 144.698 4.03314 144.698 5.09858C144.698 6.16401 145.561 7.02772 146.627 7.02772Z" fill="white"/>
<path d="M155.032 7.02772C156.098 7.02772 156.962 6.16401 156.962 5.09858C156.962 4.03314 156.098 3.16943 155.032 3.16943C153.967 3.16943 153.103 4.03314 153.103 5.09858C153.103 6.16401 153.967 7.02772 155.032 7.02772Z" fill="#0B0450"/>
<path d="M202.544 112.469H155.391C154.123 112.469 153.103 111.422 153.103 110.182C153.103 108.914 154.151 107.867 155.391 107.867H202.544C203.812 107.867 204.832 108.914 204.832 110.182C204.859 111.422 203.812 112.469 202.544 112.469Z" fill="white"/>
<path d="M202.544 122.997H155.391C154.123 122.997 153.103 121.949 153.103 120.709C153.103 119.442 154.151 118.394 155.391 118.394H202.544C203.812 118.394 204.832 119.442 204.832 120.709C204.859 121.949 203.812 122.997 202.544 122.997Z" fill="white"/>
<path d="M202.544 133.524H155.391C154.123 133.524 153.103 132.477 153.103 131.209C153.103 129.942 154.151 128.922 155.391 128.922H202.544C203.812 128.922 204.832 129.969 204.832 131.209C204.859 132.505 203.812 133.524 202.544 133.524Z" fill="white"/>
<path d="M202.544 145.402H155.391C154.123 145.402 153.103 144.355 153.103 143.115C153.103 141.847 154.151 140.8 155.391 140.8H202.544C203.812 140.8 204.832 141.847 204.832 143.115C204.859 144.383 203.812 145.402 202.544 145.402Z" fill="white"/>
<path d="M202.544 155.93H155.391C154.123 155.93 153.103 154.883 153.103 153.643C153.103 152.375 154.151 151.328 155.391 151.328H202.544C203.812 151.328 204.832 152.375 204.832 153.643C204.859 154.91 203.812 155.93 202.544 155.93Z" fill="white"/>
<path d="M202.544 166.485H155.391C154.123 166.485 153.103 165.438 153.103 164.198C153.103 162.93 154.151 161.883 155.391 161.883H202.544C203.812 161.883 204.832 162.93 204.832 164.198C204.859 165.438 203.812 166.485 202.544 166.485Z" fill="white"/>
<path d="M273.124 112.469H225.97C224.702 112.469 223.682 111.422 223.682 110.182C223.682 108.914 224.73 107.867 225.97 107.867H273.124C274.391 107.867 275.411 108.914 275.411 110.182C275.411 111.422 274.391 112.469 273.124 112.469Z" fill="white"/>
<path d="M273.124 122.997H225.97C224.702 122.997 223.682 121.949 223.682 120.709C223.682 119.442 224.73 118.394 225.97 118.394H273.124C274.391 118.394 275.411 119.442 275.411 120.709C275.411 121.949 274.391 122.997 273.124 122.997Z" fill="white"/>
<path d="M273.124 133.524H225.97C224.702 133.524 223.682 132.477 223.682 131.209C223.682 129.942 224.73 128.922 225.97 128.922H273.124C274.391 128.922 275.411 129.969 275.411 131.209C275.411 132.505 274.391 133.524 273.124 133.524Z" fill="white"/>
<path d="M273.124 145.402H225.97C224.702 145.402 223.682 144.355 223.682 143.115C223.682 141.847 224.73 140.8 225.97 140.8H273.124C274.391 140.8 275.411 141.847 275.411 143.115C275.411 144.383 274.391 145.402 273.124 145.402Z" fill="white"/>
<path d="M273.124 155.93H225.97C224.702 155.93 223.682 154.883 223.682 153.643C223.682 152.375 224.73 151.328 225.97 151.328H273.124C274.391 151.328 275.411 152.375 275.411 153.643C275.411 154.91 274.391 155.93 273.124 155.93Z" fill="white"/>
<path d="M273.124 166.485H225.97C224.702 166.485 223.682 165.438 223.682 164.198C223.682 162.93 224.73 161.883 225.97 161.883H273.124C274.391 161.883 275.411 162.93 275.411 164.198C275.411 165.438 274.391 166.485 273.124 166.485Z" fill="white"/>
<path d="M336.372 66.6383C330.943 65.2879 329.592 49.0004 324.163 49.0004C312.23 50.0752 308.096 65.8942 301.372 77.7447C302.254 82.6226 306.525 86.3706 311.651 86.3706H359.439C365.199 86.3706 369.911 81.658 369.911 75.8981V41.6421C368.258 41.7799 366.549 42.3586 364.868 43.5712C355.388 51.7012 348.581 69.3666 336.372 66.6383Z" fill="#8888CF"/>
<path d="M359.549 27.5317H311.762C306.002 27.5317 301.289 32.2444 301.289 38.0042V75.8981C301.289 76.5319 301.344 77.1383 301.454 77.7446C308.179 65.8941 312.313 50.1027 324.246 49.0004C329.675 49.0004 331.025 65.2878 336.455 66.6382C348.663 69.3666 355.47 51.7011 364.951 43.5712C366.659 42.3586 368.341 41.7523 369.994 41.642V38.0042C370.022 32.2444 365.309 27.5317 359.549 27.5317Z" fill="white"/>
<path d="M342.435 51.8939C345.768 51.8939 348.47 49.1918 348.47 45.8585C348.47 42.5252 345.768 39.823 342.435 39.823C339.102 39.823 336.399 42.5252 336.399 45.8585C336.399 49.1918 339.102 51.8939 342.435 51.8939Z" fill="#8888CF"/>
<path d="M165.505 87.5556H263.037C269.844 87.5556 275.439 81.9886 275.439 75.154V39.9058C275.439 33.0987 269.872 27.5042 263.037 27.5042H165.505C158.698 27.5042 153.103 33.0711 153.103 39.9058V75.154C153.103 81.9886 158.67 87.5556 165.505 87.5556Z" fill="white"/>
<path d="M313.691 132.642H357.537C364.344 132.642 369.939 127.075 369.939 120.241C369.939 113.434 364.372 107.839 357.537 107.839H313.691C306.884 107.839 301.289 113.406 301.289 120.241C301.289 127.075 306.884 132.642 313.691 132.642Z" fill="white"/>
<path d="M313.691 163.729H357.537C364.344 163.729 369.939 158.162 369.939 151.327C369.939 144.52 364.372 138.926 357.537 138.926H313.691C306.884 138.926 301.289 144.493 301.289 151.327C301.289 158.162 306.884 163.729 313.691 163.729Z" fill="white"/>
<path d="M267.088 272.064C317.453 272.064 358.281 269.276 358.281 265.836C358.281 262.396 317.453 259.607 267.088 259.607C216.723 259.607 175.895 262.396 175.895 265.836C175.895 269.276 216.723 272.064 267.088 272.064Z" fill="#E3E6FF"/>
<path d="M160.82 248.777H114.355C111.737 248.777 109.615 246.655 109.615 244.036V242.245C109.615 239.627 111.737 237.505 114.355 237.505H160.82C163.438 237.505 165.56 239.627 165.56 242.245V244.036C165.56 246.627 163.438 248.777 160.82 248.777Z" fill="#8888CF"/>
<path d="M160.82 260.986H114.355C111.737 260.986 109.615 258.864 109.615 256.245V254.454C109.615 251.863 111.737 249.714 114.355 249.714H160.82C163.438 249.714 165.56 251.836 165.56 254.454V256.245C165.56 258.864 163.438 260.986 160.82 260.986Z" fill="#8888CF"/>
<path d="M160.82 273.36H114.355C111.737 273.36 109.615 271.238 109.615 268.619V266.828C109.615 264.237 111.737 262.088 114.355 262.088H160.82C163.438 262.088 165.56 264.21 165.56 266.828V268.619C165.56 271.21 163.438 273.36 160.82 273.36Z" fill="#8888CF"/>
<path d="M114.19 244.34C114.905 244.34 115.485 243.76 115.485 243.045C115.485 242.329 114.905 241.749 114.19 241.749C113.474 241.749 112.894 242.329 112.894 243.045C112.894 243.76 113.474 244.34 114.19 244.34Z" fill="white"/>
<path d="M160.655 244.34C161.37 244.34 161.95 243.76 161.95 243.045C161.95 242.329 161.37 241.749 160.655 241.749C159.939 241.749 159.359 242.329 159.359 243.045C159.359 243.76 159.939 244.34 160.655 244.34Z" fill="white"/>
<path d="M114.438 256.135C115.153 256.135 115.733 255.555 115.733 254.84C115.733 254.124 115.153 253.544 114.438 253.544C113.722 253.544 113.142 254.124 113.142 254.84C113.142 255.555 113.722 256.135 114.438 256.135Z" fill="white"/>
<path d="M160.903 256.135C161.618 256.135 162.198 255.555 162.198 254.84C162.198 254.124 161.618 253.544 160.903 253.544C160.187 253.544 159.607 254.124 159.607 254.84C159.607 255.555 160.187 256.135 160.903 256.135Z" fill="white"/>
<path d="M114.438 268.95C115.153 268.95 115.733 268.37 115.733 267.655C115.733 266.94 115.153 266.36 114.438 266.36C113.722 266.36 113.142 266.94 113.142 267.655C113.142 268.37 113.722 268.95 114.438 268.95Z" fill="white"/>
<path d="M160.903 268.95C161.618 268.95 162.198 268.37 162.198 267.655C162.198 266.94 161.618 266.36 160.903 266.36C160.187 266.36 159.607 266.94 159.607 267.655C159.607 268.37 160.187 268.95 160.903 268.95Z" fill="white"/>
<path d="M194.084 41.0631C194.249 40.9528 194.415 40.8426 194.552 40.7324C199.568 37.315 205.576 34.504 211.529 35.6615C222.029 37.7284 226.824 49.3032 233.521 56.2757C238.316 61.2915 245.757 65.0396 252.95 64.2955C258.986 63.6616 260.033 57.1576 258.6 52.2245C258.076 50.4056 257.249 48.6694 255.734 47.4568C254.356 46.3544 250.938 44.8111 249.147 45.7757C252.234 44.0946 256.257 44.9213 259.013 47.1261C268.328 54.5119 265.986 70.3033 255.982 75.8427C248.238 80.142 238.785 76.3664 232.667 70.9097C225.777 64.764 223.627 55.2285 217.206 48.6969C215.497 46.9607 213.568 45.4174 210.95 45.6379C205.796 46.0788 204.942 51.5356 201.497 54.2639C200.615 54.9529 199.43 55.3938 198.328 55.1458C197.501 54.9529 196.84 54.4293 196.123 53.9883C192.871 52.0041 183.611 52.3623 188.296 46.2166C189.895 44.2048 191.962 42.5513 194.084 41.0631Z" fill="#FF9A9A"/>
<path d="M138.387 98.4964C135.961 101.197 132.82 104.422 131.414 107.867C131.304 108.142 131.194 108.473 131.332 108.748C133.15 112.248 160.269 86.8665 163.135 84.2208C169.198 78.6538 174.847 74.4097 180.084 68.0435C181.103 66.8309 182.123 65.5081 182.371 63.9097C182.509 62.9175 177.879 64.9845 176.997 65.4254C170.107 68.9254 162.06 75.0436 156.438 80.2522C150.21 86.0397 144.119 92.1027 138.387 98.4964Z" fill="#0B0450"/>
<path d="M191.466 53.5199C191.3 52.2247 190.997 50.9569 190.501 49.7719C189.316 46.9333 187.194 44.2325 184.025 43.6262C189.151 46.8506 184.245 53.1341 180.552 55.6696C179.643 56.3034 178.651 56.8271 177.576 57.268C174.82 58.3704 171.155 59.2523 170.466 62.6145C179.477 62.8625 186.202 59.142 191.466 53.5199Z" fill="#F44E4E"/>
<path d="M170.438 62.6146C170.438 62.6421 170.41 62.6697 170.41 62.6972C169.391 68.0988 172.863 73.528 178.816 72.5359C187.084 71.1579 192.43 61.65 191.438 53.52C186.202 59.1421 179.477 62.8626 170.438 62.6146Z" fill="#8888CF"/>
<path d="M29.9688 254.564C28.3428 252.745 26.7169 250.926 26.2483 248.529C26.0003 247.288 26.4137 245.607 27.6814 245.525C28.3153 245.497 28.8665 245.91 29.4177 246.186C31.5673 247.316 31.5948 244.753 30.9885 243.402C29.9413 241.005 28.3428 238.607 28.7011 236.017C28.7287 235.851 28.7562 235.686 28.8665 235.548C29.0318 235.383 29.3074 235.383 29.5554 235.41C31.209 235.631 32.9177 237.78 34.6263 237.064C38.7878 235.355 35.1775 225.792 34.9019 222.816C34.8468 222.237 34.7917 221.658 35.0673 221.162C35.5909 220.198 37.0515 220.17 37.9886 220.721C39.4492 221.576 40.276 223.229 41.8468 223.891C43.087 224.414 44.5201 223.808 45.4295 222.926C48.1855 220.253 48.8469 215.843 51.024 212.729C52.8154 210.194 57.7761 206.308 60.5595 209.753C61.8273 211.324 61.0832 213.639 60.5595 215.595C60.0635 217.414 59.6776 219.536 59.8705 221.41C60.0083 222.788 60.5871 224.194 61.717 224.993C63.9217 226.536 68.0281 226.591 65.7682 230.284C65.0792 231.414 64.0044 232.241 63.1777 233.288C62.3509 234.336 61.7721 235.769 62.2958 236.981C63.2603 239.186 69.847 240.013 67.3115 243.485C66.6777 244.367 65.6855 244.863 64.7485 245.414C60.2564 248.005 64.28 250.292 63.4257 253.847C63.1225 255.143 62.1304 256.162 61.028 256.851C59.2091 257.954 57.0319 258.395 55.1028 259.221C51.1618 260.93 47.6618 263.493 44.3823 266.221C41.9846 268.233 38.1815 272.698 34.6539 270.521C32.4767 269.198 33.8271 265.45 34.02 263.521C34.4334 259.828 32.394 257.237 29.9688 254.564Z" fill="#FF9A9A"/>
<path d="M36.2248 273.415C36.1696 273.415 36.1145 273.415 36.0319 273.387C35.7563 273.277 35.6185 273.001 35.7287 272.726L52.2366 228.879C52.3469 228.603 52.65 228.466 52.8981 228.576C53.1737 228.686 53.3115 228.962 53.2012 229.237L36.6933 273.056C36.6106 273.277 36.4177 273.415 36.2248 273.415Z" fill="white"/>
<path d="M47.8823 243.072C47.717 243.072 47.5516 242.99 47.4414 242.852C47.276 242.604 47.3587 242.301 47.5792 242.135L55.5989 236.789C55.8469 236.623 56.1501 236.706 56.3154 236.927C56.4808 237.147 56.3981 237.478 56.1776 237.643L48.1579 242.99C48.1028 243.045 47.9925 243.072 47.8823 243.072Z" fill="white"/>
<path d="M42.0673 259.056C41.902 259.056 41.7366 258.974 41.6264 258.836C41.461 258.588 41.5437 258.285 41.7642 258.119L49.7839 252.773C50.0319 252.607 50.3351 252.69 50.5004 252.911C50.6658 253.159 50.5831 253.462 50.3627 253.627L42.3429 258.974C42.2878 259.029 42.1776 259.056 42.0673 259.056Z" fill="white"/>
<path d="M43.9965 251.202C43.8311 251.202 43.6658 251.119 43.5555 250.954L38.4571 242.989C38.2917 242.741 38.3744 242.438 38.6224 242.273C38.8705 242.107 39.1736 242.19 39.339 242.438L44.4374 250.403C44.6028 250.651 44.5201 250.954 44.2721 251.119C44.1894 251.174 44.1067 251.202 43.9965 251.202Z" fill="white"/>
<path d="M25.6972 271.21C18.7798 272.009 12.0829 271.21 9.29947 264.072C8.30734 261.481 6.8467 260.489 4.25614 259.745C2.98841 259.387 1.66557 258.974 0.783678 258.037C-0.0982157 257.072 -0.346246 255.391 0.618326 254.509C1.38998 253.792 2.57503 253.875 3.62228 253.985C5.33094 254.178 7.06717 254.344 8.8034 254.537C9.05144 254.564 9.29947 254.592 9.51994 254.481C10.264 254.123 9.79553 253.021 9.24435 252.414C7.20497 250.155 5.13803 247.922 2.98841 245.773C2.1892 244.974 1.36242 244.147 1.03171 243.072C0.701003 241.997 1.08683 240.619 2.13408 240.233C3.59472 239.682 5.30339 241.281 6.68135 240.536C7.67348 240.013 7.78371 238.635 7.53568 237.56C7.28765 236.485 6.76402 235.383 6.95694 234.281C7.14985 233.233 8.03175 232.351 9.07899 232.158C10.1262 231.966 11.2562 232.489 11.8074 233.399C12.4137 234.418 12.3585 235.851 13.3507 236.485C14.1774 237.036 15.3074 236.678 16.1066 236.127C16.9334 235.576 17.6499 234.832 18.5594 234.529C20.1302 233.977 22.0594 235.025 22.4728 236.651C22.8861 238.249 21.9491 240.123 22.7759 241.556C23.5476 242.907 25.4216 243.072 26.9373 242.769C28.4531 242.466 29.9689 241.832 31.5122 242.135C32.0358 242.245 32.587 242.493 32.8074 242.989C33.0279 243.513 32.8075 244.147 32.5043 244.643C31.65 246.159 30.3271 247.399 29.5003 248.942C28.6736 250.485 28.4807 252.607 29.7484 253.82C30.4098 254.454 31.3468 254.702 32.2011 255.088C33.0279 255.474 33.8823 256.107 34.0201 257.017C34.213 258.56 32.3665 259.442 31.4295 260.682C30.1893 262.281 30.4925 264.513 30.4374 266.552C30.2996 272.312 24.6775 272.174 20.4058 271.127" fill="#978CFF"/>
<path d="M26.6893 272.395C26.4688 272.395 26.2759 272.257 26.1933 272.064L16.6302 246.655C16.52 246.379 16.6578 246.076 16.9334 245.993C17.209 245.883 17.5121 246.021 17.5948 246.296L27.1578 271.706C27.2681 271.982 27.1303 272.285 26.8547 272.368C26.7996 272.368 26.7444 272.395 26.6893 272.395Z" fill="white"/>
<path d="M19.9097 254.84C19.7995 254.84 19.7168 254.812 19.6341 254.757L14.9766 251.67C14.7286 251.505 14.6735 251.202 14.8388 250.954C15.0042 250.706 15.3074 250.651 15.5554 250.816L20.2129 253.903C20.4609 254.068 20.516 254.371 20.3507 254.619C20.2404 254.757 20.0751 254.84 19.9097 254.84Z" fill="white"/>
<path d="M23.272 264.072C23.1617 264.072 23.0791 264.044 22.9964 263.989L18.3389 260.903C18.0908 260.737 18.0357 260.434 18.2011 260.186C18.3664 259.938 18.6696 259.883 18.9176 260.048L23.5751 263.135C23.8232 263.3 23.8783 263.603 23.7129 263.851C23.6027 263.989 23.4373 264.072 23.272 264.072Z" fill="white"/>
<path d="M22.1696 259.525C22.0594 259.525 21.9767 259.497 21.894 259.442C21.646 259.277 21.5909 258.974 21.7287 258.726L24.6775 254.096C24.8153 253.848 25.146 253.792 25.394 253.93C25.6421 254.096 25.6972 254.399 25.5594 254.647L22.6106 259.277C22.5003 259.442 22.335 259.525 22.1696 259.525Z" fill="white"/>
<path d="M90.1306 248.06L91.8944 264.678L86.4101 265.836L85.6109 248.391C85.5833 248.391 88.5046 247.344 90.1306 248.06Z" fill="#EAC2AB"/>
<path d="M112.867 273.497C112.867 273.497 108.761 274.407 101.099 274.131C93.4376 273.856 84.9219 273.194 83.5163 271.899C82.1108 270.604 82.1659 260.903 84.7014 261.178C87.2368 261.454 87.8156 265.23 92.6384 262.474C96.7723 260.104 99.2526 265.726 105.757 267.875C112.233 269.997 114.879 270.852 112.867 273.497Z" fill="#FF9A9A"/>
<path d="M104.627 252.663C104.379 252.056 103.69 251.615 103.111 251.147C97.7644 246.903 99.0873 240.399 99.9416 234.722C101.953 221.273 99.8038 207.714 98.977 194.237C98.1778 181.091 99.5007 167.918 102.505 155.131C103.607 150.473 105.095 143.28 97.9022 144.658C94.4849 145.292 91.1227 145.182 87.7329 144.576C85.9415 144.272 87.7604 143.694 85.9415 144.272C79.7407 146.257 77.3982 157.997 78.6659 162.103C81.2014 170.261 82.0281 178.06 82.4415 186.714C83.0203 198.95 85.0596 211.214 83.599 223.34C82.8825 229.292 82.0557 235.218 81.2565 241.17C80.788 244.643 77.8943 252.222 79.851 255.363C82.5242 259.663 94.4022 256.025 98.3707 255.915C101.375 255.804 105.481 254.702 104.627 252.663Z" fill="#0B0450"/>
<path d="M124.111 212.206L120.446 228.741L114.796 228.08L119.646 211.076C119.646 211.048 122.761 210.965 124.111 212.206Z" fill="#EAC2AB"/>
<path d="M142.438 236.733C142.438 236.733 138.276 237.698 130.505 237.477C122.733 237.257 114.107 236.678 112.674 235.355C111.241 234.033 111.213 224.222 113.776 224.497C116.339 224.773 116.973 228.576 121.824 225.737C125.985 223.285 128.548 228.962 135.162 231.084C141.776 233.206 144.45 234.06 142.438 236.733Z" fill="#FF9A9A"/>
<path d="M144.615 160.036C140.977 154.524 128.493 154.579 117.083 155.985L102.89 155.158L100.961 149.784C100.961 149.784 78.3904 156.674 78.3628 156.702C79.0793 156.591 78.9691 165.686 79.3825 166.485C82.6069 172.686 91.8117 177.812 99.17 177.895C107.934 178.005 116.202 175.497 124.387 172.796C139.241 167.891 118.406 198.867 113.666 208.678C108.926 218.489 114.135 217.966 125.93 217.442C137.725 216.918 132.158 217.69 134.17 209.505C136.182 201.265 151.808 170.95 144.615 160.036Z" fill="#0B0450"/>
<path d="M99.9967 86.3153L98.2881 98.7445C95.2841 99.6264 92.1424 101.307 89.0006 101.307C89.1384 98.9925 91.3983 96.3744 92.4455 94.1972C93.7132 91.5515 94.5951 88.8232 94.4573 85.8743C94.0715 78.1302 99.9967 86.3153 99.9967 86.3153Z" fill="#D4A79A"/>
<path d="M114.961 60.3545C115.485 60.5198 117.028 66.39 114.272 70.1656C111.516 73.9412 113.115 73.4451 110.414 76.0081C107.713 78.5987 105.839 79.1498 105.839 79.1498L102.753 80.3073L103.083 73.9412L106.142 63.7994L115.843 60.3545" fill="#27197A"/>
<path d="M107.631 61.7326C107.631 61.7326 112.509 65.0673 109.918 72.9768C107.162 81.465 103.166 88.5477 100.603 87.8036C93.5203 85.7642 91.4258 80.4728 89.2762 75.898C86.6581 70.3035 93.7959 57.7365 93.7959 57.7365L99.8038 55.1184L107.631 61.7326Z" fill="#EAC2AB"/>
<path d="M118.682 59.8034C119.481 57.8191 118.599 54.1262 117.221 52.7482C116.698 52.2246 116.009 51.8663 115.292 51.8663C114.741 51.8663 114.19 52.0868 113.666 51.949C112.095 51.5632 112.095 50.2128 110.635 49.6065C109.56 49.1655 108.402 50.075 107.245 50.2403C106.363 50.3781 105.509 50.075 104.654 49.827C102.284 49.1104 100.135 47.7876 97.6818 47.2639C95.6148 46.8506 93.4101 46.9057 91.4258 47.76C89.3589 48.6695 87.788 50.4884 86.851 52.6931C86.2998 54.0159 86.0242 55.5041 86.2723 56.9097C86.0793 55.7522 83.9297 56.7994 83.5715 57.2128C82.1384 58.8664 78.5006 63.6616 79.0242 65.7561C79.4376 67.4097 78.1699 68.9254 78.5281 70.6066C78.9691 72.6184 84.2053 73.7759 85.1423 75.5948C86.2171 77.6893 88.5872 78.9019 90.7644 78.516C90.2684 76.6696 89.7723 74.768 89.7998 72.8389C89.8274 70.9097 88.0085 61.9806 97.6542 60.8782C101.485 60.4372 105.784 63.9648 109.56 64.4333C111.351 64.6538 113.17 64.4609 114.934 63.9097C116.284 63.4963 117.717 61.6498 118.544 60.2994C118.544 60.1065 118.627 59.9687 118.682 59.8034Z" fill="#0B0450"/>
<path d="M159.58 86.8666C159.359 86.7564 159.111 86.9769 158.918 87.1698C157.375 88.8785 155.804 90.6147 154.261 92.3234C153.958 92.6541 153.654 93.0123 153.241 93.2053C152.828 93.3982 152.304 93.3982 151.973 93.0951C151.56 92.7368 151.588 92.1029 151.615 91.5517C151.67 90.7249 153.048 89.099 151.753 88.7407C149.906 89.6501 148.115 93.4809 147.564 95.3825C146.82 97.4219 148.473 98.8825 147.371 100.646C145.304 103.926 143.292 107.233 141.032 110.402C139.847 112.056 138.662 113.682 137.45 115.335C136.898 116.079 134.611 120.131 133.812 120.213C131.166 123.796 128.576 127.516 125.737 130.961C124.635 132.284 116.312 124.733 116.312 124.733C109.009 119.083 107.768 114.619 107.768 114.619L101.375 116.272C101.375 116.272 103.635 122.06 108.099 125.863C112.95 130.024 119.178 136.583 122.568 139.146C125.985 141.709 126.206 140.469 127.501 139.229C130.202 136.611 132.186 132.615 134.28 129.528C137.891 124.182 141.446 118.808 144.891 113.323C146.544 110.678 148.308 107.867 149.851 105.028C151.312 102.327 152.525 100.839 155.198 99.2683C157.458 97.9454 158.698 95.8785 159.111 93.288C159.387 91.4415 159.249 89.5123 159.745 87.6934C159.828 87.3903 159.855 86.9769 159.58 86.8666Z" fill="#EAC2AB"/>
<path d="M102.587 122.831C101.816 115.335 105.426 103.43 101.072 97.339C100.631 96.7051 100.135 96.0988 99.5007 95.6855C91.2881 90.5319 85.6109 98.5517 82.9927 105.579C80.7053 111.697 81.0085 117.319 80.8156 123.686C80.54 134.434 78.0321 144.879 74.8352 155.103C73.7053 158.741 73.4021 162.985 76.6266 163.536C80.9809 164.28 81.9179 158.934 86.0518 157.528C89.855 156.261 92.914 157.032 97.0479 157.28C99.1149 157.39 105.812 156.04 105.398 152.209C104.434 143.142 102.973 135.343 102.918 129.032C102.89 126.993 102.808 124.898 102.587 122.831Z" fill="#F9A0CF"/>
<path d="M109.312 113.599C109.312 113.599 100.41 95.3547 94.7605 101.004C89.0833 106.626 102.284 125.036 102.284 125.036L111.461 115.638L109.312 113.599Z" fill="#FE67AF"/>
<path d="M108.871 60.9059C110.993 59.6933 111.599 56.965 111.82 54.5122C112.04 51.8665 112.013 48.2838 109.78 46.4374C108.926 45.7208 107.879 45.2799 106.804 44.9492C101.54 43.3507 95.1739 43.8192 90.0479 45.7484C84.8116 47.7326 80.9533 52.2524 79.1069 57.4335C78.1698 60.0516 77.7289 62.8351 77.7289 65.591C77.7565 68.5123 79.0517 71.5713 76.7919 73.9965C77.6187 73.9965 78.4179 73.8863 79.2171 73.6934C76.3234 74.4375 71.6659 74.6028 71.5556 78.7367C71.5005 80.3903 72.5753 81.8233 73.4848 83.2013C74.3942 84.5792 75.1935 86.2879 74.5596 87.8312C73.7604 89.7604 71.032 90.5045 70.6737 92.5714C70.2604 95.0242 72.5478 96.1266 73.4848 98.0281C74.6423 100.426 73.5399 103.209 73.2643 105.69C73.0163 107.894 75.0557 108.914 76.3785 110.237C80.2368 114.04 80.1817 118.394 75.9651 122.611C75.8824 122.694 75.91 122.859 75.9651 122.969C76.0202 123.079 76.158 123.135 76.2958 123.162C81.7525 124.595 88.8077 119.331 90.0479 114.095C90.599 111.725 89.166 109.52 89.7998 107.26C90.2959 105.442 92.1424 104.422 93.7408 103.43C97.4337 101.115 96.7172 95.2171 96.2211 90.8903C95.8077 87.1147 96.7999 86.3706 94.6227 83.2565C93.4928 81.6305 92.6109 79.8391 91.8668 77.9926C90.8746 75.5399 89.7171 77.1934 89.7998 74.5477C89.8825 71.654 91.3156 68.9808 93.6581 67.2996C94.8707 66.4178 96.3038 65.8115 97.792 65.5359C99.3629 65.2603 100.961 64.9847 102.174 63.8823C103.304 62.8626 104.875 60.5201 106.638 60.6854C108.843 60.8784 111.351 60.3272 112.481 58.4532" fill="#0B0450"/>
</svg>
